<?xml version="1.0" encoding="utf-8"?>
<!-- Generator: Adobe Illustrator 22.1.0, SVG Export Plug-In . SVG Version: 6.00 Build 0)  -->
<svg version="1.1" id="Layer_1" xmlns="http://www.w3.org/2000/svg" xmlns:xlink="http://www.w3.org/1999/xlink" x="0px" y="0px"
	 viewBox="0 0 61.2 80" style="enable-background:new 0 0 61.2 80;" xml:space="preserve">
<style type="text/css">
	.st0{fill:#262522;}
</style>
<g>
	<path class="st0" d="M61,10.5C62,4.2,58.7,0.1,58,0c-1.5-0.2-1.1,2.9-4.2,5.7c-1.5,1.4-3.8,3.1-5.7,3.7c-5.6,1.9-7.9-3.4-13.3-5.4
		c-4-1.4-8.6-1.5-13.5,0.9c-3.5,1.7-6.2,4.6-6.8,8.4c-0.6,3.8,1.7,15.8,0.5,18.1c-1.3,2.3-2.8,3.5-5.3,4.2C4.2,37.3,0.9,35,0.1,36
		c-1,1.3,4.4,6.6,6.2,8.1c2,1.6,7.1,3.7,9.6,3.9c4.1,0.4,8.4-0.6,12.4-1.7c1.9-0.5,3.9-1.7,5.9-1.9c1.9-0.1,4.4,0.3,5.7,1.7
		c1.6,1.8,1.9,4,1.3,6.4c-0.5,2-3.4,5.6-5.3,8.2c-0.8,1.2-1.5,3.9-0.8,5.2c1.1,2,2.4,2.9,4.9,4.8c1.3,1,0.9,3.6,0.2,5.1
		s-1.9,2.7-3,3.8l0.2,0.5c3.4-2.5,7.7-5.9,8.4-7.8c0.7-2.1,0.1-4.2-1.2-4.9c-1.4-0.8-3.6-1.6-2.6-2.9C45,60.2,57,51,57,45.8
		c0-1.4-1-3.3-1.7-5.7c-0.9-3-2-5.3,0.2-7.5c1-1,4.1-3.3,4.3-6.5c0.1-1.5-1.5-2.9-2.3-4.2c-1.1-1.7-0.7-4.3,0.6-5.8
		C59.9,14,60.7,12.6,61,10.5z M26,18c-0.7,1.4-2.5,1.9-4.1,1.5c-1.5-0.4-2.7-1.5-3.7-2.7c-0.3-0.4-0.6-0.8-0.7-1.2
		c-0.1-0.5,0.1-1,0.5-1.2c0.2-0.1,0.4-0.1,0.7-0.1c0.9,0,1.9,0.2,2.8,0.4c0.8,0.2,1.5,0.7,2.3,0.6c1.5-0.1,2.4-0.8,2.4-0.8
		C26.3,15.7,26.5,17,26,18z M27.2,13.9c0,0,0.8-0.7,1.3-2.1c0.3-0.7,0-1.6,0-2.3c0-0.9,0-1.9,0.2-2.8c0-0.2,0.1-0.5,0.2-0.6
		c0.3-0.4,0.9-0.4,1.3-0.2c0.4,0.2,0.7,0.6,1,1C32.1,8,32.9,9.4,33,11c0,1.6-0.9,3.2-2.4,3.6C29.4,14.8,28.2,14.3,27.2,13.9z
		 M34.3,26.8c-0.9,0.6-2.9-0.9-4.4-3.4c-1.5-2.4-2-4.9-1-5.5c0.9-0.6,2.9,0.9,4.4,3.4C34.8,23.7,35.2,26.2,34.3,26.8z"/>
</g>
</svg>
