<?xml version="1.0" encoding="utf-8"?>
<!-- Generator: Adobe Illustrator 16.0.0, SVG Export Plug-In . SVG Version: 6.00 Build 0)  -->
<!DOCTYPE svg PUBLIC "-//W3C//DTD SVG 1.1//EN" "http://www.w3.org/Graphics/SVG/1.1/DTD/svg11.dtd">
<svg version="1.1" id="Layer_1" xmlns="http://www.w3.org/2000/svg" xmlns:xlink="http://www.w3.org/1999/xlink" x="0px" y="0px"
	 width="504px" height="501.352px" viewBox="0 0 504 501.352" enable-background="new 0 0 504 501.352" xml:space="preserve">
<g>
	<rect x="238.392" y="0.008" fill="#E6E6E6" width="27.215" height="27.216"/>
	<rect x="204.336" y="33.848" fill="#E6E6E6" width="27.216" height="27.216"/>
	<rect x="238.392" y="33.848" fill="#E6E6E6" width="27.215" height="27.216"/>
	<rect x="272.448" y="33.848" fill="#E6E6E6" width="27.216" height="27.216"/>
	<rect x="170.28" y="67.76" fill="#E6E6E6" width="27.216" height="27.216"/>
	<rect x="204.336" y="67.76" fill="#E6E6E6" width="27.216" height="27.216"/>
	<rect x="238.392" y="67.76" fill="#E6E6E6" width="27.215" height="27.216"/>
	<rect x="272.448" y="67.76" fill="#E6E6E6" width="27.216" height="27.216"/>
	<rect x="306.504" y="67.76" fill="#E6E6E6" width="27.216" height="27.216"/>
	<rect x="136.224" y="101.6" fill="#E6E6E6" width="27.216" height="27.216"/>
	<rect x="170.28" y="101.6" fill="#E6E6E6" width="27.216" height="27.216"/>
	<rect x="204.336" y="101.6" fill="#E6E6E6" width="27.216" height="27.216"/>
	<rect x="238.392" y="101.6" fill="#E6E6E6" width="27.215" height="27.216"/>
	<rect x="272.448" y="101.6" fill="#E6E6E6" width="27.216" height="27.216"/>
	<rect x="306.504" y="101.6" fill="#E6E6E6" width="27.216" height="27.216"/>
	<rect x="340.561" y="101.6" fill="#E6E6E6" width="27.215" height="27.216"/>
	<rect x="102.168" y="135.44" fill="#E6E6E6" width="27.216" height="27.216"/>
	<rect x="136.224" y="135.44" fill="#E6E6E6" width="27.216" height="27.216"/>
	<rect x="170.28" y="135.44" fill="#E6E6E6" width="27.216" height="27.216"/>
	<rect x="204.336" y="135.44" fill="#E6E6E6" width="27.216" height="27.216"/>
	<rect x="238.392" y="135.44" fill="#E6E6E6" width="27.215" height="27.216"/>
	<rect x="272.448" y="135.44" fill="#E6E6E6" width="27.216" height="27.216"/>
	<rect x="306.504" y="135.44" fill="#E6E6E6" width="27.216" height="27.216"/>
	<rect x="340.561" y="135.44" fill="#E6E6E6" width="27.215" height="27.216"/>
	<rect x="374.616" y="135.44" fill="#E6E6E6" width="27.216" height="27.216"/>
	<rect x="68.112" y="169.352" fill="#E6E6E6" width="27.216" height="27.216"/>
	<rect x="102.168" y="169.352" fill="#E6E6E6" width="27.216" height="27.216"/>
	<rect x="374.616" y="169.352" fill="#E6E6E6" width="27.216" height="27.216"/>
	<rect x="408.672" y="169.352" fill="#E6E6E6" width="27.216" height="27.216"/>
	<rect x="34.056" y="203.192" fill="#E6E6E6" width="27.216" height="27.216"/>
	<rect x="68.112" y="203.192" fill="#E6E6E6" width="27.216" height="27.216"/>
	<rect x="102.168" y="203.192" fill="#E6E6E6" width="27.216" height="27.216"/>
	<rect x="374.616" y="203.192" fill="#E6E6E6" width="27.216" height="27.216"/>
	<rect x="408.672" y="203.192" fill="#E6E6E6" width="27.216" height="27.216"/>
	<rect x="442.728" y="203.192" fill="#E6E6E6" width="27.217" height="27.216"/>
	<rect y="237.032" fill="#E6E6E6" width="27.216" height="27.216"/>
	<rect x="34.056" y="237.032" fill="#E6E6E6" width="27.216" height="27.216"/>
	<rect x="68.112" y="237.032" fill="#E6E6E6" width="27.216" height="27.216"/>
	<rect x="102.168" y="237.032" fill="#E6E6E6" width="27.216" height="27.216"/>
	<rect x="374.616" y="237.032" fill="#E6E6E6" width="27.216" height="27.216"/>
	<rect x="408.672" y="237.032" fill="#E6E6E6" width="27.216" height="27.216"/>
	<rect x="442.728" y="237.032" fill="#E6E6E6" width="27.217" height="27.216"/>
	<rect x="476.784" y="237.032" fill="#E6E6E6" width="27.216" height="27.216"/>
	<rect x="34.056" y="270.943" fill="#E6E6E6" width="27.216" height="27.217"/>
	<rect x="68.112" y="270.943" fill="#E6E6E6" width="27.216" height="27.217"/>
	<rect x="102.168" y="270.943" fill="#E6E6E6" width="27.216" height="27.217"/>
	<rect x="374.616" y="270.943" fill="#E6E6E6" width="27.216" height="27.217"/>
	<rect x="408.672" y="270.943" fill="#E6E6E6" width="27.216" height="27.217"/>
	<rect x="442.728" y="270.943" fill="#E6E6E6" width="27.217" height="27.217"/>
	<rect x="68.112" y="304.784" fill="#E6E6E6" width="27.216" height="27.216"/>
	<rect x="102.168" y="304.784" fill="#E6E6E6" width="27.216" height="27.216"/>
	<rect x="374.616" y="304.784" fill="#E6E6E6" width="27.216" height="27.216"/>
	<rect x="408.672" y="304.784" fill="#E6E6E6" width="27.216" height="27.216"/>
	<rect x="102.168" y="338.624" fill="#E6E6E6" width="27.216" height="27.216"/>
	<rect x="136.224" y="338.624" fill="#E6E6E6" width="27.216" height="27.216"/>
	<rect x="170.28" y="338.624" fill="#E6E6E6" width="27.216" height="27.216"/>
	<rect x="204.336" y="338.624" fill="#E6E6E6" width="27.216" height="27.216"/>
	<rect x="238.392" y="338.624" fill="#E6E6E6" width="27.215" height="27.216"/>
	<rect x="272.448" y="338.624" fill="#E6E6E6" width="27.216" height="27.216"/>
	<rect x="306.504" y="338.624" fill="#E6E6E6" width="27.216" height="27.216"/>
	<rect x="340.561" y="338.624" fill="#E6E6E6" width="27.215" height="27.216"/>
	<rect x="374.616" y="338.624" fill="#E6E6E6" width="27.216" height="27.216"/>
	<rect x="136.224" y="372.536" fill="#E6E6E6" width="27.216" height="27.216"/>
	<rect x="170.28" y="372.536" fill="#E6E6E6" width="27.216" height="27.216"/>
	<rect x="204.336" y="372.536" fill="#E6E6E6" width="27.216" height="27.216"/>
	<rect x="238.392" y="372.536" fill="#E6E6E6" width="27.215" height="27.216"/>
	<rect x="272.448" y="372.536" fill="#E6E6E6" width="27.216" height="27.216"/>
	<rect x="306.504" y="372.536" fill="#E6E6E6" width="27.216" height="27.216"/>
	<rect x="340.561" y="372.536" fill="#E6E6E6" width="27.215" height="27.216"/>
	<rect x="170.28" y="406.376" fill="#E6E6E6" width="27.216" height="27.216"/>
	<rect x="204.336" y="406.376" fill="#E6E6E6" width="27.216" height="27.216"/>
	<rect x="238.392" y="406.376" fill="#E6E6E6" width="27.215" height="27.216"/>
	<rect x="272.448" y="406.376" fill="#E6E6E6" width="27.216" height="27.216"/>
	<rect x="306.504" y="406.376" fill="#E6E6E6" width="27.216" height="27.216"/>
	<rect x="204.336" y="440.216" fill="#E6E6E6" width="27.216" height="27.216"/>
	<rect x="238.392" y="440.216" fill="#E6E6E6" width="27.215" height="27.216"/>
	<rect x="272.448" y="440.216" fill="#E6E6E6" width="27.216" height="27.216"/>
	<rect x="238.392" y="474.128" fill="#E6E6E6" width="27.215" height="27.216"/>
</g>
<g>
	<rect x="376.057" y="197.144" fill="#2C2B27" width="7.344" height="112.463"/>
	<rect x="120.96" y="197.144" fill="#2C2B27" width="7.344" height="112.463"/>
</g>
<g>
	<rect x="105.264" y="316.088" fill="#7EC31E" width="32.616" height="84.888"/>
	<rect x="137.88" y="316.088" fill="#2C2B27" width="32.616" height="84.888"/>
	<rect x="170.496" y="316.088" fill="#7EC31E" width="32.616" height="84.888"/>
	<rect x="203.112" y="316.088" fill="#2C2B27" width="32.616" height="84.888"/>
	<rect x="235.728" y="316.088" fill="#7EC31E" width="32.616" height="84.888"/>
	<rect x="268.271" y="316.088" fill="#2C2B27" width="32.617" height="84.888"/>
	<rect x="300.889" y="316.088" fill="#7EC31E" width="32.615" height="84.888"/>
	<rect x="333.504" y="316.088" fill="#2C2B27" width="32.616" height="84.888"/>
	<rect x="366.12" y="316.088" fill="#7EC31E" width="32.616" height="84.888"/>
</g>
<rect x="101.232" y="303.128" fill="#2C2B27" width="301.608" height="14.184"/>
<g>
	<path fill="#7EC31E" d="M146.736,133.28c14.04,0,28.008,0,42.048,0c-4.536,11.448-9.072,22.968-13.608,34.416
		c-4.536,11.448-9.072,22.896-13.608,34.416c-20.088,0-40.176,0-60.264,0c7.56-11.52,15.12-22.968,22.68-34.416
		C131.544,156.248,139.176,144.728,146.736,133.28z"/>
	<path fill="#2C2B27" d="M230.904,133.28c-14.04,0-28.08,0-42.12,0c-4.536,11.448-9.072,22.968-13.608,34.416
		c-4.536,11.448-9.072,22.896-13.608,34.416c20.088,0,40.176,0,60.264,0c1.512-11.52,3.024-22.968,4.536-34.416
		C227.88,156.248,229.392,144.728,230.904,133.28z"/>
	<path fill="#7EC31E" d="M230.904,133.28c14.04,0,28.081,0,42.12,0c1.513,11.448,3.024,22.968,4.537,34.416
		c1.512,11.448,3.023,22.896,4.607,34.416c-20.16,0-40.248,0-60.336,0c1.512-11.52,3.024-22.968,4.536-34.416
		C227.88,156.248,229.392,144.728,230.904,133.28z"/>
	<path fill="#2C2B27" d="M315.145,133.28c-14.041,0-28.08,0-42.121,0c1.513,11.448,3.024,22.968,4.537,34.416
		c1.512,11.448,3.023,22.896,4.607,34.416c20.016,0,40.176,0,60.264,0c-4.535-11.52-9.144-22.968-13.68-34.416
		C324.216,156.248,319.68,144.728,315.145,133.28z"/>
	<path fill="#7EC31E" d="M315.145,133.28c14.039,0,28.08,0,42.119,0c7.561,11.448,15.12,22.968,22.68,34.416
		c7.633,11.448,15.192,22.896,22.753,34.416c-20.089,0-40.177,0-60.265,0c-4.535-11.52-9.144-22.968-13.68-34.416
		C324.216,156.248,319.68,144.728,315.145,133.28z"/>
</g>
<g>
	<path fill="#7EC31E" d="M161.064,201.896c-3.816,8.856-15.624,15.336-29.592,15.336c-13.968,0-25.776-6.48-29.592-15.336H161.064z"
		/>
	<path fill="#2C2B27" d="M220.824,201.896c-3.816,8.856-15.624,15.336-29.592,15.336c-13.968,0-25.776-6.48-29.592-15.336H220.824z"
		/>
	<path fill="#7EC31E" d="M281.88,201.896c-3.815,8.856-15.624,15.336-29.592,15.336c-13.968,0-25.776-6.48-29.592-15.336H281.88z"/>
	<path fill="#2C2B27" d="M342.288,201.896c-3.815,8.856-15.624,15.336-29.593,15.336c-13.967,0-25.848-6.48-29.592-15.336H342.288z"
		/>
	<path fill="#7EC31E" d="M402.48,201.896c-3.816,8.856-15.625,15.336-29.593,15.336s-25.776-6.48-29.592-15.336H402.48z"/>
</g>
<g>
	<path fill="#FFFFFF" d="M167.112,355.76c21.024,0,38.016,16.992,38.016,37.944s-16.992,37.943-38.016,37.943
		c-20.952,0-37.944-16.991-37.944-37.943S146.16,355.76,167.112,355.76z M336.889,355.76c20.951,0,37.943,16.992,37.943,37.944
		s-16.992,37.943-37.943,37.943c-21.024,0-38.017-16.991-38.017-37.943S315.864,355.76,336.889,355.76z"/>
</g>
<g>
	<g>
		<circle fill="#2C2B27" cx="167.112" cy="393.704" r="33.984"/>
		<circle fill="#FFFFFF" cx="167.112" cy="393.704" r="14.976"/>
		<circle fill="#2C2B27" cx="167.112" cy="393.704" r="12.456"/>
	</g>
	<g>
		<circle fill="#2C2B27" cx="336.889" cy="393.704" r="33.984"/>
		<circle fill="#FFFFFF" cx="336.889" cy="393.704" r="14.976"/>
		<circle fill="#2C2B27" cx="336.889" cy="393.704" r="12.456"/>
	</g>
</g>
<g>
	<path fill="#FEFEFE" stroke="#2C2B27" stroke-width="2" d="M149.4,253.304h8.136v29.16c0,2.017-1.584,3.601-3.6,3.601H153
		c-1.944,0-3.6-1.584-3.6-3.601V253.304z"/>
	<path fill="#7EC31E" d="M150.84,266.984v15.479c0,1.224,1.008,2.16,2.16,2.16h0.936c1.224,0,2.16-0.937,2.16-2.16v-15.479H150.84z"
		/>
	<path fill="#2C2B27" d="M148.68,252.225h9.582c0.875,0,1.584,0.387,1.584,0.863v0.072c0,0.477-0.709,0.863-1.584,0.863h-9.582
		c-0.875,0-1.584-0.387-1.584-0.863v-0.072C147.096,252.611,147.805,252.225,148.68,252.225z"/>
</g>
<g>
	<path fill="#FEFEFE" stroke="#2C2B27" stroke-width="2" d="M165.744,253.304h8.136v29.16c0,2.017-1.584,3.601-3.6,3.601h-0.937
		c-1.944,0-3.6-1.584-3.6-3.601V253.304z"/>
	<path fill="#7EC31E" d="M167.184,266.984v15.479c0,1.224,1.008,2.16,2.16,2.16h0.937c1.224,0,2.16-0.937,2.16-2.16v-15.479H167.184
		z"/>
	<path fill="#2C2B27" d="M165.024,252.225h9.583c0.875,0,1.584,0.387,1.584,0.863v0.072c0,0.477-0.709,0.863-1.584,0.863h-9.583
		c-0.875,0-1.584-0.387-1.584-0.863v-0.072C163.44,252.611,164.149,252.225,165.024,252.225z"/>
</g>
<g>
	<path fill="#FEFEFE" stroke="#2C2B27" stroke-width="2" d="M182.088,253.304h8.136v29.16c0,2.017-1.584,3.601-3.6,3.601h-0.936
		c-1.944,0-3.6-1.584-3.6-3.601V253.304z"/>
	<path fill="#7EC31E" d="M183.528,266.984v15.479c0,1.224,1.008,2.16,2.16,2.16h0.936c1.224,0,2.16-0.937,2.16-2.16v-15.479H183.528
		z"/>
	<path fill="#2C2B27" d="M181.368,252.225h9.582c0.875,0,1.584,0.387,1.584,0.863v0.072c0,0.477-0.709,0.863-1.584,0.863h-9.582
		c-0.875,0-1.584-0.387-1.584-0.863v-0.072C179.784,252.611,180.493,252.225,181.368,252.225z"/>
</g>
<path fill="#2C2B27" d="M117.864,257.408h82.371c0.716,0,1.296,0.419,1.296,0.936v0.043c0,0.518-0.58,0.936-1.296,0.936h-82.371
	c-0.716,0-1.296-0.418-1.296-0.936v-0.043C116.568,257.827,117.148,257.408,117.864,257.408z"/>
<g>
	<g>
		<circle fill="#7EC31E" cx="252" cy="87.2" r="37.944"/>
		<circle fill="#2C2B27" cx="252" cy="87.2" r="35.568"/>
		<g>
			<g>
				<path fill="#7EC31E" d="M251.64,113.48c-3.096,0-4.824-0.72-4.824-0.72l-0.936,1.656l-2.376-0.432l0.648-1.512
					c-11.52-10.224-3.6-19.152-3.6-19.152c-2.304-2.592,2.376-1.44,2.376-1.44s10.368,1.872,17.641,0c0,0,4.68-1.152,2.375,1.44
					c0,0,7.921,8.928-3.6,19.152l0.648,1.512l-2.376,0.432l-1.009-1.656c0,0-1.655,0.72-4.751,0.72H251.64z"/>
			</g>
			<ellipse fill="#7EC31E" cx="251.784" cy="91.952" rx="11.952" ry="3.096"/>
			<path fill="#7EC31E" fill-opacity="0.502" d="M247.392,86.264c0-0.72,0.576-1.368,1.368-1.368c0.72,0,1.368,0.648,1.368,1.368
				c0,0.792-0.648,1.368-1.368,1.368C247.968,87.632,247.392,87.056,247.392,86.264z"/>
			<path fill="#7EC31E" fill-opacity="0.502" d="M256.32,87.776c0-0.576,0.432-1.008,0.936-1.008c0.576,0,1.008,0.432,1.008,1.008
				c0,0.504-0.432,0.936-1.008,0.936C256.752,88.712,256.32,88.28,256.32,87.776z"/>
			<path fill="#7EC31E" fill-opacity="0.502" d="M243.576,82.88c0-0.504,0.432-0.936,0.936-0.936c0.576,0,1.008,0.432,1.008,0.936
				c0,0.576-0.432,1.008-1.008,1.008C244.008,83.888,243.576,83.456,243.576,82.88z"/>
			<path fill="#7EC31E" fill-opacity="0.502" d="M257.184,80.72c0-0.576,0.433-1.008,0.937-1.008c0.575,0,1.008,0.504,1.008,1.008
				c0,0.576-0.433,1.008-1.008,1.008C257.616,81.728,257.184,81.296,257.184,80.72z"/>
			<path fill="#ACDA42" fill-opacity="0.6196" d="M260.712,91.16c0-0.936-4.104-1.656-9.072-1.656c-5.04,0-9.072,0.72-9.072,1.656
				c0,0.936,4.032,1.728,9.072,1.728C256.607,92.888,260.712,92.096,260.712,91.16z"/>
			<path fill="#7EC31E" d="M257.111,92.312c2.881-3.168,5.761-6.408,8.568-9.576c0.36-0.36,0.793-0.792,1.297-0.792
				c0.071,0,0.215,0.072,0.287,0.144c0.145,0.072,0.217,0.216,0.288,0.36c0.36,1.08-0.504,2.232-1.368,3.096
				c-2.52,2.52-5.111,5.04-7.632,7.56c-0.071,0.072-0.216,0.072-0.288,0.144c-0.576,0.504-1.656-0.36-1.367-0.576L257.111,92.312z"
				/>
			<g>
				<path fill="#83B841" fill-opacity="0.251" d="M253.729,91.016c0-0.864,0.575-1.728,1.799-1.656
					c1.08,0.144,1.513,0.864,1.513,1.656c-0.072,0.936-0.792,1.656-1.656,1.656C254.448,92.672,253.729,91.952,253.729,91.016z"/>
				<path fill="#CFE07F" fill-opacity="0.3098" d="M254.376,90.584c0-0.504,0.433-1.08,1.151-1.008
					c0.648,0.072,0.937,0.576,0.865,1.008c0,0.576-0.433,1.08-1.009,1.08C254.809,91.664,254.376,91.16,254.376,90.584z"/>
			</g>
			<g>
				<circle fill="#7EC31E" cx="245.516" cy="89.585" r="2.8"/>
				<path fill="#ACDA42" fill-opacity="0.6196" d="M247.032,88.208c-0.288-0.864-1.224-1.296-2.088-0.936
					c-0.864,0.288-1.368,1.224-1.008,2.088c0.288,0.864,1.224,1.296,2.088,1.008C246.888,90.08,247.392,89.072,247.032,88.208z"/>
			</g>
			<path fill="#7EC31E" d="M260.568,64.016c0.359-2.376-0.937-3.96-1.152-3.96c-0.576-0.072-0.432,1.08-1.584,2.16
				c-0.576,0.504-1.439,1.152-2.16,1.368c-2.16,0.72-3.023-1.296-5.04-2.016c-1.512-0.504-3.24-0.576-5.112,0.36
				c-1.296,0.648-2.304,1.728-2.592,3.168c-0.216,1.44,0.648,5.976,0.216,6.84c-0.504,0.864-1.08,1.368-2.016,1.584
				c-2.088,0.648-3.312-0.288-3.6,0.072c-0.36,0.504,1.656,2.52,2.376,3.096c0.72,0.576,2.664,1.368,3.6,1.44
				c1.584,0.144,3.168-0.216,4.68-0.648c0.72-0.144,1.512-0.648,2.232-0.72c0.72,0,1.656,0.144,2.16,0.648
				c0.648,0.72,0.72,1.512,0.504,2.448c-0.216,0.72-1.296,2.088-2.016,3.096c-0.288,0.432-0.576,1.44-0.288,1.944
				c0.432,0.792,0.936,1.08,1.873,1.8c0.504,0.432,0.359,1.368,0.071,1.944c-0.288,0.576-0.72,1.008-1.152,1.44l0.072,0.216
				c1.295-0.936,2.952-2.232,3.168-2.952c0.287-0.792,0.071-1.584-0.433-1.872c-0.504-0.288-1.368-0.576-1.008-1.08
				c1.151-1.584,5.76-5.04,5.76-6.984c0-0.576-0.433-1.296-0.647-2.16c-0.36-1.152-0.793-2.016,0.071-2.88
				c0.36-0.36,1.513-1.224,1.584-2.448c0.072-0.576-0.575-1.08-0.864-1.584c-0.432-0.648-0.215-1.584,0.217-2.16
				C260.136,65.312,260.352,64.808,260.568,64.016z M247.248,66.824c-0.216,0.576-0.936,0.72-1.512,0.576
				c-0.576-0.144-1.008-0.576-1.44-1.008c-0.072-0.144-0.216-0.288-0.216-0.432c-0.072-0.216,0-0.432,0.144-0.504
				c0.072,0,0.144,0,0.288,0c0.36,0,0.72,0.072,1.08,0.144c0.288,0.072,0.576,0.288,0.864,0.216c0.576,0,0.864-0.288,0.864-0.288
				C247.392,65.96,247.464,66.464,247.248,66.824z M247.752,65.312c0,0,0.288-0.288,0.432-0.792c0.144-0.288,0-0.648,0-0.864
				c0-0.36,0-0.72,0.072-1.08c0-0.072,0.072-0.216,0.072-0.216c0.144-0.144,0.36-0.144,0.504-0.072
				c0.144,0.072,0.288,0.216,0.432,0.36c0.288,0.504,0.576,1.008,0.576,1.656c0,0.576-0.288,1.152-0.864,1.296
				C248.544,65.6,248.112,65.456,247.752,65.312z M250.416,70.136c-0.36,0.288-1.08-0.288-1.656-1.224
				c-0.576-0.936-0.792-1.872-0.432-2.088c0.36-0.216,1.152,0.288,1.728,1.296C250.56,68.984,250.776,69.92,250.416,70.136z"/>
			<path fill="#7EC31E" fill-opacity="0.502" d="M261.504,79.568c0.576-0.576,1.368-0.864,1.8-1.44
				c0.505-0.648,0.792-1.512,0.433-2.232c-0.288-0.504-0.721-0.792-1.008-1.224c-0.36-0.648-0.072-1.512,0.432-2.016
				c0.504-0.576,1.224-0.936,1.729-1.368c1.079-0.864,1.943-2.232,1.439-3.528c-0.145-0.432-0.36-0.792-0.648-1.08
				c-0.504-0.72-1.08-1.44-1.656-2.088c-0.432-0.576-0.863-1.152-1.151-1.8c-0.36-0.648-1.08-1.44-0.864-2.088
				c-0.072,0.288,2.376,3.024,3.168,3.672c0.432,0.288,2.088,1.224,2.52,1.656c1.009,0.936,1.44,2.304,0.865,3.6
				c-0.504,1.152-1.944,2.304-2.809,3.24c-0.288,0.36-0.576,0.72-0.576,1.224c-0.072,1.08,0.792,1.224,1.297,2.232
				c0.575,0.864,0.432,2.232-0.217,2.808c-0.576,0.576-1.439,0.936-2.232,1.152c-0.791,0.216-2.879,1.152-3.959,2.376
				c-0.937,0.936-1.801,3.312-1.729,3.384C258.408,86.048,257.616,83.456,261.504,79.568z"/>
			<path fill="#7EC31E" fill-opacity="0.502" d="M249.048,84.68c0.576-1.368,0.432-3.024-0.36-4.248
				c-0.144-0.216-0.36-0.432-0.576-0.576c-0.288-0.144-0.576-0.144-0.864-0.144c-1.584-0.072-4.104,0.36-5.616,0.072
				c-1.8-0.36-3.24-1.512-3.744-2.088c-1.08-1.008-1.8-2.016-2.304-3.384c-0.216-0.504-0.144-1.368,0.144-1.728
				c0.144-0.216,0.288-0.288,0.432-0.36c0.648-0.432,1.728-0.648,2.592-0.936c1.872-0.72,1.656-2.448,1.368-3.24
				s-0.936-1.368-1.44-2.088c-0.504-0.72-1.008-1.656-0.936-2.52c0.072-1.008,0.792-1.872,1.656-2.376
				c-1.008,0.144-1.872,0.576-2.448,1.44c-0.432,0.864-0.36,2.304,0.432,3.888c0.432,0.792-0.072,2.016-1.368,2.448
				c-0.864,0.288-1.8,0.648-2.592,1.008c-1.656,0.72-2.736,2.88-2.592,4.68c0.216,1.872,1.296,3.24,2.952,4.032
				c0.72,0.36,1.44,0.72,2.088,1.152c0.792,0.576,1.512,1.224,1.944,2.16c0.216,0.648,0.648,1.512,1.368,1.44
				c0.288,0,0.576-0.144,0.864-0.36c0.576-0.216,1.152-0.36,1.728-0.504c0.864-0.288,1.8-0.432,2.664-0.648
				c1.008-0.216,2.088-0.36,2.952,0.072c1.08,0.576,1.44,1.656,1.584,2.808H249.048z"/>
			<path fill="#ACDA42" fill-opacity="0.6196" d="M260.568,93.104c0,0,6.264,6.696-0.433,16.56
				C260.136,109.664,269.352,100.52,260.568,93.104z"/>
			<path fill="#ACDA42" fill-opacity="0.6196" d="M243.144,93.104c0,0-6.264,6.696,0.36,16.56
				C243.504,109.664,234.288,100.52,243.144,93.104z"/>
		</g>
	</g>
	<rect x="249.336" y="123.92" fill="#7EC31E" width="5.381" height="12"/>
</g>
<g>
	<g id="XMLID_1_">
		<g>
			<path fill="#2C2B27" d="M252.72,246.896c10.58,3.46,17.78,13.32,17.78,24.48c0,14.26-11.59,25.78-25.77,25.78
				c-14.26,0-25.78-11.521-25.78-25.78c0-11.16,7.2-21.02,17.71-24.48c0.15-0.07,0.22-0.14,0.22-0.29v-1.08
				c0-0.14-0.07-0.21-0.22-0.29c-1-0.21-1.65-1.08-1.65-2.08v-2.09c0-1.23,1.01-2.23,2.23-2.23h14.98c1.22,0,2.23,1,2.23,2.23v1.11
				v0.98c0,1-0.72,1.87-1.66,2.08c-0.14,0.08-0.29,0.15-0.29,0.29v1.08C252.5,246.756,252.58,246.826,252.72,246.896z
				 M268.63,271.376c0-10.58-6.91-19.58-16.49-22.75c-0.86-0.29-1.44-1.08-1.44-2.02v-1.08c0-0.93,0.65-1.8,1.59-2.01
				c0.21-0.08,0.29-0.22,0.29-0.36v-1.15v-0.94c0-0.22-0.15-0.36-0.36-0.36h-14.98c-0.22,0-0.43,0.14-0.43,0.36v2.09
				c0,0.14,0.14,0.28,0.29,0.36c1,0.21,1.65,1.08,1.65,2.01v1.08c0,0.94-0.57,1.73-1.51,2.02c-9.58,3.17-16.42,12.17-16.42,22.75
				c0,13.25,10.66,23.899,23.91,23.899C257.9,295.275,268.63,284.626,268.63,271.376z"/>
			<path fill="#7EC31E" d="M266.62,266.916c0.28,1.359,0.43,2.8,0.43,4.17c0,12.39-10.01,22.32-22.32,22.32
				s-22.32-9.931-22.32-22.32c0-1.37,0.14-2.811,0.43-4.17H266.62z"/>
		</g>
		<g>
		</g>
	</g>
</g>
<g>
	<path fill="#2C2B27" d="M215.712,287.216h57.984c0.517,0,0.937,0.419,0.937,0.937v0.043c0,0.517-0.42,0.936-0.937,0.936h-57.984
		c-0.517,0-0.936-0.419-0.936-0.936v-0.043C214.776,287.635,215.195,287.216,215.712,287.216z"/>
	<g>
		<path fill="#2C2B27" d="M269.773,287.654l12.96,22.447c0.108,0.188-0.167,0.55-0.614,0.809l-0.037,0.021
			c-0.447,0.258-0.898,0.315-1.007,0.128l-12.96-22.448c-0.109-0.188,0.166-0.55,0.613-0.809l0.037-0.021
			C269.214,287.523,269.664,287.466,269.773,287.654z"/>
		<path fill="#2C2B27" d="M219.665,287.654l-12.96,22.447c-0.108,0.188,0.167,0.55,0.614,0.809l0.037,0.021
			c0.448,0.258,0.898,0.315,1.007,0.128l12.96-22.448c0.108-0.188-0.167-0.55-0.614-0.809l-0.037-0.021
			C220.224,287.523,219.773,287.466,219.665,287.654z"/>
	</g>
</g>
<g>
	<path fill="#2C2B27" d="M332.641,251.216l16.487,41.761c0.216,0.575,0.144,1.151-0.144,1.584c-0.36,0.504-0.864,0.791-1.44,0.791
		h-38.735c-0.576,0-1.08-0.287-1.369-0.791c-0.359-0.433-0.432-1.009-0.215-1.584l16.487-41.761
		c0.072-0.072,0.072-0.144,0.072-0.144v-7.488c0-0.144-0.144-0.288-0.288-0.288c-0.648-0.288-1.08-0.864-1.08-1.656v-1.008
		c0-0.936,0.72-1.728,1.656-1.728h8.208c0.936,0,1.728,0.792,1.728,1.728v1.008c0,0.792-0.504,1.368-1.152,1.656
		c-0.144,0-0.287,0.144-0.287,0.288v7.488C332.568,251.072,332.641,251.144,332.641,251.216z M332.208,241.28v-0.288
		c0-0.145-0.144-0.36-0.36-0.36h-7.344c-0.216,0-0.359,0.216-0.359,0.36v0.288c0,0.144,0.144,0.36,0.359,0.36h0.432
		c0.289,0,0.576,0.216,0.576,0.576v9.144c0,0.072,0,0.145,0,0.217l-16.416,41.472c-0.072,0.144-0.072,0.288,0,0.36
		s0.217,0.144,0.36,0.144h37.512c0.072,0,0.216-0.071,0.288-0.144s0.072-0.217,0-0.36l-16.344-41.472
		c-0.072-0.072-0.072-0.145-0.072-0.217v-9.144c0-0.36,0.288-0.576,0.576-0.576h0.432
		C332.064,241.64,332.208,241.424,332.208,241.28z"/>
	<g>
		<path fill="#2C2B27" d="M299.16,295.136h57.984c0.517,0,0.936,0.419,0.936,0.937v0.043c0,0.517-0.419,0.936-0.936,0.936H299.16
			c-0.518,0-0.936-0.419-0.936-0.936v-0.043C298.225,295.555,298.643,295.136,299.16,295.136z"/>
		<g>
			<path fill="#2C2B27" d="M353.238,295.581l12.961,22.448c0.108,0.188-0.166,0.55-0.614,0.808l-0.037,0.021
				c-0.448,0.259-0.898,0.315-1.007,0.128l-12.961-22.447c-0.107-0.188,0.167-0.551,0.615-0.809l0.037-0.021
				C352.68,295.451,353.131,295.393,353.238,295.581z"/>
			<path fill="#2C2B27" d="M303.131,295.581l-12.96,22.448c-0.108,0.188,0.167,0.55,0.614,0.808l0.037,0.021
				c0.447,0.259,0.898,0.315,1.007,0.128l12.96-22.447c0.108-0.188-0.166-0.551-0.614-0.809l-0.037-0.021
				C303.69,295.451,303.239,295.393,303.131,295.581z"/>
		</g>
	</g>
	<polygon fill="#7EC31E" points="311.256,292.111 320.76,266.984 335.592,266.984 345.096,292.111 	"/>
</g>
</svg>
