<?xml version="1.0" encoding="UTF-8"?>
<!DOCTYPE svg PUBLIC "-//W3C//DTD SVG 1.1//EN" "http://www.w3.org/Graphics/SVG/1.1/DTD/svg11.dtd">
<!-- Creator: CorelDRAW X8 -->
<svg xmlns="http://www.w3.org/2000/svg" xml:space="preserve" width="7in" height="6.96322in" version="1.1" style="shape-rendering:geometricPrecision; text-rendering:geometricPrecision; image-rendering:optimizeQuality; fill-rule:evenodd; clip-rule:evenodd"
viewBox="0 0 7000 6963"
 xmlns:xlink="http://www.w3.org/1999/xlink">
 <defs>
  <style type="text/css">
   <![CDATA[
    .fil2 {fill:#FEFEFE}
    .fil1 {fill:#2C2B27}
    .fil4 {fill:#7EC31E}
    .fil3 {fill:#7EC31E}
    .fil0 {fill:#E6E6E6}
    .fil5 {fill:#FEFEFE}
   ]]>
  </style>
 </defs>
 <g id="Layer_x0020_1">
  <metadata id="CorelCorpID_0Corel-Layer"/>
  <g id="_2032944766544">
   <g>
    <rect class="fil0" x="3311" width="378" height="378"/>
    <rect class="fil0" x="2838" y="470" width="378" height="378"/>
    <rect class="fil0" x="3311" y="470" width="378" height="378"/>
    <rect class="fil0" x="3784" y="470" width="378" height="378"/>
    <rect class="fil0" x="2365" y="941" width="378" height="378"/>
    <rect class="fil0" x="2838" y="941" width="378" height="378"/>
    <rect class="fil0" x="3311" y="941" width="378" height="378"/>
    <rect class="fil0" x="3784" y="941" width="378" height="378"/>
    <rect class="fil0" x="4257" y="941" width="378" height="378"/>
    <rect class="fil0" x="1892" y="1411" width="378" height="378"/>
    <rect class="fil0" x="2365" y="1411" width="378" height="378"/>
    <rect class="fil0" x="2838" y="1411" width="378" height="378"/>
    <rect class="fil0" x="3311" y="1411" width="378" height="378"/>
    <rect class="fil0" x="3784" y="1411" width="378" height="378"/>
    <rect class="fil0" x="4257" y="1411" width="378" height="378"/>
    <rect class="fil0" x="4730" y="1411" width="378" height="378"/>
    <rect class="fil0" x="1419" y="1881" width="378" height="378"/>
    <rect class="fil0" x="1892" y="1881" width="378" height="378"/>
    <rect class="fil0" x="2365" y="1881" width="378" height="378"/>
    <rect class="fil0" x="2838" y="1881" width="378" height="378"/>
    <rect class="fil0" x="3311" y="1881" width="378" height="378"/>
    <rect class="fil0" x="3784" y="1881" width="378" height="378"/>
    <rect class="fil0" x="4257" y="1881" width="378" height="378"/>
    <rect class="fil0" x="4730" y="1881" width="378" height="378"/>
    <rect class="fil0" x="5203" y="1881" width="378" height="378"/>
    <rect class="fil0" x="946" y="2352" width="378" height="378"/>
    <rect class="fil0" x="1419" y="2352" width="378" height="378"/>
    <rect class="fil0" x="1892" y="2352" width="378" height="378"/>
    <rect class="fil0" x="2365" y="2352" width="378" height="378"/>
    <rect class="fil0" x="2838" y="2352" width="378" height="378"/>
    <rect class="fil0" x="3311" y="2352" width="378" height="378"/>
    <rect class="fil0" x="3784" y="2352" width="378" height="378"/>
    <rect class="fil0" x="4257" y="2352" width="378" height="378"/>
    <rect class="fil0" x="4730" y="2352" width="378" height="378"/>
    <rect class="fil0" x="5203" y="2352" width="378" height="378"/>
    <rect class="fil0" x="5676" y="2352" width="378" height="378"/>
    <rect class="fil0" x="473" y="2822" width="378" height="378"/>
    <rect class="fil0" x="946" y="2822" width="378" height="378"/>
    <rect class="fil0" x="1419" y="2822" width="378" height="378"/>
    <rect class="fil0" x="1892" y="2822" width="378" height="378"/>
    <rect class="fil0" x="2365" y="2822" width="378" height="378"/>
    <rect class="fil0" x="2838" y="2822" width="378" height="378"/>
    <rect class="fil0" x="3311" y="2822" width="378" height="378"/>
    <rect class="fil0" x="3784" y="2822" width="378" height="378"/>
    <rect class="fil0" x="4257" y="2822" width="378" height="378"/>
    <rect class="fil0" x="4730" y="2822" width="378" height="378"/>
    <rect class="fil0" x="5203" y="2822" width="378" height="378"/>
    <rect class="fil0" x="5676" y="2822" width="378" height="378"/>
    <rect class="fil0" x="6149" y="2822" width="378" height="378"/>
    <rect class="fil0" y="3292" width="378" height="378"/>
    <rect class="fil0" x="473" y="3292" width="378" height="378"/>
    <rect class="fil0" x="946" y="3292" width="378" height="378"/>
    <rect class="fil0" x="1419" y="3292" width="378" height="378"/>
    <rect class="fil0" x="1892" y="3292" width="378" height="378"/>
    <rect class="fil0" x="2365" y="3292" width="378" height="378"/>
    <rect class="fil0" x="2838" y="3292" width="378" height="378"/>
    <rect class="fil0" x="3311" y="3292" width="378" height="378"/>
    <rect class="fil0" x="3784" y="3292" width="378" height="378"/>
    <rect class="fil0" x="4257" y="3292" width="378" height="378"/>
    <rect class="fil0" x="4730" y="3292" width="378" height="378"/>
    <rect class="fil0" x="5203" y="3292" width="378" height="378"/>
    <rect class="fil0" x="5676" y="3292" width="378" height="378"/>
    <rect class="fil0" x="6149" y="3292" width="378" height="378"/>
    <rect class="fil0" x="6622" y="3292" width="378" height="378"/>
    <rect class="fil0" x="473" y="3763" width="378" height="378"/>
    <rect class="fil0" x="946" y="3763" width="378" height="378"/>
    <rect class="fil0" x="1419" y="3763" width="378" height="378"/>
    <rect class="fil0" x="1892" y="3763" width="378" height="378"/>
    <rect class="fil0" x="2365" y="3763" width="378" height="378"/>
    <rect class="fil0" x="2838" y="3763" width="378" height="378"/>
    <rect class="fil0" x="3311" y="3763" width="378" height="378"/>
    <rect class="fil0" x="3784" y="3763" width="378" height="378"/>
    <rect class="fil0" x="4257" y="3763" width="378" height="378"/>
    <rect class="fil0" x="4730" y="3763" width="378" height="378"/>
    <rect class="fil0" x="5203" y="3763" width="378" height="378"/>
    <rect class="fil0" x="5676" y="3763" width="378" height="378"/>
    <rect class="fil0" x="6149" y="3763" width="378" height="378"/>
    <rect class="fil0" x="946" y="4233" width="378" height="378"/>
    <rect class="fil0" x="1419" y="4233" width="378" height="378"/>
    <rect class="fil0" x="1892" y="4233" width="378" height="378"/>
    <rect class="fil0" x="2365" y="4233" width="378" height="378"/>
    <rect class="fil0" x="2838" y="4233" width="378" height="378"/>
    <rect class="fil0" x="3311" y="4233" width="378" height="378"/>
    <rect class="fil0" x="3784" y="4233" width="378" height="378"/>
    <rect class="fil0" x="4257" y="4233" width="378" height="378"/>
    <rect class="fil0" x="4730" y="4233" width="378" height="378"/>
    <rect class="fil0" x="5203" y="4233" width="378" height="378"/>
    <rect class="fil0" x="5676" y="4233" width="378" height="378"/>
    <rect class="fil0" x="1419" y="4703" width="378" height="378"/>
    <rect class="fil0" x="1892" y="4703" width="378" height="378"/>
    <rect class="fil0" x="2365" y="4703" width="378" height="378"/>
    <rect class="fil0" x="2838" y="4703" width="378" height="378"/>
    <rect class="fil0" x="3311" y="4703" width="378" height="378"/>
    <rect class="fil0" x="3784" y="4703" width="378" height="378"/>
    <rect class="fil0" x="4257" y="4703" width="378" height="378"/>
    <rect class="fil0" x="4730" y="4703" width="378" height="378"/>
    <rect class="fil0" x="5203" y="4703" width="378" height="378"/>
    <rect class="fil0" x="1892" y="5174" width="378" height="378"/>
    <rect class="fil0" x="2365" y="5174" width="378" height="378"/>
    <rect class="fil0" x="2838" y="5174" width="378" height="378"/>
    <rect class="fil0" x="3311" y="5174" width="378" height="378"/>
    <rect class="fil0" x="3784" y="5174" width="378" height="378"/>
    <rect class="fil0" x="4257" y="5174" width="378" height="378"/>
    <rect class="fil0" x="4730" y="5174" width="378" height="378"/>
    <rect class="fil0" x="2365" y="5644" width="378" height="378"/>
    <rect class="fil0" x="2838" y="5644" width="378" height="378"/>
    <rect class="fil0" x="3311" y="5644" width="378" height="378"/>
    <rect class="fil0" x="3784" y="5644" width="378" height="378"/>
    <rect class="fil0" x="4257" y="5644" width="378" height="378"/>
    <rect class="fil0" x="2838" y="6114" width="378" height="378"/>
    <rect class="fil0" x="3311" y="6114" width="378" height="378"/>
    <rect class="fil0" x="3784" y="6114" width="378" height="378"/>
    <rect class="fil0" x="3311" y="6585" width="378" height="378"/>
   </g>
   <g>
    <g>
     <g>
      <rect class="fil1" transform="matrix(0.209338 -0.209338 0.209338 0.209338 523.98 2514.85)" width="3758" height="3758"/>
      <rect class="fil2" transform="matrix(0.209338 -0.209338 0.209338 0.209338 523.98 2404.21)" width="3758" height="3758"/>
     </g>
     <g>
      <rect class="fil3" transform="matrix(0.209338 -0.209338 0.209338 0.209338 523.98 2346.17)" width="3758" height="3758"/>
      <rect class="fil2" transform="matrix(0.209338 -0.209338 0.209338 0.209338 523.98 2235.54)" width="3758" height="3758"/>
     </g>
     <g>
      <rect class="fil1" transform="matrix(0.209338 -0.209338 0.209338 0.209338 523.98 2177.01)" width="3758" height="3758"/>
      <rect class="fil3" transform="matrix(0.209338 -0.209338 0.0415438 0.0415438 523.98 2177.01)" width="3758" height="3758"/>
      <g>
       <rect class="fil2" transform="matrix(1.03121 -1.03121 0.0687886 0.0687886 1033.2 2595.53)" width="675" height="317"/>
       <rect class="fil2" transform="matrix(1.03121 -1.03121 0.0687886 0.0687886 1083.07 2645.4)" width="675" height="317"/>
       <rect class="fil2" transform="matrix(1.03121 -1.03121 0.0687886 0.0687886 1132.94 2695.27)" width="675" height="317"/>
       <rect class="fil2" transform="matrix(1.03121 -1.03121 0.0687886 0.0687886 1182.81 2745.14)" width="675" height="317"/>
      </g>
      <g>
       <rect class="fil2" transform="matrix(0.167987 -0.167987 0.048401 0.048401 1179.72 1591.9)" width="675" height="317"/>
       <rect class="fil2" transform="matrix(0.167987 -0.167987 0.048401 0.048401 1214.81 1626.99)" width="675" height="317"/>
       <rect class="fil2" transform="matrix(0.167987 -0.167987 0.048401 0.048401 1249.9 1662.08)" width="675" height="317"/>
      </g>
     </g>
    </g>
    <g>
     <rect class="fil2" transform="matrix(0.909544 -0.909544 0.909544 0.909544 1274.1 1856.77)" width="221" height="221"/>
     <rect class="fil2" transform="matrix(0.909544 -0.909544 0.909544 0.909544 1031.51 2099.24)" width="221" height="221"/>
     <rect class="fil2" transform="matrix(0.909544 -0.909544 0.909544 0.909544 789.489 2341.5)" width="221" height="221"/>
    </g>
   </g>
   <g>
    <g>
     <rect class="fil1" transform="matrix(0.209338 -0.209338 0.209338 0.209338 523.98 4786.21)" width="3758" height="3758"/>
     <rect class="fil2" transform="matrix(0.209338 -0.209338 0.209338 0.209338 523.98 4675.58)" width="3758" height="3758"/>
    </g>
    <g>
     <rect class="fil1" transform="matrix(0.209338 -0.209338 0.209338 0.209338 523.98 4617.54)" width="3758" height="3758"/>
     <rect class="fil2" transform="matrix(0.209338 -0.209338 0.209338 0.209338 523.98 4506.9)" width="3758" height="3758"/>
    </g>
    <g>
     <rect class="fil3" transform="matrix(0.209338 -0.209338 0.209338 0.209338 523.98 4448.38)" width="3758" height="3758"/>
     <rect class="fil3" transform="matrix(0.209338 -0.209338 0.0415438 0.0415438 523.98 4448.38)" width="3758" height="3758"/>
     <g>
      <g>
       <rect class="fil1" transform="matrix(0.571158 -0.571157 0.0687886 0.0687886 853.38 4668.29)" width="675" height="317"/>
       <rect class="fil1" transform="matrix(0.571158 -0.571157 0.0687886 0.0687886 903.252 4718.16)" width="675" height="317"/>
       <rect class="fil1" transform="matrix(0.571158 -0.571157 0.0687886 0.0687886 953.124 4768.04)" width="675" height="317"/>
      </g>
      <rect class="fil1" transform="matrix(0.571158 -0.571157 0.0687886 0.0687886 1003 4817.91)" width="675" height="317"/>
     </g>
     <g>
      <rect class="fil2" transform="matrix(1.03121 -1.03121 0.0687886 0.0687886 1096.75 4930.45)" width="675" height="317"/>
      <rect class="fil2" transform="matrix(1.03121 -1.03121 0.0687886 0.0687886 1146.62 4980.32)" width="675" height="317"/>
      <rect class="fil2" transform="matrix(1.03121 -1.03121 0.0687886 0.0687886 1196.49 5030.19)" width="675" height="317"/>
      <rect class="fil2" transform="matrix(1.03121 -1.03121 0.0687886 0.0687886 1246.37 5080.06)" width="675" height="317"/>
     </g>
     <g>
      <rect class="fil2" transform="matrix(0.167987 -0.167987 0.048401 0.048401 1179.72 3863.27)" width="675" height="317"/>
      <rect class="fil2" transform="matrix(0.167987 -0.167987 0.048401 0.048401 1214.81 3898.36)" width="675" height="317"/>
      <rect class="fil2" transform="matrix(0.167987 -0.167987 0.048401 0.048401 1249.9 3933.45)" width="675" height="317"/>
     </g>
    </g>
   </g>
   <g>
    <g>
     <rect class="fil1" transform="matrix(0.209294 -0.209295 0.209294 0.209295 2706.72 3650.49)" width="3758" height="3758"/>
     <rect class="fil2" transform="matrix(0.209294 -0.209295 0.209294 0.209295 2706.72 3539.88)" width="3758" height="3758"/>
    </g>
    <g>
     <rect class="fil3" transform="matrix(0.209294 -0.209295 0.209294 0.209295 2706.72 3481.86)" width="3758" height="3758"/>
     <rect class="fil2" transform="matrix(0.209294 -0.209295 0.209294 0.209295 2706.72 3371.24)" width="3758" height="3758"/>
    </g>
    <rect class="fil1" transform="matrix(0.209294 -0.209295 0.209294 0.209295 2706.72 3312.73)" width="3758" height="3758"/>
    <path class="fil4" d="M3772 3012c13,-81 -29,-134 -39,-135 -19,-3 -14,37 -54,73 -19,18 -49,40 -73,48 -73,24 -102,-44 -171,-69 -52,-18 -111,-19 -174,12 -45,22 -80,59 -88,108 -8,49 22,204 7,233 -17,30 -36,45 -69,54 -71,21 -113,-10 -122,3 -13,17 57,85 80,104 26,21 91,48 123,51 53,5 109,-8 160,-22 25,-7 50,-22 76,-25 25,-1 57,4 74,22 20,23 24,52 16,83 -6,25 -43,72 -68,105 -10,16 -19,50 -10,67 14,26 31,38 63,62 17,13 12,46 2,66 -9,19 -24,35 -38,49l2 6c44,-32 100,-76 109,-100 9,-27 1,-54 -16,-63 -18,-11 -46,-21 -33,-38 38,-54 194,-172 194,-238 0,-18 -13,-43 -22,-74 -11,-38 -25,-68 3,-96 13,-13 53,-43 55,-84 2,-19 -19,-37 -29,-54 -15,-22 -9,-55 7,-75 21,-28 30,-46 35,-73zm-452 96c-9,18 -32,25 -53,20 -19,-5 -35,-20 -47,-35 -4,-5 -8,-10 -10,-15 -1,-7 2,-13 7,-16 3,-1 5,-1 9,-1 12,0 24,2 36,5 10,2 19,9 30,8 19,-2 31,-11 31,-11 2,16 5,33 -3,45zm15 -52c0,0 11,-9 17,-27 4,-9 0,-21 0,-30 0,-12 0,-25 3,-36 0,-3 1,-7 2,-8 4,-5 12,-5 17,-2 5,2 9,7 13,12 12,17 22,35 22,56 0,20 -12,41 -31,46 -14,0 -28,-6 -43,-11zm92 166c-12,8 -37,-12 -57,-44 -19,-31 -26,-63 -13,-71 12,-8 38,12 57,44 19,31 26,63 13,71z"/>
   </g>
   <g>
    <g>
     <g>
      <rect class="fil1" transform="matrix(0.209338 -0.209338 0.209338 0.209338 4902.49 4786.21)" width="3758" height="3758"/>
      <rect class="fil2" transform="matrix(0.209338 -0.209338 0.209338 0.209338 4902.49 4675.58)" width="3758" height="3758"/>
     </g>
     <g>
      <rect class="fil3" transform="matrix(0.209338 -0.209338 0.209338 0.209338 4902.49 4617.54)" width="3758" height="3758"/>
      <rect class="fil2" transform="matrix(0.209338 -0.209338 0.209338 0.209338 4902.49 4506.9)" width="3758" height="3758"/>
     </g>
     <g>
      <rect class="fil1" transform="matrix(0.209338 -0.209338 0.209338 0.209338 4902.49 4448.38)" width="3758" height="3758"/>
      <rect class="fil3" transform="matrix(0.209338 -0.209338 0.0415438 0.0415438 4902.49 4448.38)" width="3758" height="3758"/>
      <g>
       <rect class="fil2" transform="matrix(1.03121 -1.03121 0.0687886 0.0687886 5206.35 4648.96)" width="675" height="317"/>
       <rect class="fil2" transform="matrix(1.03121 -1.03121 0.0687886 0.0687886 5256.22 4698.83)" width="675" height="317"/>
       <rect class="fil2" transform="matrix(1.03121 -1.03121 0.0687886 0.0687886 5306.09 4748.71)" width="675" height="317"/>
       <rect class="fil2" transform="matrix(1.03121 -1.03121 0.0687886 0.0687886 5355.96 4798.58)" width="675" height="317"/>
      </g>
      <g>
       <rect class="fil2" transform="matrix(0.167987 -0.167987 0.048401 0.048401 5558.23 3863.27)" width="675" height="317"/>
       <rect class="fil2" transform="matrix(0.167987 -0.167987 0.048401 0.048401 5593.32 3898.36)" width="675" height="317"/>
       <rect class="fil2" transform="matrix(0.167987 -0.167987 0.048401 0.048401 5628.41 3933.45)" width="675" height="317"/>
      </g>
     </g>
    </g>
    <g>
     <rect class="fil2" transform="matrix(1.03121 -1.03121 0.0687886 0.0687886 5401.32 4848.13)" width="675" height="317"/>
     <rect class="fil2" transform="matrix(1.03121 -1.03121 0.0687886 0.0687886 5451.19 4898)" width="675" height="317"/>
     <rect class="fil2" transform="matrix(1.03121 -1.03121 0.0687886 0.0687886 5501.07 4947.87)" width="675" height="317"/>
     <rect class="fil2" transform="matrix(1.03121 -1.03121 0.0687886 0.0687886 5550.94 4997.74)" width="675" height="317"/>
    </g>
   </g>
   <g>
    <g>
     <rect class="fil1" transform="matrix(0.209338 -0.209338 0.209338 0.209338 2706.55 1379.16)" width="3758" height="3758"/>
     <rect class="fil2" transform="matrix(0.209338 -0.209338 0.209338 0.209338 2706.55 1268.52)" width="3758" height="3758"/>
    </g>
    <g>
     <rect class="fil1" transform="matrix(0.209338 -0.209338 0.209338 0.209338 2706.55 1210.48)" width="3758" height="3758"/>
     <rect class="fil2" transform="matrix(0.209338 -0.209338 0.209338 0.209338 2706.55 1099.85)" width="3758" height="3758"/>
    </g>
    <polygon class="fil3" points="2707,1041 3493,255 4280,1041 3493,1828 "/>
    <g>
     <rect class="fil3" transform="matrix(1.03121 -1.03121 0.0687886 0.0687886 3279.32 1523.39)" width="675" height="317"/>
     <rect class="fil3" transform="matrix(1.03121 -1.03121 0.0687886 0.0687886 3329.2 1573.27)" width="675" height="317"/>
     <rect class="fil3" transform="matrix(1.03121 -1.03121 0.0687886 0.0687886 3379.07 1623.14)" width="675" height="317"/>
     <rect class="fil3" transform="matrix(1.03121 -1.03121 0.0687886 0.0687886 3428.94 1673.01)" width="675" height="317"/>
    </g>
    <g>
     <polygon class="fil5" points="2827,1041 3493,1707 4159,1041 3493,375 "/>
    </g>
    <g>
     <rect class="fil1" transform="matrix(0.167987 -0.167987 0.048401 0.048401 3380.19 546.944)" width="675" height="317"/>
     <rect class="fil1" transform="matrix(0.167987 -0.167987 0.048401 0.048401 3415.29 582.035)" width="675" height="317"/>
     <rect class="fil1" transform="matrix(0.167987 -0.167987 0.048401 0.048401 3450.38 617.126)" width="675" height="317"/>
    </g>
    <g>
     <g>
      <g>
       <rect class="fil1" transform="matrix(0.571158 -0.571157 0.0687886 0.0687886 3113.49 1215.3)" width="675" height="317"/>
       <rect class="fil1" transform="matrix(0.571158 -0.571157 0.0687886 0.0687886 3163.36 1265.17)" width="675" height="317"/>
       <rect class="fil1" transform="matrix(0.571158 -0.571157 0.0687886 0.0687886 3213.23 1315.05)" width="675" height="317"/>
      </g>
      <rect class="fil1" transform="matrix(0.571158 -0.571157 0.0687886 0.0687886 3263.11 1364.92)" width="675" height="317"/>
     </g>
     <g>
      <g>
       <rect class="fil1" transform="matrix(0.571158 -0.571157 0.0687886 0.0687886 2964.2 1064.71)" width="675" height="317"/>
       <rect class="fil1" transform="matrix(0.571158 -0.571157 0.0687886 0.0687886 3014.07 1114.58)" width="675" height="317"/>
       <rect class="fil1" transform="matrix(0.571158 -0.571157 0.0687886 0.0687886 3063.94 1164.45)" width="675" height="317"/>
      </g>
      <rect class="fil1" transform="matrix(0.571158 -0.571157 0.0687886 0.0687886 3113.82 1214.32)" width="675" height="317"/>
     </g>
    </g>
   </g>
   <g>
    <g>
     <g>
      <rect class="fil1" transform="matrix(0.209338 -0.209338 0.209338 0.209338 4902.49 2514.85)" width="3758" height="3758"/>
      <rect class="fil2" transform="matrix(0.209338 -0.209338 0.209338 0.209338 4902.49 2404.21)" width="3758" height="3758"/>
     </g>
     <g>
      <rect class="fil3" transform="matrix(0.209338 -0.209338 0.209338 0.209338 4902.49 2346.17)" width="3758" height="3758"/>
      <rect class="fil2" transform="matrix(0.209338 -0.209338 0.209338 0.209338 4902.49 2235.54)" width="3758" height="3758"/>
     </g>
     <g>
      <rect class="fil3" transform="matrix(0.209338 -0.209338 0.209338 0.209338 4902.49 2177.01)" width="3758" height="3758"/>
      <rect class="fil3" transform="matrix(0.209338 -0.209338 0.0415438 0.0415438 4902.49 2177.01)" width="3758" height="3758"/>
      <g>
       <g>
        <rect class="fil2" transform="matrix(0.571158 -0.571157 0.0687886 0.0687886 5198.18 2377.5)" width="675" height="317"/>
        <rect class="fil2" transform="matrix(0.571158 -0.571157 0.0687886 0.0687886 5248.05 2427.37)" width="675" height="317"/>
        <rect class="fil2" transform="matrix(0.571158 -0.571157 0.0687886 0.0687886 5297.92 2477.24)" width="675" height="317"/>
       </g>
       <rect class="fil2" transform="matrix(0.571158 -0.571157 0.0687886 0.0687886 5347.8 2527.12)" width="675" height="317"/>
      </g>
      <g>
       <rect class="fil2" transform="matrix(1.03121 -1.03121 0.0687886 0.0687886 5475.26 2659.08)" width="675" height="317"/>
       <rect class="fil2" transform="matrix(1.03121 -1.03121 0.0687886 0.0687886 5525.13 2708.95)" width="675" height="317"/>
       <rect class="fil2" transform="matrix(1.03121 -1.03121 0.0687886 0.0687886 5575.01 2758.83)" width="675" height="317"/>
       <rect class="fil2" transform="matrix(1.03121 -1.03121 0.0687886 0.0687886 5624.88 2808.7)" width="675" height="317"/>
      </g>
      <g>
       <rect class="fil1" transform="matrix(0.167987 -0.167987 0.048401 0.048401 5558.23 1591.9)" width="675" height="317"/>
       <rect class="fil1" transform="matrix(0.167987 -0.167987 0.048401 0.048401 5593.32 1626.99)" width="675" height="317"/>
       <rect class="fil1" transform="matrix(0.167987 -0.167987 0.048401 0.048401 5628.41 1662.08)" width="675" height="317"/>
      </g>
     </g>
    </g>
    <rect class="fil1" transform="matrix(0.909544 -0.909544 0.909544 0.909544 5669.4 1908.95)" width="221" height="221"/>
   </g>
   <g>
    <g>
     <g>
      <rect class="fil3" transform="matrix(0.209338 -0.209338 0.209338 0.209338 2706.55 5921.9)" width="3758" height="3758"/>
      <rect class="fil2" transform="matrix(0.209338 -0.209338 0.209338 0.209338 2706.55 5811.26)" width="3758" height="3758"/>
     </g>
     <g>
      <rect class="fil1" transform="matrix(0.209338 -0.209338 0.209338 0.209338 2706.55 5753.23)" width="3758" height="3758"/>
      <rect class="fil2" transform="matrix(0.209338 -0.209338 0.209338 0.209338 2706.55 5642.59)" width="3758" height="3758"/>
     </g>
     <g>
      <rect class="fil1" transform="matrix(0.209338 -0.209338 0.209338 0.209338 2706.55 5584.06)" width="3758" height="3758"/>
      <g>
       <polygon class="fil5" points="2827,5584 3493,6250 4159,5584 3493,4918 "/>
      </g>
      <g>
       <g>
        <rect class="fil1" transform="matrix(0.48436 -0.48436 0.0583349 0.0583349 3067.47 5758.49)" width="675" height="317"/>
        <rect class="fil1" transform="matrix(0.48436 -0.48436 0.0583349 0.0583349 3109.76 5800.78)" width="675" height="317"/>
        <rect class="fil1" transform="matrix(0.48436 -0.48436 0.0583349 0.0583349 3152.06 5843.07)" width="675" height="317"/>
       </g>
       <rect class="fil1" transform="matrix(0.48436 -0.48436 0.0583349 0.0583349 3194.35 5885.37)" width="675" height="317"/>
      </g>
      <g>
       <rect class="fil3" transform="matrix(0.895697 -0.895697 0.0597491 0.0597491 3346.38 6041.72)" width="675" height="317"/>
       <rect class="fil3" transform="matrix(0.895697 -0.895697 0.0597491 0.0597491 3389.7 6085.04)" width="675" height="317"/>
       <rect class="fil3" transform="matrix(0.895697 -0.895697 0.0597491 0.0597491 3433.01 6128.36)" width="675" height="317"/>
       <rect class="fil3" transform="matrix(0.895697 -0.895697 0.0597491 0.0597491 3476.33 6171.67)" width="675" height="317"/>
      </g>
      <g>
       <rect class="fil3" transform="matrix(0.167987 -0.167987 0.048401 0.048401 3379.55 5079.75)" width="675" height="317"/>
       <rect class="fil3" transform="matrix(0.167987 -0.167987 0.048401 0.048401 3414.64 5114.85)" width="675" height="317"/>
       <rect class="fil3" transform="matrix(0.167987 -0.167987 0.048401 0.048401 3449.73 5149.94)" width="675" height="317"/>
      </g>
     </g>
    </g>
    <rect class="fil3" transform="matrix(0.909544 -0.909544 0.909544 0.909544 3429.52 5349.23)" width="221" height="221"/>
   </g>
  </g>
 </g>
</svg>
