<?xml version="1.0" encoding="utf-8"?>
<!-- Generator: Adobe Illustrator 16.0.0, SVG Export Plug-In . SVG Version: 6.00 Build 0)  -->
<!DOCTYPE svg PUBLIC "-//W3C//DTD SVG 1.1//EN" "http://www.w3.org/Graphics/SVG/1.1/DTD/svg11.dtd">
<svg version="1.1" id="Layer_1" xmlns="http://www.w3.org/2000/svg" xmlns:xlink="http://www.w3.org/1999/xlink" x="0px" y="0px"
	 width="500.457px" height="449.882px" viewBox="0 0 500.457 449.882" enable-background="new 0 0 500.457 449.882"
	 xml:space="preserve">
<g id="Layer_x0020_1">
	<defs>
		<filter id="Adobe_OpacityMaskFilter" filterUnits="userSpaceOnUse" x="72.578" y="420.429" width="371.745" height="29.453">
			<feColorMatrix  type="matrix" values="1 0 0 0 0  0 1 0 0 0  0 0 1 0 0  0 0 0 1 0"/>
		</filter>
	</defs>
	<mask maskUnits="userSpaceOnUse" x="72.578" y="420.429" width="371.745" height="29.453" id="id0">
		
			<linearGradient id="SVGID_1_" gradientUnits="userSpaceOnUse" x1="4937.2988" y1="-6242.6143" x2="4937.2988" y2="-6535.8936" gradientTransform="matrix(0.0715 0 0 -0.0715 -94.55 -25.8383)">
			<stop  offset="0" style="stop-color:#FFFFFF"/>
			<stop  offset="1" style="stop-color:#FFFFFF;stop-opacity:0"/>
		</linearGradient>
		<rect x="72.292" y="420.214" fill="url(#SVGID_1_)" filter="url(#Adobe_OpacityMaskFilter)" width="372.245" height="29.953"/>
	</mask>
	<polygon mask="url(#id0)" fill="#CCCCCC" points="239.577,420.429 258.449,420.429 274.392,420.429 444.322,449.882 
		258.449,449.882 72.578,449.882 	"/>
	<g id="_2032991269504">
		<rect x="238.075" fill="#E6E6E6" width="25.808" height="25.808"/>
		<rect x="205.762" y="32.099" fill="#E6E6E6" width="25.808" height="25.808"/>
		<rect x="238.075" y="32.099" fill="#E6E6E6" width="25.808" height="25.808"/>
		<rect x="270.316" y="32.099" fill="#E6E6E6" width="25.809" height="25.808"/>
		<rect x="173.521" y="64.197" fill="#E6E6E6" width="25.808" height="25.808"/>
		<rect x="205.762" y="64.197" fill="#E6E6E6" width="25.808" height="25.808"/>
		<rect x="238.075" y="64.197" fill="#E6E6E6" width="25.808" height="25.808"/>
		<rect x="270.316" y="64.197" fill="#E6E6E6" width="25.809" height="25.808"/>
		<rect x="302.63" y="64.197" fill="#E6E6E6" width="25.808" height="25.808"/>
		<rect x="141.208" y="96.296" fill="#E6E6E6" width="25.808" height="25.808"/>
		<rect x="173.521" y="96.296" fill="#E6E6E6" width="25.808" height="25.808"/>
		<rect x="205.762" y="96.296" fill="#E6E6E6" width="25.808" height="25.808"/>
		<rect x="238.075" y="96.296" fill="#E6E6E6" width="25.808" height="25.808"/>
		<rect x="270.316" y="96.296" fill="#E6E6E6" width="25.809" height="25.808"/>
		<rect x="302.63" y="96.296" fill="#E6E6E6" width="25.808" height="25.808"/>
		<rect x="334.871" y="96.296" fill="#E6E6E6" width="25.809" height="25.808"/>
		<rect x="108.966" y="128.395" fill="#E6E6E6" width="25.808" height="25.808"/>
		<rect x="141.208" y="128.395" fill="#E6E6E6" width="25.808" height="25.808"/>
		<rect x="173.521" y="128.395" fill="#E6E6E6" width="25.808" height="25.808"/>
		<rect x="205.762" y="128.395" fill="#E6E6E6" width="25.808" height="25.808"/>
		<rect x="238.075" y="128.395" fill="#E6E6E6" width="25.808" height="25.808"/>
		<rect x="270.316" y="128.395" fill="#E6E6E6" width="25.809" height="25.808"/>
		<rect x="302.63" y="128.395" fill="#E6E6E6" width="25.808" height="25.808"/>
		<rect x="334.871" y="128.395" fill="#E6E6E6" width="25.809" height="25.808"/>
		<rect x="367.186" y="128.395" fill="#E6E6E6" width="25.807" height="25.808"/>
		<rect x="108.966" y="160.493" fill="#E6E6E6" width="25.808" height="25.808"/>
		<rect x="141.208" y="160.493" fill="#E6E6E6" width="25.808" height="25.808"/>
		<rect x="173.521" y="160.493" fill="#E6E6E6" width="25.808" height="25.808"/>
		<rect x="205.762" y="160.493" fill="#E6E6E6" width="25.808" height="25.808"/>
		<rect x="238.075" y="160.493" fill="#E6E6E6" width="25.808" height="25.808"/>
		<rect x="270.316" y="160.493" fill="#E6E6E6" width="25.809" height="25.808"/>
		<rect x="302.63" y="160.493" fill="#E6E6E6" width="25.808" height="25.808"/>
		<rect x="334.871" y="160.493" fill="#E6E6E6" width="25.809" height="25.808"/>
		<rect x="367.186" y="160.493" fill="#E6E6E6" width="25.807" height="25.808"/>
		<rect x="399.427" y="160.493" fill="#E6E6E6" width="25.808" height="25.808"/>
		<rect x="44.411" y="192.592" fill="#E6E6E6" width="25.808" height="25.808"/>
		<rect x="76.652" y="192.592" fill="#E6E6E6" width="25.808" height="25.808"/>
		<rect x="108.966" y="192.592" fill="#E6E6E6" width="25.808" height="25.808"/>
		<rect x="141.208" y="192.592" fill="#E6E6E6" width="25.808" height="25.808"/>
		<rect x="173.521" y="192.592" fill="#E6E6E6" width="25.808" height="25.808"/>
		<rect x="205.762" y="192.592" fill="#E6E6E6" width="25.808" height="25.808"/>
		<rect x="238.075" y="192.592" fill="#E6E6E6" width="25.808" height="25.808"/>
		<rect x="270.316" y="192.592" fill="#E6E6E6" width="25.809" height="25.808"/>
		<rect x="302.63" y="192.592" fill="#E6E6E6" width="25.808" height="25.808"/>
		<rect x="334.871" y="192.592" fill="#E6E6E6" width="25.809" height="25.808"/>
		<rect x="367.186" y="192.592" fill="#E6E6E6" width="25.807" height="25.808"/>
		<rect x="399.427" y="192.592" fill="#E6E6E6" width="25.808" height="25.808"/>
		<rect x="431.739" y="192.592" fill="#E6E6E6" width="25.808" height="25.808"/>
		<rect x="12.098" y="224.691" fill="#E6E6E6" width="25.808" height="25.808"/>
		<rect x="44.411" y="224.691" fill="#E6E6E6" width="25.808" height="25.808"/>
		<rect x="76.652" y="224.691" fill="#E6E6E6" width="25.808" height="25.808"/>
		<rect x="108.966" y="224.691" fill="#E6E6E6" width="25.808" height="25.808"/>
		<rect x="141.208" y="224.691" fill="#E6E6E6" width="25.808" height="25.808"/>
		<rect x="173.521" y="224.691" fill="#E6E6E6" width="25.808" height="25.808"/>
		<rect x="205.762" y="224.691" fill="#E6E6E6" width="25.808" height="25.808"/>
		<rect x="238.075" y="224.691" fill="#E6E6E6" width="25.808" height="25.808"/>
		<rect x="270.316" y="224.691" fill="#E6E6E6" width="25.809" height="25.808"/>
		<rect x="302.63" y="224.691" fill="#E6E6E6" width="25.808" height="25.808"/>
		<rect x="334.871" y="224.691" fill="#E6E6E6" width="25.809" height="25.808"/>
		<rect x="367.186" y="224.691" fill="#E6E6E6" width="25.807" height="25.808"/>
		<rect x="399.427" y="224.691" fill="#E6E6E6" width="25.808" height="25.808"/>
		<rect x="431.739" y="224.691" fill="#E6E6E6" width="25.808" height="25.808"/>
		<rect x="463.981" y="224.691" fill="#E6E6E6" width="25.808" height="25.808"/>
		<rect x="44.411" y="256.79" fill="#E6E6E6" width="25.808" height="25.808"/>
		<rect x="76.652" y="256.79" fill="#E6E6E6" width="25.808" height="25.808"/>
		<rect x="108.966" y="256.79" fill="#E6E6E6" width="25.808" height="25.808"/>
		<rect x="141.208" y="256.79" fill="#E6E6E6" width="25.808" height="25.808"/>
		<rect x="173.521" y="256.79" fill="#E6E6E6" width="25.808" height="25.808"/>
		<rect x="205.762" y="256.79" fill="#E6E6E6" width="25.808" height="25.808"/>
		<rect x="238.075" y="256.79" fill="#E6E6E6" width="25.808" height="25.808"/>
		<rect x="270.316" y="256.79" fill="#E6E6E6" width="25.809" height="25.808"/>
		<rect x="302.63" y="256.79" fill="#E6E6E6" width="25.808" height="25.808"/>
		<rect x="334.871" y="256.79" fill="#E6E6E6" width="25.809" height="25.808"/>
		<rect x="367.186" y="256.79" fill="#E6E6E6" width="25.807" height="25.808"/>
		<rect x="399.427" y="256.79" fill="#E6E6E6" width="25.808" height="25.808"/>
		<rect x="431.739" y="256.79" fill="#E6E6E6" width="25.808" height="25.808"/>
		<rect x="76.652" y="288.888" fill="#E6E6E6" width="25.808" height="25.807"/>
		<rect x="108.966" y="288.888" fill="#E6E6E6" width="25.808" height="25.807"/>
		<rect x="141.208" y="288.888" fill="#E6E6E6" width="25.808" height="25.807"/>
		<rect x="173.521" y="288.888" fill="#E6E6E6" width="25.808" height="25.807"/>
		<rect x="205.762" y="288.888" fill="#E6E6E6" width="25.808" height="25.807"/>
		<rect x="238.075" y="288.888" fill="#E6E6E6" width="25.808" height="25.807"/>
		<rect x="270.316" y="288.888" fill="#E6E6E6" width="25.809" height="25.807"/>
		<rect x="302.63" y="288.888" fill="#E6E6E6" width="25.808" height="25.807"/>
		<rect x="334.871" y="288.888" fill="#E6E6E6" width="25.809" height="25.807"/>
		<rect x="367.186" y="288.888" fill="#E6E6E6" width="25.807" height="25.807"/>
		<rect x="399.427" y="288.888" fill="#E6E6E6" width="25.808" height="25.807"/>
		<rect x="108.966" y="320.986" fill="#E6E6E6" width="25.808" height="25.809"/>
		<rect x="141.208" y="320.986" fill="#E6E6E6" width="25.808" height="25.809"/>
		<rect x="173.521" y="320.986" fill="#E6E6E6" width="25.808" height="25.809"/>
		<rect x="205.762" y="320.986" fill="#E6E6E6" width="25.808" height="25.809"/>
		<rect x="238.075" y="320.986" fill="#E6E6E6" width="25.808" height="25.809"/>
		<rect x="270.316" y="320.986" fill="#E6E6E6" width="25.809" height="25.809"/>
		<rect x="302.63" y="320.986" fill="#E6E6E6" width="25.808" height="25.809"/>
		<rect x="334.871" y="320.986" fill="#E6E6E6" width="25.809" height="25.809"/>
		<rect x="367.186" y="320.986" fill="#E6E6E6" width="25.807" height="25.809"/>
		<rect x="141.208" y="353.085" fill="#E6E6E6" width="25.808" height="25.807"/>
		<rect x="173.521" y="353.085" fill="#E6E6E6" width="25.808" height="25.807"/>
		<rect x="205.762" y="353.085" fill="#E6E6E6" width="25.808" height="25.807"/>
		<rect x="238.075" y="353.085" fill="#E6E6E6" width="25.808" height="25.807"/>
		<rect x="270.316" y="353.085" fill="#E6E6E6" width="25.809" height="25.807"/>
		<rect x="302.63" y="353.085" fill="#E6E6E6" width="25.808" height="25.807"/>
		<rect x="334.871" y="353.085" fill="#E6E6E6" width="25.809" height="25.807"/>
	</g>
	<g id="_2032981638096">
		<rect x="80.298" y="99.084" fill="#CCCCCC" width="350.798" height="230.482"/>
		<rect x="78.225" y="99.084" fill="#FFFFFF" width="346.151" height="224.191"/>
		<g>
			<rect x="78.225" y="99.084" fill="#7EC31E" width="346.151" height="29.168"/>
			<rect x="282.256" y="139.762" fill="#7EC31E" width="91.792" height="8.436"/>
			<rect x="383.056" y="139.762" fill="#7EC31E" width="24.021" height="8.436"/>
			<rect x="252.588" y="110.594" fill="#FEFEFE" width="24" height="6.15"/>
			<rect x="285.615" y="110.594" fill="#FEFEFE" width="24" height="6.15"/>
			<rect x="318.572" y="110.594" fill="#FEFEFE" width="24" height="6.15"/>
			<rect x="351.6" y="110.594" fill="#FEFEFE" width="24" height="6.15"/>
			<rect x="384.557" y="110.594" fill="#FEFEFE" width="24" height="6.15"/>
			<rect x="92.666" y="230.125" fill="#E6E6E6" width="91.792" height="53.974"/>
			<rect x="205.405" y="230.125" fill="#E6E6E6" width="91.792" height="53.974"/>
			<rect x="318.215" y="230.125" fill="#E6E6E6" width="91.792" height="53.974"/>
			<rect x="92.666" y="296.824" fill="#7EC31E" width="91.799" height="2.5"/>
			<rect x="92.666" y="301.041" fill="#7EC31E" width="91.799" height="2.5"/>
			<rect x="92.666" y="305.259" fill="#7EC31E" width="91.799" height="2.5"/>
			<rect x="318.215" y="296.824" fill="#7EC31E" width="91.799" height="2.5"/>
			<rect x="318.215" y="301.041" fill="#7EC31E" width="91.799" height="2.5"/>
			<rect x="318.215" y="305.259" fill="#7EC31E" width="91.799" height="2.5"/>
			<rect x="92.666" y="142.121" fill="#E6E6E6" width="167.213" height="68.272"/>
			<rect x="275.25" y="169.287" fill="none" stroke="#7EC31E" stroke-miterlimit="10" width="134.828" height="10.795"/>
			<rect x="275.25" y="184.442" fill="none" stroke="#7EC31E" stroke-miterlimit="10" width="134.828" height="10.795"/>
			<rect x="275.25" y="199.598" fill="#7EC31E" width="134.828" height="10.795"/>
		</g>
		<path fill="#4D4D4D" d="M78.225,96.082H427.45v230.195H75.223V96.082H78.225z M421.445,102.087H81.228v218.184h340.217V102.087z"
			/>
	</g>
	<polygon fill="#7EC31E" points="250.241,387.798 500.467,390.65 250.241,393.501 0.016,390.65 	"/>
	<g id="_2032810716064">
		<g>
			<path fill="#8BC63F" fill-opacity="0.502" d="M248.084,364.667c0-1.574,1.215-2.789,2.717-2.789c1.501,0,2.717,1.215,2.717,2.789
				c0,1.5-1.216,2.715-2.717,2.715C249.299,367.382,248.084,366.167,248.084,364.667z"/>
			<path fill="#8BC63F" fill-opacity="0.502" d="M265.956,367.597c0-1.143,0.93-2.002,2.002-2.002c1.144,0,2.001,0.93,2.001,2.002
				c0,1.145-0.929,2.002-2.001,2.002S265.956,368.669,265.956,367.597z"/>
			<path fill="#7EC31E" d="M287.975,279.666c1.215-8.078-3.002-13.368-3.86-13.512c-1.931-0.214-1.43,3.719-5.433,7.293
				c-1.931,1.858-4.861,4.003-7.293,4.789c-7.291,2.432-10.15-4.36-17.014-6.791c-5.147-1.787-11.081-1.93-17.301,1.144
				c-4.503,2.146-8.007,5.862-8.722,10.795c-0.786,4.861,2.145,20.231,0.644,23.163c-1.716,2.93-3.646,4.504-6.863,5.434
				c-7.006,2-11.224-1.072-12.153,0.213c-1.287,1.645,5.648,8.436,7.935,10.367c2.574,2.072,9.151,4.789,12.296,5.004
				c5.291,0.5,10.795-0.715,15.942-2.145c2.431-0.645,5.005-2.217,7.578-2.432c2.431-0.143,5.647,0.357,7.292,2.145
				c2.073,2.359,2.431,5.148,1.645,8.223c-0.644,2.572-4.361,7.148-6.792,10.508c-1.001,1.574-1.931,5.004-1.001,6.648
				c1.43,2.574,3.074,3.719,6.291,6.148c1.645,1.287,1.145,4.646,0.215,6.578c-0.857,1.93-2.431,3.43-3.86,4.861l0.286,0.643
				c4.36-3.217,9.865-7.578,10.795-10.008c0.857-2.717,0.143-5.363-1.573-6.291c-1.787-1.002-4.575-2.002-3.288-3.719
				c3.789-5.361,19.302-17.156,19.302-23.734c0-1.787-1.286-4.217-2.145-7.291c-1.144-3.861-2.573-6.791,0.214-9.58
				c1.287-1.287,5.291-4.218,5.576-8.364c0.072-1.931-1.93-3.718-3.002-5.362c-1.358-2.215-0.857-5.504,0.786-7.434
				C286.545,284.098,287.402,282.311,287.975,279.666z"/>
			<path fill="#8BC63F" fill-opacity="0.502" d="M230.354,343.72c0-1.93,1.573-3.289,3.36-3.289c1.93,0,3.36,1.502,3.36,3.289
				c0,1.93-1.572,3.359-3.36,3.359C231.784,347.08,230.354,345.507,230.354,343.72z"/>
			<path fill="#8BC63F" fill-opacity="0.502" d="M276.537,336.285c0-1.93,1.5-3.287,3.359-3.287s3.289,1.5,3.289,3.287
				c0,1.932-1.502,3.361-3.289,3.361C278.037,339.646,276.537,338.216,276.537,336.285z"/>
			<path fill="#8BC63F" fill-opacity="0.502" d="M291.264,332.425c1.93-1.859,4.504-2.932,6.147-4.934
				c1.716-2.072,2.717-5.004,1.431-7.434c-0.93-1.717-2.574-2.717-3.432-4.291c-1.216-2.287-0.144-5.004,1.501-6.934
				c1.644-1.859,4.003-3.074,5.934-4.575c3.574-2.86,6.505-7.577,4.861-11.938c-0.501-1.43-1.431-2.574-2.359-3.718
				c-1.787-2.288-3.574-4.718-5.505-7.077c-1.501-1.859-3.074-3.932-4.074-6.148c-1.002-2.145-3.504-4.719-2.859-7.006
				c-0.215,1.145,8.078,10.366,10.794,12.439c1.573,1.144,7.077,4.361,8.437,5.647c3.502,3.146,5.004,7.792,3.145,12.153
				c-1.858,4.004-6.862,7.936-9.65,11.152c-1.001,1.145-1.931,2.43-2.073,4.004c-0.215,3.789,2.716,4.359,4.646,7.506
				c1.788,3.002,1.287,7.578-0.786,9.65c-2.073,1.93-4.861,3.074-7.578,3.861c-2.645,0.785-9.865,4.074-13.583,8.078
				c-3.073,3.217-6.147,11.367-5.862,11.51C280.754,354.373,278.037,345.65,291.264,332.425z"/>
			<path fill="#8BC63F" fill-opacity="0.502" d="M248.941,349.654c2.073-4.646,1.573-10.15-1.287-14.227
				c-0.5-0.785-1.144-1.572-1.93-1.93c-0.858-0.5-1.859-0.5-2.931-0.645c-5.219-0.285-13.94,1.287-19.087,0.215
				c-6.005-1.143-10.866-5.074-12.725-6.863c-3.575-3.645-5.862-6.934-7.792-11.723c-0.644-1.502-0.357-4.434,0.644-5.863
				c0.357-0.5,0.929-0.93,1.43-1.143c2.288-1.43,5.862-2.074,8.722-3.218c6.362-2.431,5.719-8.222,4.718-10.938
				c-1.001-2.787-3.217-4.574-4.861-7.006c-1.644-2.43-3.36-5.79-3.217-8.721c0.286-3.36,2.716-6.291,5.647-7.936
				c-3.431,0.357-6.434,1.93-8.221,4.861c-1.645,2.931-1.287,7.792,1.43,13.225c1.43,2.646-0.286,6.792-4.718,8.293
				c-2.859,0.93-6.077,2.074-8.722,3.36c-5.791,2.573-9.222,9.866-8.722,16.013c0.5,6.148,4.361,10.867,10.008,13.584
				c2.288,1.145,4.861,2.43,6.863,4.004c2.717,1.93,5.29,4.074,6.577,7.148c0.857,2.287,2.288,5.146,4.718,5.004
				c1.072,0,1.93-0.643,2.931-1.145c1.93-0.928,4.003-1.43,5.934-1.93c2.931-0.785,6.005-1.43,9.007-2.215
				c3.289-0.715,7.149-1.145,10.08,0.428c3.503,1.787,4.79,5.648,5.433,9.508L248.941,349.654z"/>
		</g>
		<g>
			<rect x="238.075" y="385.185" fill="#E6E6E6" width="25.808" height="25.807"/>
			<path fill="#7EC31E" d="M256.591,419.285c-6.291,0-9.579-1.502-9.579-1.502l-1.931,3.361l-4.79-0.859l1.215-2.93
				c-23.091-20.59-7.221-38.533-7.221-38.533c-4.503-5.291,4.861-2.932,4.861-2.932s20.731,3.719,35.315,0
				c0,0,9.438-2.359,4.861,2.932c0,0,15.871,17.943-7.221,38.533l1.216,2.93l-4.79,0.859l-1.858-3.361c0,0-3.36,1.502-9.579,1.502
				H256.591z"/>
			<ellipse fill="#7EC31E" cx="256.877" cy="376.105" rx="24.092" ry="6.148"/>
			<path fill="#ACDA42" fill-opacity="0.6196" d="M274.82,374.533c0-1.932-8.221-3.432-18.229-3.432
				c-10.08,0-18.229,1.5-18.229,3.432c0,1.857,8.149,3.432,18.229,3.432C266.6,377.964,274.82,376.39,274.82,374.533z"/>
			<path fill="#7EC31E" d="M267.601,376.82c5.719-6.434,11.51-12.867,17.3-19.303c0.644-0.785,1.502-1.645,2.502-1.5
				c0.215,0,0.43,0.07,0.715,0.215c0.215,0.143,0.357,0.428,0.43,0.643c0.857,2.287-1.001,4.574-2.717,6.219
				c-5.147,5.148-10.295,10.225-15.37,15.229c-0.144,0.143-0.357,0.213-0.571,0.357c-1.145,0.93-3.218-0.715-2.789-1.217
				L267.601,376.82z"/>
			<path fill="#83B841" fill-opacity="0.251" d="M260.737,374.246c0-1.857,1.287-3.574,3.718-3.359
				c2.216,0.215,3.074,1.645,3.002,3.359c-0.143,1.787-1.572,3.289-3.359,3.289C262.238,377.535,260.737,376.033,260.737,374.246z"
				/>
			<path fill="#CFE07F" fill-opacity="0.3098" d="M262.096,373.388c0-1.145,0.857-2.217,2.287-2.072
				c1.359,0.143,1.931,1.072,1.859,2.072c-0.143,1.145-0.93,2.074-2.073,2.074S262.096,374.533,262.096,373.388z"/>
			<circle fill="#7EC31E" cx="244.309" cy="371.299" r="5.615"/>
			<path fill="#ACDA42" fill-opacity="0.6196" d="M247.369,368.599c-0.644-1.717-2.502-2.646-4.29-2.002
				c-1.716,0.643-2.574,2.574-2.002,4.289c0.644,1.715,2.574,2.645,4.29,2.002C247.154,372.244,248.012,370.314,247.369,368.599z"/>
			<path fill="#ACDA42" fill-opacity="0.6196" d="M274.535,378.392c0,0,12.582,13.369-0.787,33.242
				C273.677,411.634,292.264,393.191,274.535,378.392z"/>
			<path fill="#ACDA42" fill-opacity="0.6196" d="M239.505,378.392c0,0-12.582,13.369,0.787,33.242
				C240.292,411.634,221.776,393.191,239.505,378.392z"/>
		</g>
	</g>
	<g id="_2032977429728">
		<path fill="#2C2B27" d="M234.239,295.949l27.446-15.422c1.067-0.6,2.418-0.221,3.018,0.847l21.533,38.325
			c0.6,1.066,0.221,2.416-0.846,3.016l-27.447,15.422c-1.067,0.6-2.418,0.221-3.018-0.846l-21.533-38.324
			C232.793,297.899,233.172,296.548,234.239,295.949z"/>
		<path fill="#FFFFFF" d="M242.738,298.722l17.793-9.997c0.506-0.284,1.146-0.104,1.43,0.401l0.051,0.09
			c0.283,0.504,0.104,1.145-0.401,1.428l-17.793,9.998c-0.505,0.284-1.145,0.104-1.429-0.4l-0.05-0.09
			C242.054,299.646,242.233,299.007,242.738,298.722z"/>
		<path fill="#FFFFFF" d="M244.88,302.535l17.793-9.997c0.505-0.284,1.145-0.104,1.429,0.401l0.05,0.09
			c0.285,0.505,0.105,1.145-0.4,1.428l-17.793,9.998c-0.505,0.284-1.145,0.104-1.429-0.4l-0.05-0.09
			C244.195,303.458,244.375,302.82,244.88,302.535z"/>
		<path fill="#FFFFFF" d="M247.023,306.347l17.793-9.997c0.505-0.284,1.145-0.104,1.429,0.401l0.05,0.09
			c0.285,0.505,0.105,1.145-0.4,1.428l-17.793,9.998c-0.505,0.283-1.145,0.105-1.429-0.4l-0.05-0.09
			C246.338,307.271,246.518,306.632,247.023,306.347z"/>
		<path fill="#FFFFFF" d="M249.165,310.16l17.794-9.997c0.505-0.284,1.145-0.104,1.429,0.401l0.05,0.09
			c0.285,0.505,0.105,1.145-0.4,1.428l-17.793,9.998c-0.505,0.283-1.145,0.105-1.429-0.4l-0.05-0.09
			C248.48,311.083,248.66,310.445,249.165,310.16z"/>
		<path fill="#FFFFFF" d="M251.307,313.974l17.794-9.998c0.505-0.284,1.146-0.104,1.429,0.4l0.051,0.09
			c0.283,0.506,0.104,1.145-0.4,1.43l-17.794,9.996c-0.505,0.285-1.146,0.105-1.429-0.4l-0.051-0.09
			C250.623,314.898,250.802,314.257,251.307,313.974z"/>
		<path fill="#FFFFFF" d="M253.449,317.787l17.794-9.998c0.505-0.283,1.146-0.105,1.429,0.4l0.051,0.09
			c0.283,0.506,0.104,1.145-0.4,1.43l-17.794,9.996c-0.505,0.285-1.146,0.105-1.429-0.4l-0.051-0.09
			C252.765,318.71,252.944,318.07,253.449,317.787z"/>
		<circle fill="#FFFFFF" cx="262.161" cy="324.313" r="1.948"/>
		<circle fill="#FFFFFF" cx="267.224" cy="321.469" r="1.948"/>
		<circle fill="#FFFFFF" cx="272.286" cy="318.624" r="1.948"/>
		<circle fill="#2C2B27" cx="237.797" cy="306.018" r="3.848"/>
		<circle fill="#2C2B27" cx="249.002" cy="325.961" r="3.848"/>
		<circle fill="#2C2B27" cx="268.48" cy="288.778" r="3.848"/>
		<circle fill="#2C2B27" cx="279.685" cy="308.721" r="3.848"/>
	</g>
	<g id="_2032944844544">
		<path fill="#2C2B27" d="M228.067,283.097l22.376-12.867C250.443,270.23,232.499,267.083,228.067,283.097z"/>
		<path fill="#2C2B27" d="M227.506,282.736l24.238-13.561c1.055-0.59,2.359-0.268,2.912,0.721l0,0
			c0.553,0.987,0.145,2.268-0.91,2.857l-24.238,13.561c-1.055,0.59-2.358,0.268-2.911-0.721l0,0
			C226.044,284.605,226.451,283.326,227.506,282.736z"/>
		
			<rect x="234.906" y="265.798" transform="matrix(-0.8885 0.459 -0.459 -0.8885 568.0787 401.4061)" fill="#2C2B27" width="0.713" height="7.872"/>
		<circle fill="#2C2B27" cx="233.643" cy="266.655" r="1.144"/>
	</g>
	<g id="_1997696271856">
		<polygon fill="#2C2B27" points="268.458,286.314 324.577,229.837 341.807,150.985 345.523,151.771 328.223,231.197 
			327.723,232.197 271.175,289.031 		"/>
		<path fill="#2C2B27" d="M354.817,137.903c2.001,4.218,1.358,9.437-2.002,13.154c-4.433,4.933-12.081,5.362-17.015,0.858
			c-1-0.858-2.287-2.288-2.645-3.789h8.221c3.217,0.857,6.863-0.072,9.223-2.788c1.787-1.931,2.573-4.504,2.431-7.006
			c-0.071-0.429,0.214-0.858,0.715-1C354.174,137.259,354.674,137.474,354.817,137.903z"/>
		<path fill="#2C2B27" d="M336.087,164.783l9.509,2.001c1.644,0.286,2.645,1.931,2.358,3.575l-9.794,46.54
			c-0.357,1.644-1.93,2.645-3.574,2.359l-9.437-2.002c-1.645-0.357-2.717-1.93-2.359-3.574l9.794-46.611
			C332.87,165.498,334.514,164.425,336.087,164.783z"/>
		<path fill="#7EC31E" d="M335.729,166.57l9.509,1.93c0.643,0.143,1.072,0.787,0.929,1.43l-9.794,46.611
			c-0.143,0.644-0.786,1.072-1.43,0.929l-9.437-2.001c-0.644-0.143-1.072-0.787-0.93-1.43l9.723-46.54
			C334.443,166.856,335.086,166.427,335.729,166.57z"/>
		<path fill="#FFFFFF" d="M336.23,169.072l7.506,1.573c0.143,0.071,0.215,0.143,0.215,0.286l-0.357,1.787
			c-0.072,0.143-0.144,0.215-0.286,0.143l-7.578-1.573c-0.071,0-0.143-0.143-0.143-0.286l0.357-1.716
			C335.944,169.144,336.087,169.072,336.23,169.072z"/>
		<path fill="#FFFFFF" d="M335.516,172.575l7.506,1.573c0.143,0.071,0.215,0.143,0.215,0.286l-0.43,1.788
			c0,0.143-0.143,0.214-0.214,0.143l-7.578-1.573c-0.144,0-0.214-0.143-0.144-0.286l0.357-1.716
			C335.229,172.646,335.372,172.575,335.516,172.575z"/>
		<path fill="#FFFFFF" d="M334.729,176.078l7.578,1.573c0.143,0.071,0.215,0.143,0.143,0.286l-0.357,1.788
			c0,0.143-0.143,0.214-0.285,0.143l-7.507-1.573c-0.144,0-0.214-0.143-0.214-0.286l0.428-1.716
			C334.514,176.149,334.657,176.078,334.729,176.078z"/>
		<path fill="#FFFFFF" d="M334.014,179.581l7.578,1.573c0.071,0.071,0.143,0.143,0.143,0.286l-0.357,1.787
			c0,0.143-0.143,0.214-0.285,0.143l-7.507-1.573c-0.144,0-0.214-0.143-0.214-0.286l0.357-1.716
			C333.799,179.652,333.871,179.581,334.014,179.581z"/>
		<path fill="#FFFFFF" d="M333.299,183.084l7.506,1.573c0.144,0.072,0.215,0.143,0.215,0.286l-0.357,1.787
			c-0.071,0.143-0.143,0.214-0.285,0.143l-7.578-1.573c-0.072,0-0.215-0.143-0.143-0.286l0.357-1.716
			C333.014,183.155,333.156,183.084,333.299,183.084z"/>
		<path fill="#FFFFFF" d="M332.513,186.587l7.577,1.573c0.144,0.072,0.215,0.143,0.215,0.286l-0.429,1.787
			c0,0.143-0.144,0.214-0.214,0.143l-7.578-1.573c-0.144,0-0.215-0.143-0.144-0.286l0.357-1.716
			C332.298,186.658,332.441,186.587,332.513,186.587z"/>
		<path fill="#FFFFFF" d="M331.798,190.09l7.577,1.573c0.144,0.072,0.215,0.143,0.144,0.286l-0.357,1.787
			c0,0.143-0.144,0.214-0.286,0.143l-7.506-1.573c-0.144,0-0.215-0.143-0.215-0.286l0.357-1.715
			C331.583,190.162,331.727,190.09,331.798,190.09z"/>
		<path fill="#FFFFFF" d="M331.083,193.593l7.577,1.573c0.072,0.072,0.144,0.143,0.144,0.286l-0.357,1.787
			c-0.071,0.143-0.144,0.214-0.286,0.143l-7.578-1.573c-0.071,0-0.143-0.143-0.143-0.286l0.357-1.715
			C330.868,193.665,330.939,193.593,331.083,193.593z"/>
		<path fill="#FFFFFF" d="M330.368,197.096l7.506,1.573c0.144,0.072,0.215,0.143,0.215,0.286l-0.429,1.787
			c0,0.143-0.144,0.214-0.215,0.143l-7.578-1.573c-0.143,0-0.215-0.143-0.143-0.286l0.357-1.716
			C330.082,197.167,330.225,197.096,330.368,197.096z"/>
		<path fill="#FFFFFF" d="M329.582,200.599l7.577,1.573c0.144,0.071,0.215,0.143,0.144,0.286l-0.357,1.787
			c0,0.143-0.144,0.215-0.286,0.143l-7.507-1.573c-0.143,0-0.215-0.143-0.215-0.286l0.43-1.716
			C329.367,200.67,329.51,200.599,329.582,200.599z"/>
		<path fill="#FFFFFF" d="M328.867,204.102l7.577,1.573c0.071,0.071,0.215,0.143,0.144,0.286l-0.357,1.788
			c0,0.143-0.144,0.214-0.286,0.143l-7.507-1.573c-0.143,0-0.215-0.143-0.215-0.286l0.357-1.716
			C328.652,204.173,328.724,204.102,328.867,204.102z"/>
		<path fill="#FFFFFF" d="M328.152,207.605l7.506,1.573c0.143,0.071,0.215,0.143,0.215,0.286l-0.357,1.788
			c-0.072,0.143-0.144,0.214-0.287,0.143l-7.577-1.573c-0.071,0-0.144-0.143-0.144-0.286l0.357-1.716
			C327.865,207.676,328.009,207.605,328.152,207.605z"/>
		<path fill="#FFFFFF" d="M327.438,211.108l7.506,1.573c0.143,0.071,0.215,0.143,0.215,0.286l-0.43,1.788
			c0,0.143-0.143,0.214-0.215,0.143l-7.577-1.572c-0.144,0-0.215-0.143-0.144-0.286l0.357-1.716
			C327.15,211.179,327.294,211.108,327.438,211.108z"/>
		<path fill="#2C2B27" d="M326.078,223.833c4.219,0,7.65,3.431,7.65,7.721c0,4.217-3.432,7.721-7.65,7.721
			c-4.289,0-7.721-3.504-7.721-7.721C318.357,227.264,321.789,223.833,326.078,223.833z"/>
		<path fill="#7EC31E" d="M326.078,225.621c3.217,0,5.862,2.645,5.862,5.934c0,3.217-2.646,5.861-5.862,5.861
			c-3.288,0-5.934-2.645-5.934-5.861C320.145,228.265,322.79,225.621,326.078,225.621z"/>
		<g>
			<path fill="#2C2B27" d="M309.064,241.347l7.006,6.721c1.144,1.144,1.215,3.074,0.071,4.218l-33.1,34.243
				c-1.144,1.215-3.003,1.215-4.218,0.072l-6.935-6.721c-1.216-1.144-1.286-3.074-0.144-4.218l33.1-34.243
				C305.99,240.205,307.92,240.205,309.064,241.347z"/>
		</g>
		<path fill="#7EC31E" d="M307.849,242.634l6.935,6.721c0.5,0.428,0.5,1.215,0.071,1.715l-33.099,34.244
			c-0.43,0.429-1.216,0.5-1.717,0l-6.934-6.721c-0.501-0.429-0.501-1.215,0-1.715l33.027-34.244
			C306.563,242.206,307.349,242.134,307.849,242.634z"/>
		<path fill="#FFFFFF" d="M306.848,245.066l5.576,5.289c0.072,0.144,0.072,0.287,0,0.357L311.137,252
			c-0.07,0.072-0.214,0.072-0.285,0l-5.576-5.361c-0.072-0.072-0.072-0.215,0-0.286l1.287-1.286
			C306.633,244.922,306.776,244.922,306.848,245.066z"/>
		<path fill="#FFFFFF" d="M304.418,247.638l5.504,5.291c0.072,0.143,0.143,0.285,0,0.357l-1.215,1.287
			c-0.144,0.07-0.286,0.143-0.357,0l-5.505-5.362c-0.144-0.071-0.144-0.214,0-0.286l1.216-1.287
			C304.131,247.496,304.274,247.496,304.418,247.638z"/>
		<path fill="#FFFFFF" d="M301.915,250.212l5.505,5.29c0.143,0.144,0.143,0.286,0.071,0.357l-1.286,1.287
			c-0.072,0.071-0.215,0.144-0.357,0l-5.506-5.362c-0.07-0.07-0.07-0.214,0-0.285l1.216-1.287
			C301.701,250.07,301.844,250.07,301.915,250.212z"/>
		<path fill="#FFFFFF" d="M299.413,252.787l5.576,5.289c0.071,0.144,0.071,0.287,0,0.357l-1.287,1.287
			c-0.071,0.143-0.214,0.143-0.286,0l-5.576-5.361c-0.071-0.072-0.071-0.215,0-0.286l1.287-1.286
			C299.199,252.643,299.342,252.643,299.413,252.787z"/>
		<path fill="#FFFFFF" d="M296.911,255.359l5.576,5.362c0.071,0.071,0.071,0.214,0,0.286l-1.287,1.287
			c-0.071,0.143-0.214,0.143-0.286,0l-5.576-5.361c-0.071-0.072-0.071-0.215,0-0.287l1.287-1.287
			C296.696,255.216,296.84,255.216,296.911,255.359z"/>
		<path fill="#FFFFFF" d="M294.48,257.933l5.504,5.361c0.072,0.072,0.072,0.215,0,0.287l-1.215,1.286
			c-0.143,0.144-0.285,0.144-0.357,0l-5.504-5.362c-0.144-0.07-0.144-0.214-0.072-0.285l1.287-1.287
			C294.194,257.791,294.338,257.791,294.48,257.933z"/>
		<path fill="#FFFFFF" d="M291.979,260.507l5.504,5.361c0.144,0.071,0.144,0.215,0,0.285l-1.215,1.287
			c-0.071,0.144-0.215,0.144-0.357,0l-5.505-5.361c-0.143-0.071-0.143-0.215,0-0.285l1.216-1.287
			C291.764,260.364,291.906,260.364,291.979,260.507z"/>
		<path fill="#FFFFFF" d="M289.477,263.081l5.576,5.362c0.07,0.07,0.07,0.214,0,0.285l-1.287,1.287
			c-0.072,0.143-0.215,0.143-0.286,0l-5.576-5.361c-0.071-0.072-0.071-0.215,0-0.287l1.286-1.286
			C289.262,262.937,289.404,262.937,289.477,263.081z"/>
		<path fill="#FFFFFF" d="M286.975,265.654l5.576,5.361c0.07,0.072,0.07,0.215,0,0.287l-1.287,1.286
			c-0.072,0.144-0.215,0.144-0.286,0l-5.576-5.362c-0.071-0.07-0.071-0.214,0-0.285l1.286-1.287
			C286.76,265.511,286.902,265.511,286.975,265.654z"/>
		<path fill="#FFFFFF" d="M284.472,268.228l5.576,5.361c0.071,0.072,0.071,0.215,0,0.286l-1.216,1.286
			c-0.143,0.144-0.285,0.144-0.357,0l-5.576-5.361c-0.07-0.071-0.07-0.215,0-0.285l1.287-1.287
			C284.258,268.085,284.4,268.085,284.472,268.228z"/>
		<path fill="#FFFFFF" d="M282.041,270.801l5.505,5.362c0.144,0.07,0.144,0.214,0,0.285l-1.216,1.287
			c-0.071,0.143-0.214,0.143-0.357,0l-5.504-5.361c-0.144-0.072-0.144-0.215,0-0.287l1.215-1.286
			C281.756,270.658,281.898,270.658,282.041,270.801z"/>
		<path fill="#FFFFFF" d="M279.539,273.375l5.576,5.362c0.071,0.071,0.071,0.214,0,0.286l-1.287,1.287
			c-0.071,0.143-0.215,0.143-0.285,0l-5.576-5.291c-0.072-0.143-0.072-0.285,0-0.357l1.215-1.287
			C279.324,273.304,279.468,273.232,279.539,273.375z"/>
		<path fill="#FFFFFF" d="M277.037,275.949l5.576,5.361c0.071,0.072,0.071,0.215,0,0.286l-1.287,1.286
			c-0.071,0.144-0.215,0.144-0.285,0l-5.576-5.289c-0.072-0.144-0.072-0.287,0-0.357l1.286-1.287
			C276.822,275.876,276.965,275.806,277.037,275.949z"/>
	</g>
	<g id="_2033035521904">
		<polygon fill="#2C2B27" points="280.039,305.544 366.828,297.324 420.016,215.469 423.232,217.542 369.043,300.898 
			280.396,309.333 		"/>
		<path fill="#2C2B27" d="M427.45,195.452c3.217,1.93,5.505,5.29,5.934,9.293c0.572,6.648-4.289,12.582-10.938,13.226
			c-4.933,0.5-9.509-2.145-11.725-6.22c-0.214-0.429-0.143-0.929,0.215-1.215c0.357-0.286,0.929-0.286,1.286,0
			c1.859,1.644,4.361,2.502,7.007,2.288c5.146-0.5,8.936-5.076,8.436-10.223c0-0.5-0.144-1.001-0.215-1.501V195.452z"/>
		<path fill="#2C2B27" d="M399.784,240.99l8.149,5.291c1.358,0.93,1.787,2.787,0.858,4.146l-25.808,39.963
			c-0.93,1.357-2.789,1.787-4.219,0.857l-8.078-5.219c-1.43-0.93-1.787-2.789-0.929-4.146l25.879-39.963
			C396.495,240.49,398.426,240.132,399.784,240.99z"/>
		<path fill="#7EC31E" d="M398.848,242.55l8.065,5.223c0.579,0.374,0.745,1.147,0.37,1.727l-25.795,39.847
			c-0.375,0.579-1.148,0.745-1.728,0.37l-8.065-5.222c-0.58-0.375-0.745-1.148-0.371-1.728l25.796-39.847
			C397.495,242.341,398.269,242.175,398.848,242.55z"/>
		<path fill="#FFFFFF" d="M398.855,245.407l5.445,3.525c0.391,0.253,0.694,0.479,0.677,0.506l-1.17,1.808
			c-0.017,0.025-0.348-0.158-0.738-0.411l-5.445-3.524c-0.392-0.254-0.694-0.48-0.678-0.506l1.171-1.809
			C398.134,244.97,398.465,245.154,398.855,245.407z"/>
		<path fill="#FFFFFF" d="M396.911,248.412l5.445,3.525c0.391,0.253,0.694,0.479,0.677,0.506l-1.17,1.807
			c-0.017,0.027-0.348-0.157-0.738-0.41l-5.445-3.525c-0.391-0.253-0.694-0.479-0.678-0.506l1.17-1.807
			C396.189,247.974,396.521,248.159,396.911,248.412z"/>
		<path fill="#FFFFFF" d="M394.966,251.416l5.445,3.525c0.391,0.253,0.694,0.479,0.677,0.506l-1.17,1.807
			c-0.017,0.027-0.348-0.156-0.738-0.41l-5.445-3.525c-0.391-0.252-0.694-0.479-0.678-0.506l1.17-1.807
			C394.244,250.978,394.574,251.163,394.966,251.416z"/>
		<path fill="#FFFFFF" d="M393.021,254.419l5.445,3.525c0.391,0.253,0.694,0.479,0.677,0.506l-1.17,1.807
			c-0.017,0.027-0.348-0.156-0.738-0.41l-5.446-3.525c-0.391-0.252-0.693-0.479-0.677-0.506l1.171-1.807
			C392.3,253.982,392.631,254.167,393.021,254.419z"/>
		<path fill="#FFFFFF" d="M391.076,257.423l5.446,3.525c0.391,0.253,0.693,0.479,0.677,0.506l-1.17,1.807
			c-0.018,0.027-0.348-0.156-0.738-0.41l-5.445-3.525c-0.392-0.252-0.695-0.479-0.678-0.506l1.17-1.807
			C390.355,256.986,390.686,257.17,391.076,257.423z"/>
		<path fill="#FFFFFF" d="M389.131,260.428l5.445,3.524c0.392,0.254,0.695,0.48,0.678,0.506l-1.17,1.809
			c-0.018,0.025-0.348-0.158-0.738-0.411l-5.445-3.524c-0.392-0.254-0.695-0.48-0.678-0.506l1.17-1.809
			C388.41,259.992,388.74,260.175,389.131,260.428z"/>
		<path fill="#FFFFFF" d="M387.188,263.432l5.445,3.525c0.391,0.253,0.693,0.479,0.677,0.505l-1.17,1.809
			c-0.017,0.025-0.349-0.158-0.739-0.411l-5.445-3.524c-0.391-0.254-0.693-0.48-0.677-0.506l1.17-1.809
			C386.465,262.996,386.796,263.179,387.188,263.432z"/>
		<path fill="#FFFFFF" d="M385.242,266.436l5.445,3.525c0.391,0.253,0.694,0.479,0.678,0.505l-1.17,1.809
			c-0.018,0.025-0.348-0.158-0.739-0.411l-5.445-3.524c-0.391-0.254-0.694-0.48-0.677-0.506l1.17-1.809
			C384.521,266,384.852,266.183,385.242,266.436z"/>
		<path fill="#FFFFFF" d="M383.297,269.441l5.445,3.524c0.392,0.253,0.694,0.479,0.678,0.506l-1.17,1.808
			c-0.018,0.025-0.348-0.158-0.739-0.41l-5.445-3.525c-0.391-0.254-0.694-0.48-0.677-0.506l1.17-1.809
			C382.576,269.003,382.906,269.187,383.297,269.441z"/>
		<path fill="#FFFFFF" d="M381.353,272.445l5.446,3.525c0.391,0.253,0.693,0.479,0.676,0.506l-1.17,1.807
			c-0.017,0.027-0.348-0.157-0.738-0.41l-5.445-3.525c-0.391-0.253-0.694-0.479-0.678-0.506l1.171-1.807
			C380.631,272.007,380.962,272.192,381.353,272.445z"/>
		<path fill="#FFFFFF" d="M379.408,275.449l5.445,3.525c0.391,0.253,0.694,0.479,0.678,0.506l-1.17,1.807
			c-0.018,0.027-0.349-0.156-0.739-0.41l-5.445-3.525c-0.392-0.252-0.694-0.479-0.677-0.506l1.17-1.807
			C378.687,275.011,379.018,275.196,379.408,275.449z"/>
		<path fill="#FFFFFF" d="M377.463,278.453l5.445,3.525c0.391,0.253,0.694,0.479,0.678,0.506l-1.17,1.807
			c-0.018,0.027-0.349-0.156-0.739-0.41l-5.445-3.525c-0.392-0.252-0.694-0.479-0.677-0.506l1.17-1.807
			C376.741,278.015,377.072,278.2,377.463,278.453z"/>
		<path fill="#FFFFFF" d="M375.519,281.457l5.445,3.525c0.392,0.253,0.694,0.479,0.677,0.506l-1.17,1.808
			c-0.017,0.026-0.348-0.157-0.738-0.411l-5.445-3.525c-0.391-0.252-0.694-0.479-0.678-0.506l1.17-1.807
			C374.797,281.02,375.127,281.204,375.519,281.457z"/>
		<circle fill="#2C2B27" cx="368.543" cy="299.04" r="7.721"/>
		<circle fill="#7EC31E" cx="368.543" cy="299.04" r="5.934"/>
		<path fill="#2C2B27" d="M340.02,296.751l0.929,9.58c0.144,1.645-1.072,3.145-2.716,3.289l-47.398,4.504
			c-1.645,0.143-3.074-1.072-3.288-2.717l-0.858-9.651c-0.214-1.645,1.072-3.074,2.717-3.288l47.326-4.434
			C338.375,293.821,339.876,295.107,340.02,296.751z"/>
		<path fill="#7EC31E" d="M338.237,296.929l0.907,9.566c0.064,0.688-0.439,1.297-1.127,1.361l-47.255,4.479
			c-0.687,0.064-1.296-0.439-1.361-1.125l-0.907-9.566c-0.064-0.688,0.439-1.297,1.126-1.361l47.256-4.479
			C337.563,295.739,338.172,296.243,338.237,296.929z"/>
		<path fill="#FFFFFF" d="M336.002,298.708l0.611,6.458c0.044,0.463,0.055,0.842,0.023,0.844l-2.144,0.203
			c-0.031,0.004-0.093-0.369-0.136-0.834l-0.612-6.457c-0.044-0.464-0.054-0.842-0.023-0.846l2.144-0.203
			C335.896,297.871,335.957,298.244,336.002,298.708z"/>
		<path fill="#FFFFFF" d="M332.439,299.045l0.611,6.458c0.045,0.463,0.055,0.842,0.023,0.846l-2.144,0.203
			c-0.031,0.002-0.092-0.371-0.136-0.835l-0.612-6.458c-0.044-0.463-0.054-0.842-0.022-0.845l2.143-0.203
			C332.334,298.208,332.396,298.582,332.439,299.045z"/>
		<path fill="#FFFFFF" d="M328.876,299.382l0.612,6.459c0.044,0.463,0.055,0.842,0.023,0.844l-2.145,0.203
			c-0.031,0.004-0.092-0.369-0.135-0.834l-0.613-6.457c-0.043-0.464-0.054-0.842-0.022-0.846l2.144-0.203
			C328.771,298.546,328.832,298.919,328.876,299.382z"/>
		<path fill="#FFFFFF" d="M325.313,299.72l0.613,6.457c0.043,0.465,0.054,0.844,0.022,0.846l-2.144,0.203
			c-0.031,0.004-0.092-0.371-0.136-0.834l-0.612-6.458c-0.044-0.464-0.055-0.842-0.023-0.845l2.145-0.203
			C325.209,298.883,325.27,299.257,325.313,299.72z"/>
		<path fill="#FFFFFF" d="M321.751,300.058l0.612,6.457c0.043,0.465,0.054,0.842,0.022,0.846l-2.144,0.203
			c-0.031,0.002-0.092-0.371-0.136-0.834l-0.612-6.459c-0.044-0.463-0.055-0.842-0.023-0.844l2.145-0.203
			C321.646,299.22,321.707,299.594,321.751,300.058z"/>
		<path fill="#FFFFFF" d="M318.188,300.396l0.612,6.457c0.044,0.465,0.054,0.842,0.022,0.846l-2.143,0.203
			c-0.031,0.002-0.092-0.371-0.137-0.834l-0.611-6.458c-0.045-0.464-0.055-0.843-0.023-0.845l2.144-0.203
			C318.083,299.558,318.145,299.932,318.188,300.396z"/>
		<path fill="#FFFFFF" d="M314.625,300.734l0.612,6.457c0.044,0.465,0.055,0.842,0.023,0.846l-2.144,0.203
			c-0.031,0.002-0.092-0.371-0.137-0.834l-0.611-6.459c-0.044-0.463-0.055-0.842-0.023-0.844l2.144-0.203
			C314.521,299.896,314.582,300.269,314.625,300.734z"/>
		<path fill="#FFFFFF" d="M311.063,301.071l0.611,6.458c0.045,0.463,0.055,0.842,0.023,0.844l-2.143,0.203
			c-0.031,0.004-0.093-0.369-0.137-0.834l-0.611-6.457c-0.045-0.463-0.055-0.842-0.023-0.845l2.144-0.203
			C310.957,300.234,311.019,300.607,311.063,301.071z"/>
		<path fill="#FFFFFF" d="M307.5,301.41l0.611,6.457c0.044,0.463,0.055,0.842,0.023,0.846l-2.144,0.203
			c-0.031,0.002-0.093-0.371-0.136-0.834l-0.612-6.459c-0.044-0.463-0.055-0.842-0.023-0.845l2.144-0.203
			C307.395,300.572,307.455,300.945,307.5,301.41z"/>
		<path fill="#FFFFFF" d="M303.938,301.747l0.611,6.458c0.044,0.463,0.055,0.842,0.023,0.844l-2.144,0.203
			c-0.031,0.004-0.093-0.369-0.136-0.834l-0.612-6.457c-0.044-0.464-0.054-0.842-0.022-0.846l2.143-0.203
			C303.832,300.91,303.893,301.283,303.938,301.747z"/>
		<path fill="#FFFFFF" d="M300.374,302.083l0.612,6.459c0.044,0.463,0.055,0.842,0.023,0.844l-2.145,0.203
			c-0.031,0.004-0.092-0.371-0.136-0.834l-0.612-6.457c-0.043-0.465-0.054-0.843-0.022-0.846l2.144-0.203
			C300.27,301.247,300.33,301.621,300.374,302.083z"/>
		<path fill="#FFFFFF" d="M296.812,302.421l0.612,6.457c0.044,0.465,0.055,0.842,0.023,0.846l-2.145,0.203
			c-0.03,0.002-0.092-0.371-0.135-0.834l-0.613-6.458c-0.043-0.464-0.054-0.843-0.022-0.845l2.144-0.203
			C296.707,301.583,296.768,301.958,296.812,302.421z"/>
		<path fill="#FFFFFF" d="M293.248,302.759l0.613,6.457c0.043,0.465,0.054,0.844,0.022,0.846l-2.144,0.203
			c-0.031,0.004-0.092-0.371-0.136-0.834l-0.612-6.458c-0.044-0.464-0.055-0.842-0.023-0.845l2.145-0.203
			C293.145,301.922,293.205,302.296,293.248,302.759z"/>
	</g>
	<g id="_2033035533392">
		<polygon fill="#2C2B27" points="247.869,327.564 181.384,348.796 180.312,348.867 106.178,331.496 107.036,327.707 
			180.741,345.007 246.654,323.917 		"/>
		<path fill="#2C2B27" d="M189.892,339.001c-0.572-1.572,0.286-3.217,1.858-3.789l45.182-15.012c1.573-0.5,3.288,0.357,3.789,1.93
			l3.074,9.15c0.5,1.572-0.357,3.289-1.93,3.789l-45.11,15.084c-1.573,0.502-3.289-0.357-3.86-1.93L189.892,339.001z"/>
		<path fill="#7EC31E" d="M191.579,338.505l3.035,9.117c0.218,0.654,0.925,1.008,1.58,0.791l45.037-14.994
			c0.654-0.217,1.008-0.926,0.791-1.58l-3.035-9.115c-0.218-0.656-0.925-1.01-1.58-0.791l-45.037,14.992
			C191.715,337.144,191.361,337.851,191.579,338.505z"/>
		<path fill="#FFFFFF" d="M194.343,339.23l2.049,6.154c0.147,0.441,0.291,0.793,0.32,0.781l2.043-0.68
			c0.03-0.01-0.065-0.375-0.212-0.818l-2.049-6.154c-0.147-0.441-0.29-0.791-0.32-0.781l-2.043,0.68
			C194.101,338.421,194.196,338.789,194.343,339.23z"/>
		<path fill="#FFFFFF" d="M197.739,338.099l2.049,6.154c0.147,0.441,0.291,0.791,0.32,0.781l2.043-0.68
			c0.03-0.01-0.065-0.375-0.212-0.818l-2.049-6.154c-0.147-0.441-0.291-0.791-0.32-0.781l-2.043,0.68
			C197.496,337.291,197.591,337.656,197.739,338.099z"/>
		<path fill="#FFFFFF" d="M201.134,336.968l2.049,6.154c0.147,0.441,0.291,0.793,0.32,0.783l2.043-0.682
			c0.029-0.01-0.065-0.375-0.213-0.816l-2.049-6.156c-0.147-0.441-0.291-0.791-0.32-0.781l-2.043,0.68
			C200.892,336.16,200.986,336.527,201.134,336.968z"/>
		<path fill="#FFFFFF" d="M204.529,335.837l2.049,6.156c0.147,0.441,0.291,0.791,0.32,0.781l2.043-0.68
			c0.03-0.01-0.065-0.377-0.212-0.818l-2.049-6.154c-0.147-0.441-0.29-0.793-0.32-0.783l-2.043,0.682
			C204.287,335.031,204.382,335.396,204.529,335.837z"/>
		<path fill="#FFFFFF" d="M207.925,334.708l2.049,6.154c0.147,0.441,0.291,0.791,0.32,0.781l2.043-0.68
			c0.03-0.01-0.065-0.375-0.212-0.818l-2.049-6.154c-0.147-0.441-0.291-0.791-0.32-0.781l-2.043,0.68
			C207.683,333.9,207.778,334.265,207.925,334.708z"/>
		<path fill="#FFFFFF" d="M211.32,333.578l2.049,6.154c0.147,0.441,0.291,0.793,0.32,0.783l2.043-0.682
			c0.029-0.01-0.066-0.375-0.213-0.816l-2.049-6.156c-0.147-0.441-0.291-0.791-0.32-0.781l-2.043,0.68
			C211.078,332.769,211.173,333.136,211.32,333.578z"/>
		<path fill="#FFFFFF" d="M214.716,332.447l2.049,6.154c0.147,0.441,0.291,0.793,0.32,0.783l2.043-0.682
			c0.03-0.01-0.065-0.375-0.212-0.816l-2.049-6.156c-0.147-0.441-0.29-0.791-0.32-0.781l-2.043,0.68
			C214.474,331.638,214.569,332.005,214.716,332.447z"/>
		<path fill="#FFFFFF" d="M218.112,331.316l2.049,6.154c0.147,0.443,0.291,0.793,0.32,0.783l2.043-0.68
			c0.03-0.01-0.065-0.377-0.212-0.818l-2.049-6.154c-0.147-0.443-0.291-0.793-0.32-0.783l-2.043,0.68
			C217.869,330.507,217.964,330.875,218.112,331.316z"/>
		<path fill="#FFFFFF" d="M221.507,330.187l2.049,6.154c0.147,0.441,0.291,0.791,0.32,0.781l2.043-0.68
			c0.029-0.01-0.066-0.377-0.213-0.818l-2.049-6.154c-0.147-0.441-0.291-0.793-0.32-0.781l-2.043,0.68
			C221.264,329.378,221.359,329.744,221.507,330.187z"/>
		<path fill="#FFFFFF" d="M224.902,329.056l2.049,6.154c0.147,0.441,0.291,0.793,0.32,0.783l2.043-0.682
			c0.03-0.01-0.065-0.375-0.213-0.816l-2.049-6.156c-0.147-0.441-0.291-0.791-0.32-0.781l-2.043,0.68
			C224.66,328.248,224.755,328.615,224.902,329.056z"/>
		<path fill="#FFFFFF" d="M228.297,327.925l2.049,6.154c0.147,0.441,0.291,0.793,0.32,0.783l2.043-0.682
			c0.03-0.01-0.065-0.375-0.212-0.818l-2.049-6.154c-0.147-0.441-0.291-0.791-0.32-0.781l-2.043,0.68
			C228.055,327.117,228.15,327.484,228.297,327.925z"/>
		<path fill="#FFFFFF" d="M231.693,326.794l2.049,6.154c0.147,0.443,0.291,0.793,0.32,0.783l2.043-0.68
			c0.03-0.01-0.065-0.377-0.212-0.818l-2.049-6.154c-0.147-0.443-0.291-0.793-0.32-0.783l-2.043,0.68
			C231.451,325.986,231.546,326.353,231.693,326.794z"/>
		<path fill="#FFFFFF" d="M235.089,325.664l2.049,6.156c0.147,0.441,0.291,0.791,0.32,0.781l2.043-0.68
			c0.03-0.01-0.065-0.377-0.213-0.818l-2.049-6.154c-0.147-0.441-0.291-0.793-0.32-0.783l-2.043,0.682
			C234.847,324.857,234.942,325.222,235.089,325.664z"/>
		<path fill="#2C2B27" d="M179.025,339.001c4.075-1.215,8.436,1.072,9.651,5.148c1.215,4.002-1.001,8.363-5.076,9.578
			c-4.075,1.287-8.364-1-9.651-5.074C172.734,344.578,175.021,340.289,179.025,339.001z"/>
		<circle fill="#7EC31E" cx="181.317" cy="346.378" r="5.852"/>
		<path fill="#2C2B27" d="M118.188,327.492c0.357-1.645,2.001-2.645,3.646-2.215l46.182,11.295c1.573,0.428,2.574,2.072,2.216,3.646
			l-2.288,9.436c-0.429,1.572-2.073,2.574-3.646,2.217l-46.253-11.367c-1.573-0.357-2.574-2.002-2.216-3.646L118.188,327.492z"/>
		<path fill="#7EC31E" d="M119.903,327.939l-2.289,9.332c-0.165,0.67,0.246,1.346,0.916,1.51l46.102,11.307
			c0.67,0.164,1.346-0.246,1.511-0.916l2.289-9.332c0.164-0.67-0.246-1.348-0.916-1.512l-46.101-11.305
			C120.743,326.859,120.067,327.269,119.903,327.939z"/>
		<path fill="#FFFFFF" d="M121.856,330.023l-1.545,6.301c-0.111,0.451-0.176,0.824-0.146,0.832l2.091,0.512
			c0.03,0.008,0.145-0.352,0.256-0.805l1.545-6.301c0.111-0.451,0.176-0.824,0.146-0.832l-2.091-0.514
			C122.082,329.21,121.967,329.57,121.856,330.023z"/>
		<path fill="#FFFFFF" d="M125.332,330.875l-1.545,6.301c-0.111,0.451-0.176,0.824-0.146,0.832l2.091,0.514
			c0.03,0.006,0.145-0.354,0.256-0.807l1.545-6.299c0.111-0.453,0.176-0.826,0.146-0.834l-2.091-0.512
			C125.557,330.062,125.443,330.423,125.332,330.875z"/>
		<path fill="#FFFFFF" d="M128.807,331.728l-1.545,6.301c-0.111,0.451-0.176,0.824-0.146,0.832l2.091,0.512
			c0.03,0.008,0.145-0.352,0.256-0.805l1.545-6.301c0.111-0.451,0.176-0.824,0.146-0.832l-2.091-0.514
			C129.032,330.916,128.918,331.275,128.807,331.728z"/>
		<path fill="#FFFFFF" d="M132.283,332.58l-1.545,6.301c-0.111,0.451-0.176,0.824-0.146,0.832l2.091,0.514
			c0.03,0.006,0.145-0.354,0.256-0.807l1.545-6.299c0.111-0.453,0.176-0.826,0.146-0.834l-2.091-0.512
			C132.508,331.767,132.394,332.128,132.283,332.58z"/>
		<path fill="#FFFFFF" d="M135.758,333.431l-1.545,6.301c-0.111,0.453-0.176,0.826-0.146,0.832l2.091,0.514
			c0.03,0.008,0.145-0.354,0.256-0.807l1.545-6.299c0.111-0.453,0.176-0.826,0.146-0.832l-2.091-0.514
			C135.984,332.619,135.869,332.98,135.758,333.431z"/>
		<path fill="#FFFFFF" d="M139.234,334.285l-1.545,6.301c-0.111,0.451-0.176,0.824-0.146,0.832l2.091,0.514
			c0.03,0.006,0.145-0.354,0.256-0.807l1.545-6.299c0.111-0.453,0.176-0.826,0.146-0.834l-2.091-0.512
			C139.46,333.472,139.345,333.833,139.234,334.285z"/>
		<path fill="#FFFFFF" d="M142.71,335.136l-1.545,6.301c-0.111,0.453-0.176,0.826-0.146,0.832l2.091,0.514
			c0.031,0.008,0.145-0.354,0.256-0.807l1.545-6.299c0.111-0.453,0.176-0.826,0.146-0.832l-2.091-0.514
			C142.936,334.324,142.821,334.685,142.71,335.136z"/>
		<path fill="#FFFFFF" d="M146.186,335.99l-1.545,6.299c-0.111,0.453-0.176,0.826-0.146,0.834l2.091,0.512
			c0.03,0.008,0.145-0.354,0.256-0.805l1.545-6.301c0.111-0.451,0.176-0.824,0.146-0.832l-2.091-0.514
			C146.411,335.175,146.297,335.537,146.186,335.99z"/>
		<path fill="#FFFFFF" d="M149.662,336.841l-1.545,6.301c-0.111,0.451-0.176,0.824-0.146,0.832l2.091,0.512
			c0.031,0.008,0.145-0.352,0.256-0.805l1.545-6.301c0.111-0.451,0.176-0.824,0.146-0.832l-2.091-0.512
			C149.887,336.029,149.772,336.388,149.662,336.841z"/>
		<path fill="#FFFFFF" d="M153.137,337.695l-1.545,6.299c-0.111,0.453-0.176,0.826-0.146,0.834l2.091,0.512
			c0.031,0.008,0.145-0.354,0.256-0.805l1.545-6.301c0.111-0.451,0.176-0.824,0.146-0.832l-2.091-0.514
			C153.362,336.88,153.248,337.242,153.137,337.695z"/>
		<path fill="#FFFFFF" d="M156.613,338.546l-1.545,6.301c-0.111,0.451-0.176,0.824-0.146,0.832l2.091,0.512
			c0.03,0.008,0.145-0.352,0.256-0.805l1.545-6.301c0.111-0.451,0.176-0.824,0.146-0.832l-2.091-0.512
			C156.838,337.734,156.724,338.093,156.613,338.546z"/>
		<path fill="#FFFFFF" d="M160.088,339.398l-1.545,6.301c-0.111,0.453-0.176,0.824-0.146,0.832l2.091,0.514
			c0.031,0.008,0.145-0.354,0.256-0.807l1.545-6.299c0.111-0.453,0.176-0.826,0.146-0.834l-2.091-0.512
			C160.314,338.585,160.199,338.947,160.088,339.398z"/>
		<path fill="#FFFFFF" d="M163.564,340.251l-1.545,6.299c-0.111,0.453-0.176,0.826-0.146,0.834l2.091,0.512
			c0.03,0.008,0.145-0.354,0.256-0.805l1.545-6.301c0.111-0.453,0.176-0.824,0.146-0.832l-2.091-0.514
			C163.79,339.437,163.675,339.798,163.564,340.251z"/>
		<path fill="#2C2B27" d="M109.18,308.404c4.146,3.789,5.862,9.867,3.86,15.514c-2.645,7.578-10.938,11.582-18.516,8.936
			c-3.503-1.215-6.22-3.645-7.936-6.648h10.509l0,0c4.718,0.072,9.222-2.859,10.866-7.576c1.072-3.004,0.786-6.221-0.572-8.865
			c-0.286-0.5-0.143-1.145,0.286-1.43C108.179,307.976,108.823,307.976,109.18,308.404z"/>
	</g>
	<g id="_2033008470176">
		<rect x="76.652" y="160.493" fill="#E6E6E6" width="25.808" height="25.808"/>
		<rect x="58.852" y="127.895" fill="#4D4D4D" width="61.409" height="61.409"/>
		<path fill="#7EC31E" d="M89.449,178.723c-2.359,0-3.646-0.5-3.646-0.5l-0.715,1.215l-1.859-0.286l0.5-1.144
			c-8.793-7.864-2.788-14.655-2.788-14.655c-1.716-2.073,1.859-1.144,1.859-1.144s7.935,1.43,13.511,0c0,0,3.575-0.929,1.859,1.144
			c0,0,6.077,6.792-2.788,14.655l0.5,1.144l-1.859,0.286l-0.715-1.215c0,0-1.287,0.5-3.646,0.5H89.449z"/>
		<ellipse fill="#7EC31E" cx="89.592" cy="162.281" rx="9.222" ry="2.359"/>
		<path fill="#7EC31E" fill-opacity="0.502" d="M86.232,157.92c0-0.572,0.429-1.072,1.001-1.072c0.644,0,1.072,0.5,1.072,1.072
			c0,0.572-0.429,1.001-1.072,1.001C86.661,158.921,86.232,158.492,86.232,157.92z"/>
		<path fill="#7EC31E" fill-opacity="0.502" d="M93.095,158.992c0-0.429,0.286-0.715,0.715-0.715c0.429,0,0.786,0.357,0.786,0.715
			c0,0.5-0.357,0.786-0.786,0.786C93.381,159.778,93.095,159.421,93.095,158.992z"/>
		<path fill="#7EC31E" fill-opacity="0.502" d="M83.301,155.346c0-0.5,0.358-0.787,0.715-0.787c0.429,0,0.786,0.357,0.786,0.787
			c0,0.429-0.357,0.715-0.786,0.715C83.587,156.061,83.301,155.704,83.301,155.346z"/>
		<path fill="#7EC31E" fill-opacity="0.502" d="M93.738,153.63c0-0.429,0.357-0.786,0.715-0.786c0.5,0,0.787,0.357,0.787,0.786
			c0,0.429-0.357,0.787-0.787,0.787C94.096,154.417,93.738,154.06,93.738,153.63z"/>
		<path fill="#ACDA42" fill-opacity="0.6196" d="M96.455,161.637c0-0.715-3.146-1.287-7.006-1.287s-6.935,0.572-6.935,1.287
			s3.074,1.358,6.935,1.358S96.455,162.352,96.455,161.637z"/>
		<path fill="#7EC31E" d="M93.667,162.566c2.216-2.502,4.432-4.933,6.648-7.363c0.214-0.357,0.572-0.644,0.93-0.644
			c0.071,0,0.143,0.072,0.286,0.143c0.072,0,0.143,0.143,0.143,0.214c0.286,0.858-0.357,1.788-1.072,2.431
			c-1.93,1.931-3.86,3.86-5.862,5.791c0,0-0.143,0.071-0.214,0.143c-0.429,0.357-1.215-0.286-1.001-0.5L93.667,162.566z"/>
		<path fill="#83B841" fill-opacity="0.251" d="M91.093,161.566c0-0.715,0.429-1.358,1.358-1.287
			c0.858,0.072,1.215,0.644,1.144,1.287c0,0.643-0.572,1.287-1.287,1.287C91.665,162.853,91.093,162.209,91.093,161.566z"/>
		<path fill="#CFE07F" fill-opacity="0.3098" d="M91.594,161.208c0-0.429,0.286-0.786,0.858-0.786
			c0.5,0.071,0.715,0.429,0.715,0.786c-0.071,0.429-0.357,0.787-0.786,0.787C91.951,161.995,91.594,161.637,91.594,161.208z"/>
		<circle fill="#7EC31E" cx="84.787" cy="160.436" r="2.144"/>
		<path fill="#ACDA42" fill-opacity="0.6196" d="M85.946,159.421c-0.215-0.715-0.93-1.001-1.645-0.786
			c-0.643,0.214-1.001,1.001-0.715,1.644c0.214,0.644,0.93,1.001,1.645,0.787C85.875,160.779,86.232,160.064,85.946,159.421z"/>
		<path fill="#7EC31E" d="M96.312,140.834c0.286-1.859-0.643-3.003-0.858-3.074c-0.429-0.071-0.357,0.858-1.215,1.645
			c-0.429,0.429-1.144,0.929-1.644,1.072c-1.645,0.572-2.288-1.001-3.86-1.501c-1.215-0.429-2.502-0.429-3.932,0.214
			c-1.001,0.5-1.787,1.358-2.001,2.431c-0.143,1.144,0.5,4.647,0.143,5.29c-0.357,0.644-0.786,1.001-1.501,1.216
			c-1.573,0.429-2.574-0.215-2.788,0.071c-0.286,0.357,1.287,1.93,1.787,2.359c0.644,0.429,2.073,1.072,2.788,1.072
			c1.215,0.143,2.431-0.143,3.646-0.429c0.5-0.214,1.144-0.5,1.716-0.572c0.5-0.071,1.287,0.071,1.644,0.5
			c0.429,0.5,0.5,1.144,0.357,1.858c-0.143,0.572-1,1.573-1.501,2.359c-0.286,0.357-0.5,1.144-0.286,1.501
			c0.357,0.572,0.715,0.857,1.43,1.43c0.357,0.286,0.286,1.001,0.072,1.43s-0.572,0.786-0.858,1.144l0.071,0.143
			c0.93-0.715,2.216-1.715,2.431-2.288c0.214-0.644,0-1.215-0.357-1.43c-0.429-0.214-1.072-0.429-0.786-0.858
			c0.857-1.215,4.432-3.86,4.432-5.362c0-0.357-0.286-0.929-0.5-1.644c-0.286-0.858-0.572-1.501,0-2.145
			c0.357-0.286,1.215-1.001,1.287-1.93c0-0.429-0.429-0.787-0.644-1.216c-0.357-0.5-0.214-1.215,0.143-1.644
			C96.026,141.835,96.169,141.406,96.312,140.834z M86.161,142.979c-0.214,0.429-0.787,0.572-1.215,0.429
			c-0.429-0.071-0.786-0.429-1.072-0.786c-0.072-0.071-0.143-0.214-0.214-0.357c0-0.143,0.071-0.286,0.143-0.286
			c0.072-0.071,0.143-0.071,0.215-0.071c0.286,0,0.572,0.071,0.786,0.143c0.286,0.071,0.429,0.214,0.715,0.143
			c0.429,0,0.644-0.215,0.644-0.215C86.232,142.335,86.304,142.692,86.161,142.979z M86.446,141.763c0,0,0.286-0.143,0.429-0.572
			c0.072-0.215,0-0.5,0-0.644c0-0.286,0-0.572,0.072-0.858c0-0.071,0-0.143,0-0.143c0.143-0.143,0.286-0.143,0.429-0.071
			c0.071,0.071,0.143,0.143,0.286,0.286c0.214,0.357,0.5,0.786,0.5,1.287c0,0.429-0.286,0.929-0.715,1.001
			C87.09,142.049,86.804,141.906,86.446,141.763z M88.52,145.552c-0.214,0.143-0.857-0.286-1.287-1.001
			c-0.429-0.715-0.572-1.43-0.286-1.573c0.286-0.214,0.857,0.214,1.287,1.001C88.663,144.623,88.806,145.338,88.52,145.552z"/>
		<path fill="#7EC31E" fill-opacity="0.502" d="M97.099,152.772c0.429-0.429,1-0.644,1.358-1.144
			c0.357-0.429,0.643-1.144,0.286-1.716c-0.143-0.357-0.572-0.572-0.715-0.93c-0.286-0.5-0.071-1.144,0.286-1.572
			c0.429-0.429,0.929-0.715,1.358-1.001c0.787-0.644,1.501-1.716,1.072-2.717c-0.071-0.357-0.286-0.572-0.5-0.858
			c-0.429-0.5-0.787-1.072-1.215-1.573c-0.357-0.429-0.715-0.929-0.93-1.43c-0.286-0.5-0.786-1.072-0.643-1.573
			c-0.072,0.286,1.787,2.359,2.431,2.788c0.357,0.286,1.573,1.001,1.93,1.287c0.786,0.715,1.072,1.787,0.643,2.788
			c-0.357,0.858-1.501,1.787-2.145,2.502c-0.214,0.286-0.429,0.572-0.5,0.929c0,0.858,0.644,0.929,1.072,1.716
			c0.429,0.644,0.286,1.644-0.143,2.145c-0.5,0.429-1.144,0.715-1.715,0.858c-0.644,0.214-2.288,0.929-3.074,1.859
			c-0.715,0.715-1.43,2.573-1.358,2.573C94.668,157.705,94.096,155.775,97.099,152.772z"/>
		<path fill="#7EC31E" fill-opacity="0.502" d="M87.519,156.633c0.429-1.001,0.357-2.288-0.286-3.217
			c-0.143-0.143-0.286-0.357-0.429-0.429c-0.215-0.143-0.5-0.143-0.715-0.143c-1.144-0.072-3.146,0.286-4.289,0.071
			c-1.358-0.286-2.502-1.144-2.859-1.573c-0.858-0.786-1.358-1.573-1.788-2.645c-0.143-0.357-0.071-1.001,0.143-1.358
			c0.071-0.071,0.214-0.143,0.286-0.214c0.572-0.357,1.358-0.5,2.001-0.715c1.43-0.572,1.287-1.859,1.072-2.502
			c-0.214-0.643-0.715-1.072-1.144-1.573c-0.357-0.572-0.715-1.287-0.715-2.001c0.071-0.715,0.643-1.43,1.287-1.787
			c-0.786,0.071-1.43,0.429-1.859,1.072c-0.357,0.715-0.286,1.787,0.358,3.002c0.286,0.644-0.072,1.573-1.073,1.93
			c-0.643,0.143-1.358,0.429-2.001,0.715c-1.287,0.572-2.073,2.216-1.93,3.646c0.071,1.358,0.929,2.431,2.216,3.074
			c0.5,0.286,1.144,0.572,1.572,0.858c0.644,0.5,1.216,0.929,1.501,1.644c0.214,0.5,0.5,1.144,1.072,1.144
			c0.214,0,0.429-0.143,0.644-0.286c0.429-0.143,0.929-0.286,1.358-0.429c0.643-0.143,1.358-0.286,2.001-0.5
			c0.787-0.143,1.645-0.215,2.288,0.143c0.787,0.357,1.073,1.215,1.215,2.145L87.519,156.633z"/>
		<path fill="#ACDA42" fill-opacity="0.6196" d="M96.312,163.139c0,0,4.79,5.076-0.286,12.725
			C96.026,175.864,103.104,168.786,96.312,163.139z"/>
		<path fill="#ACDA42" fill-opacity="0.6196" d="M82.943,163.139c0,0-4.79,5.076,0.286,12.725
			C83.229,175.864,76.152,168.786,82.943,163.139z"/>
	</g>
	<g id="_2033035508720">
		<polygon fill="#2C2B27" points="235.43,307.619 164.728,269.873 163.941,269.158 119.403,190.662 122.691,188.803 
			167.015,266.726 237.217,304.258 		"/>
		<path fill="#2C2B27" d="M136.847,207.962c1.501-0.858,3.288-0.286,4.075,1.144l23.02,41.679c0.858,1.43,0.286,3.288-1.144,4.074
			l-8.507,4.646c-1.43,0.787-3.289,0.287-4.075-1.143l-23.02-41.679c-0.786-1.43-0.286-3.289,1.215-4.075L136.847,207.962z"/>
		<path fill="#7EC31E" d="M137.701,209.525l-8.41,4.648c-0.604,0.334-0.823,1.094-0.489,1.698l22.962,41.543
			c0.334,0.604,1.094,0.823,1.698,0.489l8.41-4.648c0.604-0.334,0.823-1.094,0.489-1.697l-22.962-41.544
			C139.065,209.41,138.305,209.191,137.701,209.525z"/>
		<path fill="#FFFFFF" d="M137.495,212.375l-5.677,3.138c-0.408,0.226-0.726,0.43-0.71,0.458l1.042,1.885
			c0.015,0.027,0.358-0.133,0.766-0.358l5.677-3.138c0.408-0.225,0.726-0.43,0.711-0.458l-1.042-1.884
			C138.245,211.989,137.902,212.149,137.495,212.375z"/>
		<path fill="#FFFFFF" d="M139.226,215.506l-5.677,3.138c-0.408,0.225-0.726,0.43-0.711,0.457l1.042,1.885
			c0.016,0.027,0.358-0.133,0.766-0.358l5.677-3.138c0.408-0.225,0.726-0.43,0.71-0.458l-1.042-1.884
			C139.976,215.121,139.633,215.281,139.226,215.506z"/>
		<path fill="#FFFFFF" d="M140.957,218.638l-5.677,3.138c-0.408,0.225-0.726,0.43-0.711,0.458l1.042,1.884
			c0.016,0.027,0.358-0.133,0.766-0.358l5.677-3.138c0.408-0.226,0.726-0.43,0.71-0.458l-1.042-1.884
			C141.707,218.252,141.364,218.413,140.957,218.638z"/>
		<path fill="#FFFFFF" d="M142.688,221.77l-5.677,3.138c-0.408,0.225-0.726,0.43-0.71,0.458l1.042,1.884
			c0.015,0.027,0.358-0.133,0.766-0.357l5.677-3.138c0.407-0.226,0.726-0.43,0.71-0.458l-1.042-1.885
			C143.438,221.384,143.095,221.545,142.688,221.77z"/>
		<path fill="#FFFFFF" d="M144.419,224.902l-5.677,3.138c-0.408,0.225-0.726,0.43-0.71,0.457l1.042,1.885
			c0.015,0.027,0.358-0.133,0.766-0.358l5.677-3.138c0.407-0.226,0.726-0.431,0.71-0.458l-1.042-1.884
			C145.169,224.517,144.827,224.677,144.419,224.902z"/>
		<path fill="#FFFFFF" d="M146.15,228.035l-5.677,3.139c-0.407,0.225-0.726,0.43-0.71,0.457l1.042,1.885
			c0.015,0.027,0.358-0.133,0.766-0.359l5.677-3.137c0.408-0.227,0.726-0.431,0.71-0.458l-1.042-1.885
			C146.901,227.649,146.558,227.81,146.15,228.035z"/>
		<path fill="#FFFFFF" d="M147.881,231.167l-5.677,3.138c-0.408,0.226-0.726,0.431-0.711,0.458l1.042,1.884
			c0.015,0.027,0.358-0.133,0.765-0.357l5.677-3.139c0.408-0.225,0.726-0.43,0.711-0.457l-1.042-1.885
			C148.632,230.781,148.289,230.941,147.881,231.167z"/>
		<path fill="#FFFFFF" d="M149.613,234.298l-5.677,3.139c-0.408,0.225-0.726,0.43-0.71,0.457l1.042,1.885
			c0.015,0.027,0.358-0.133,0.766-0.358l5.677-3.138c0.408-0.226,0.726-0.431,0.711-0.458l-1.042-1.884
			C150.363,233.914,150.021,234.074,149.613,234.298z"/>
		<path fill="#FFFFFF" d="M151.344,237.431l-5.677,3.137c-0.408,0.227-0.726,0.431-0.71,0.459l1.042,1.884
			c0.015,0.027,0.358-0.134,0.766-0.358l5.677-3.139c0.408-0.225,0.726-0.43,0.711-0.457l-1.042-1.885
			C152.095,237.044,151.752,237.205,151.344,237.431z"/>
		<path fill="#FFFFFF" d="M153.075,240.562l-5.677,3.139c-0.408,0.225-0.726,0.43-0.711,0.457l1.042,1.885
			c0.016,0.027,0.358-0.133,0.766-0.358l5.677-3.138c0.408-0.226,0.726-0.43,0.71-0.457l-1.042-1.885
			C153.825,240.177,153.482,240.337,153.075,240.562z"/>
		<path fill="#FFFFFF" d="M154.807,243.695l-5.677,3.139c-0.408,0.225-0.726,0.43-0.711,0.457l1.042,1.885
			c0.016,0.027,0.358-0.133,0.766-0.358l5.677-3.138c0.408-0.226,0.726-0.431,0.71-0.458l-1.042-1.884
			C155.557,243.31,155.214,243.47,154.807,243.695z"/>
		<path fill="#FFFFFF" d="M156.538,246.828l-5.677,3.138c-0.408,0.226-0.726,0.431-0.711,0.458l1.042,1.884
			c0.015,0.027,0.358-0.134,0.765-0.358l5.677-3.139c0.408-0.225,0.726-0.43,0.711-0.457l-1.042-1.885
			C157.288,246.441,156.945,246.601,156.538,246.828z"/>
		<path fill="#FFFFFF" d="M158.269,249.958l-5.677,3.139c-0.408,0.225-0.726,0.43-0.71,0.457l1.042,1.885
			c0.015,0.027,0.358-0.133,0.766-0.358l5.677-3.138c0.407-0.226,0.726-0.43,0.71-0.457l-1.042-1.885
			C159.019,249.574,158.676,249.734,158.269,249.958z"/>
		<path fill="#2C2B27" d="M163.87,261.436c4.003-1.286,8.364,1.001,9.58,5.075c1.287,4.076-1.001,8.365-5.076,9.652
			c-4.075,1.215-8.364-1.072-9.651-5.076C157.507,267.012,159.794,262.652,163.87,261.436z"/>
		<circle fill="#7EC31E" cx="166.095" cy="268.792" r="5.852"/>
		<path fill="#2C2B27" d="M185.173,273.161c0.858-1.431,2.645-2.002,4.146-1.144l41.607,22.947c1.43,0.858,2.002,2.646,1.215,4.146
			l-4.718,8.436c-0.786,1.43-2.645,2.002-4.075,1.215l-41.678-23.019c-1.43-0.858-1.93-2.646-1.144-4.075L185.173,273.161z"/>
		<path fill="#7EC31E" d="M186.757,274.068l-4.647,8.41c-0.333,0.604-0.115,1.363,0.489,1.697l41.546,22.957
			c0.604,0.334,1.363,0.115,1.697-0.488l4.647-8.41c0.333-0.604,0.114-1.364-0.489-1.697l-41.546-22.959
			C187.851,273.244,187.091,273.463,186.757,274.068z"/>
		<path fill="#FFFFFF" d="M188.098,276.589l-3.137,5.678c-0.225,0.408-0.386,0.75-0.358,0.766l1.885,1.041
			c0.027,0.016,0.232-0.303,0.458-0.711l3.137-5.678c0.225-0.407,0.386-0.75,0.358-0.766l-1.885-1.041
			C188.528,275.864,188.323,276.181,188.098,276.589z"/>
		<path fill="#FFFFFF" d="M191.23,278.32l-3.137,5.678c-0.225,0.408-0.386,0.75-0.358,0.766l1.885,1.041
			c0.027,0.016,0.232-0.303,0.458-0.711l3.137-5.677c0.226-0.407,0.386-0.751,0.358-0.766l-1.885-1.042
			C191.66,277.594,191.456,277.913,191.23,278.32z"/>
		<path fill="#FFFFFF" d="M194.363,280.05l-3.137,5.678c-0.226,0.408-0.386,0.751-0.358,0.766l1.885,1.042
			c0.027,0.015,0.232-0.304,0.457-0.711l3.138-5.678c0.225-0.407,0.386-0.75,0.358-0.765l-1.885-1.042
			C194.793,279.326,194.588,279.644,194.363,280.05z"/>
		<path fill="#FFFFFF" d="M197.495,281.783l-3.137,5.678c-0.225,0.407-0.386,0.75-0.358,0.766l1.885,1.041
			c0.027,0.016,0.232-0.303,0.458-0.711l3.137-5.678c0.225-0.407,0.386-0.75,0.358-0.766l-1.885-1.041
			C197.925,281.056,197.72,281.375,197.495,281.783z"/>
		<path fill="#FFFFFF" d="M200.627,283.513l-3.137,5.678c-0.226,0.407-0.386,0.75-0.358,0.766l1.885,1.041
			c0.027,0.016,0.232-0.303,0.457-0.711l3.138-5.678c0.225-0.407,0.386-0.75,0.358-0.766l-1.885-1.041
			C201.058,282.787,200.853,283.105,200.627,283.513z"/>
		<path fill="#FFFFFF" d="M203.759,285.244l-3.137,5.678c-0.225,0.408-0.386,0.75-0.358,0.766l1.885,1.041
			c0.027,0.016,0.232-0.303,0.458-0.711l3.137-5.678c0.225-0.406,0.386-0.75,0.358-0.765l-1.885-1.042
			C204.189,284.518,203.984,284.836,203.759,285.244z"/>
		<path fill="#FFFFFF" d="M206.892,286.974l-3.137,5.678c-0.226,0.408-0.386,0.75-0.358,0.766l1.885,1.041
			c0.027,0.016,0.232-0.303,0.457-0.71l3.138-5.678c0.225-0.407,0.386-0.751,0.358-0.766l-1.884-1.041
			C207.322,286.25,207.117,286.567,206.892,286.974z"/>
		<path fill="#FFFFFF" d="M210.024,288.706l-3.137,5.677c-0.226,0.408-0.386,0.751-0.358,0.766l1.885,1.042
			c0.027,0.015,0.232-0.304,0.458-0.711l3.137-5.677c0.225-0.408,0.386-0.751,0.358-0.766l-1.885-1.042
			C210.454,287.98,210.249,288.298,210.024,288.706z"/>
		<path fill="#FFFFFF" d="M213.157,290.436l-3.138,5.678c-0.225,0.407-0.385,0.751-0.358,0.766l1.884,1.042
			c0.028,0.015,0.232-0.304,0.458-0.711l3.138-5.678c0.225-0.408,0.385-0.75,0.358-0.766l-1.884-1.041
			C213.587,289.71,213.382,290.029,213.157,290.436z"/>
		<path fill="#FFFFFF" d="M216.289,292.167l-3.137,5.678c-0.226,0.406-0.386,0.75-0.358,0.765l1.885,1.042
			c0.027,0.015,0.232-0.303,0.457-0.711l3.138-5.678c0.225-0.408,0.386-0.75,0.358-0.766l-1.885-1.041
			C216.719,291.441,216.514,291.759,216.289,292.167z"/>
		<path fill="#FFFFFF" d="M219.421,293.898l-3.138,5.678c-0.225,0.408-0.385,0.75-0.358,0.766l1.884,1.041
			c0.028,0.016,0.232-0.303,0.458-0.71l3.138-5.678c0.225-0.407,0.385-0.751,0.358-0.766l-1.884-1.042
			C219.852,293.172,219.646,293.491,219.421,293.898z"/>
		<path fill="#FFFFFF" d="M222.553,295.628l-3.137,5.678c-0.226,0.408-0.386,0.751-0.358,0.766l1.885,1.042
			c0.027,0.015,0.232-0.304,0.457-0.711l3.138-5.677c0.225-0.408,0.386-0.751,0.358-0.766l-1.885-1.042
			C222.983,294.904,222.778,295.222,222.553,295.628z"/>
		<path fill="#FFFFFF" d="M225.686,297.36l-3.138,5.678c-0.225,0.407-0.385,0.751-0.358,0.765l1.884,1.042
			c0.027,0.015,0.232-0.303,0.458-0.71l3.137-5.678c0.226-0.408,0.386-0.751,0.358-0.766l-1.884-1.041
			C226.116,296.634,225.911,296.953,225.686,297.36z"/>
		<path fill="#2C2B27" d="M105.391,188.303c3.146,3.432,8.221,4.861,12.868,3.217c6.363-2.216,9.651-9.079,7.435-15.441
			c-1.001-2.859-3.003-5.147-5.434-6.506v8.65h-0.071c0.071,4.003-2.359,7.649-6.291,9.079c-2.502,0.858-5.147,0.572-7.363-0.572
			c-0.429-0.214-0.93-0.072-1.215,0.286C105.034,187.445,105.105,187.945,105.391,188.303z"/>
	</g>
</g>
</svg>
