<?xml version="1.0" encoding="utf-8"?>
<!-- Generator: Adobe Illustrator 16.0.0, SVG Export Plug-In . SVG Version: 6.00 Build 0)  -->
<!DOCTYPE svg PUBLIC "-//W3C//DTD SVG 1.1//EN" "http://www.w3.org/Graphics/SVG/1.1/DTD/svg11.dtd">
<svg version="1.1" id="Layer_1" xmlns="http://www.w3.org/2000/svg" xmlns:xlink="http://www.w3.org/1999/xlink" x="0px" y="0px"
	 width="397.623px" height="395.533px" viewBox="0 0 397.623 395.533" enable-background="new 0 0 397.623 395.533"
	 xml:space="preserve">
<g id="Layer_x0020_1">
	<g id="_2032991321216">
		<g>
			<polygon fill="#E6E6E6" points="188.048,0 209.575,0 209.575,21.526 188.048,21.526 			"/>
			<polygon fill="#E6E6E6" points="161.195,26.709 182.649,26.709 182.649,48.236 161.195,48.236 			"/>
			<polygon fill="#E6E6E6" points="188.048,26.709 209.575,26.709 209.575,48.236 188.048,48.236 			"/>
			<polygon fill="#E6E6E6" points="214.901,26.709 236.429,26.709 236.429,48.236 214.901,48.236 			"/>
			<polygon fill="#E6E6E6" points="134.341,53.419 155.795,53.419 155.795,74.945 134.341,74.945 			"/>
			<polygon fill="#E6E6E6" points="161.195,53.419 182.649,53.419 182.649,74.945 161.195,74.945 			"/>
			<polygon fill="#E6E6E6" points="188.048,53.419 209.575,53.419 209.575,74.945 188.048,74.945 			"/>
			<polygon fill="#E6E6E6" points="214.901,53.419 236.429,53.419 236.429,74.945 214.901,74.945 			"/>
			<polygon fill="#E6E6E6" points="241.756,53.419 263.282,53.419 263.282,74.945 241.756,74.945 			"/>
			<polygon fill="#E6E6E6" points="107.487,80.129 128.941,80.129 128.941,101.655 107.487,101.655 			"/>
			<path fill="#E6E6E6" d="M134.341,80.129h21.454v18.574c-2.736,0.792-5.472,1.728-8.208,2.952H134.34L134.341,80.129
				L134.341,80.129z"/>
			<path fill="#E6E6E6" d="M161.195,80.129h21.454v17.207c-7.199-1.296-14.399-1.296-21.454,0.072V80.129z"/>
			<path fill="#E6E6E6" d="M188.048,80.129h21.527v21.526h-13.031c-1.44-0.72-2.88-1.296-4.392-1.8
				c-1.368-0.504-2.736-0.936-4.104-1.296V80.129z"/>
			<polygon fill="#E6E6E6" points="214.901,80.129 236.429,80.129 236.429,101.655 214.901,101.655 			"/>
			<path fill="#E6E6E6" d="M241.756,80.129h21.526v6.335c-0.576,0.072-1.152,0.216-1.656,0.504c-3.744,1.656-5.039,5.76-6.551,9.143
				c-0.938,2.016-1.873,3.816-3.096,5.544h-10.225L241.756,80.129L241.756,80.129z"/>
			<path fill="#E6E6E6" d="M268.608,80.129h21.526v21.526h-12.383c-0.288-0.937-0.647-1.872-1.08-2.808
				c-1.368-3.24-4.392-8.855-8.063-11.303V80.129z"/>
			<polygon fill="#E6E6E6" points="80.562,106.839 102.088,106.839 102.088,128.365 80.562,128.365 			"/>
			<path fill="#E6E6E6" d="M107.487,106.839h21.454v8.063c-3.384,3.888-5.975,8.423-7.631,13.463h-13.823V106.839z"/>
			<path fill="#E6E6E6" d="M134.341,106.839h3.671c-1.296,0.864-2.52,1.8-3.671,2.808V106.839z"/>
			<path fill="#E6E6E6" d="M205.255,106.839h4.32v3.167c-0.289-0.216-0.576-0.432-0.865-0.648
				C207.56,108.495,206.407,107.703,205.255,106.839z"/>
			<path fill="#E6E6E6" d="M214.901,106.839h21.526v7.847c-1.655,0.936-3.239,1.656-4.752,2.16
				c-3.815,1.224-7.344,1.44-11.087,0.072c-1.943-0.72-3.814-1.8-5.688-3.024V106.839L214.901,106.839z"/>
			<path fill="#E6E6E6" d="M241.756,106.839h5.472c-1.584,1.439-3.455,2.952-5.472,4.392V106.839z"/>
			<path fill="#E6E6E6" d="M279.265,106.839h10.871v21.526h-10.799c0.145-0.72,0.287-1.44,0.432-2.16l0.072-0.072v-0.072
				C280.849,119.726,280.704,113.102,279.265,106.839z"/>
			<polygon fill="#E6E6E6" points="295.535,106.839 316.989,106.839 316.989,128.365 295.535,128.365 			"/>
			<polygon fill="#E6E6E6" points="53.708,133.548 75.234,133.548 75.234,155.074 53.708,155.074 			"/>
			<polygon fill="#E6E6E6" points="80.562,133.548 102.088,133.548 102.088,155.074 80.562,155.074 			"/>
			<path fill="#E6E6E6" d="M107.487,133.548h12.599v0.216c-0.648,4.104-0.432,8.855-0.216,12.959
				c0.216,2.808,0.432,5.543,0.648,8.351h-13.031V133.548z"/>
			<path fill="#E6E6E6" d="M277.753,133.548h12.383v21.526H268.61v-6.191c0.433-0.72,0.863-1.368,1.367-1.944l0.145-0.144
				l0.072-0.216C273.505,142.116,275.952,138.156,277.753,133.548z"/>
			<polygon fill="#E6E6E6" points="295.535,133.548 316.989,133.548 316.989,155.074 295.535,155.074 			"/>
			<polygon fill="#E6E6E6" points="322.39,133.548 343.843,133.548 343.843,155.074 322.39,155.074 			"/>
			<polygon fill="#E6E6E6" points="26.854,160.258 48.381,160.258 48.381,181.784 26.854,181.784 			"/>
			<polygon fill="#E6E6E6" points="53.708,160.258 75.234,160.258 75.234,181.784 53.708,181.784 			"/>
			<polygon fill="#E6E6E6" points="80.562,160.258 102.088,160.258 102.088,181.784 80.562,181.784 			"/>
			<path fill="#E6E6E6" d="M107.487,160.258h13.535l0.216,2.664c0.288,2.808,1.224,11.807,1.439,18.862h-15.191V160.258z"/>
			<path fill="#E6E6E6" d="M268.97,160.258h21.166v21.526h-14.615c0.648-1.8,1.008-3.744,1.152-5.688
				c0.288-4.607-2.232-8.639-4.896-12.095C270.841,162.778,269.833,161.554,268.97,160.258z"/>
			<polygon fill="#E6E6E6" points="295.535,160.258 316.989,160.258 316.989,181.784 295.535,181.784 			"/>
			<polygon fill="#E6E6E6" points="322.39,160.258 343.843,160.258 343.843,181.784 322.39,181.784 			"/>
			<polygon fill="#E6E6E6" points="349.242,160.258 370.696,160.258 370.696,181.784 349.242,181.784 			"/>
			<polygon fill="#E6E6E6" points="0.001,187.04 21.527,187.04 21.527,208.493 0.001,208.493 			"/>
			<polygon fill="#E6E6E6" points="26.854,187.04 48.381,187.04 48.381,208.493 26.854,208.493 			"/>
			<path fill="#E6E6E6" d="M53.708,187.04h21.526v16.63c-0.072,0.072-0.216,0.216-0.288,0.288c-1.008,1.439-1.44,2.952-1.368,4.535
				h-19.87V187.04z"/>
			<path fill="#E6E6E6" d="M80.562,187.04h21.526v15.695c-4.176,0.504-8.279,0.359-12.671-0.36
				c-2.664-0.504-5.903-1.438-8.855-1.224V187.04z"/>
			<path fill="#E6E6E6" d="M107.487,187.04h15.191c-0.072,1.512-0.216,2.736-0.504,3.384c-3.456,6.12-7.2,9.072-13.895,11.015
				c-0.288,0.072-0.576,0.146-0.792,0.217V187.04z"/>
			<path fill="#E6E6E6" d="M263.282,198.487v10.006h-4.393c-0.216-1.295-0.287-2.52-0.072-3.527c0.217-1.871,1.225-3.313,2.521-4.68
				C261.914,199.71,262.634,199.135,263.282,198.487z"/>
			<path fill="#E6E6E6" d="M273.217,187.04h16.919v21.454H268.61V193.16c0.359-0.288,0.646-0.648,0.937-1.008
				C270.913,190.567,272.138,188.839,273.217,187.04z"/>
			<polygon fill="#E6E6E6" points="295.535,187.04 316.989,187.04 316.989,208.493 295.535,208.493 			"/>
			<polygon fill="#E6E6E6" points="322.39,187.04 343.843,187.04 343.843,208.493 322.39,208.493 			"/>
			<polygon fill="#E6E6E6" points="349.242,187.04 370.696,187.04 370.696,208.493 349.242,208.493 			"/>
			<polygon fill="#E6E6E6" points="376.097,187.04 397.622,187.04 397.622,208.493 376.097,208.493 			"/>
			<polygon fill="#E6E6E6" points="26.854,213.749 48.381,213.749 48.381,235.204 26.854,235.204 			"/>
			<path fill="#E6E6E6" d="M53.708,213.749H75.09c0,0.072,0.072,0.145,0.144,0.288v21.167H53.708V213.749z"/>
			<path fill="#E6E6E6" d="M93.665,235.204H80.562v-13.463c1.224,1.439,2.52,2.807,3.744,4.175
				C87.185,229.084,90.425,232.323,93.665,235.204z"/>
			<path fill="#E6E6E6" d="M260.187,213.749h3.097v9.646c-0.504-1.367-0.937-2.662-1.298-4.031
				C261.554,217.853,260.834,215.837,260.187,213.749z"/>
			<polygon fill="#E6E6E6" points="268.608,213.749 290.136,213.749 290.136,235.204 268.608,235.204 			"/>
			<polygon fill="#E6E6E6" points="295.535,213.749 316.989,213.749 316.989,235.204 295.535,235.204 			"/>
			<polygon fill="#E6E6E6" points="322.39,213.749 343.843,213.749 343.843,235.204 322.39,235.204 			"/>
			<polygon fill="#E6E6E6" points="349.242,213.749 370.696,213.749 370.696,235.204 349.242,235.204 			"/>
			<polygon fill="#E6E6E6" points="53.708,240.459 75.234,240.459 75.234,261.913 53.708,261.913 			"/>
			<path fill="#E6E6E6" d="M80.562,240.459h20.374c0.36,0.216,0.72,0.433,1.152,0.647v20.807H80.562V240.459z"/>
			<path fill="#E6E6E6" d="M128.941,250.683v11.23h-21.454v-18.143C114.759,247.228,123.254,250.034,128.941,250.683z"/>
			<path fill="#E6E6E6" d="M155.795,248.81v13.104h-21.454V250.97C141.469,251.114,148.74,250.25,155.795,248.81z"/>
			<path fill="#E6E6E6" d="M182.649,240.892v21.021h-21.454v-14.255c3.384-0.792,6.695-1.655,10.007-2.593
				c3.312-0.863,6.479-2.23,9.647-3.526C181.425,241.323,182.073,241.106,182.649,240.892z"/>
			<path fill="#E6E6E6" d="M188.048,240.459h11.159c1.656,0.576,3.167,1.368,4.175,2.521c4.104,4.607,4.465,10.078,3.024,15.91
				c-0.218,0.863-0.648,1.871-1.226,3.023h-17.134L188.048,240.459L188.048,240.459z"/>
			<path fill="#E6E6E6" d="M263.282,252.194v9.719h-6.984C258.89,258.817,261.338,255.506,263.282,252.194z"/>
			<polygon fill="#E6E6E6" points="268.608,240.459 290.136,240.459 290.136,261.913 268.608,261.913 			"/>
			<polygon fill="#E6E6E6" points="295.535,240.459 316.989,240.459 316.989,261.913 295.535,261.913 			"/>
			<polygon fill="#E6E6E6" points="322.39,240.459 343.843,240.459 343.843,261.913 322.39,261.913 			"/>
			<polygon fill="#E6E6E6" points="80.562,267.169 102.088,267.169 102.088,288.623 80.562,288.623 			"/>
			<polygon fill="#E6E6E6" points="107.487,267.169 128.941,267.169 128.941,288.623 107.487,288.623 			"/>
			<polygon fill="#E6E6E6" points="134.341,267.169 155.795,267.169 155.795,288.623 134.341,288.623 			"/>
			<polygon fill="#E6E6E6" points="161.195,267.169 182.649,267.169 182.649,288.623 161.195,288.623 			"/>
			<path fill="#E6E6E6" d="M188.048,267.169h14.039c-1.8,2.664-3.743,5.327-4.967,6.982c-2.304,3.097-4.68,6.191-6.912,9.358
				l-0.072,0.072l-0.072,0.071c-0.72,1.08-1.44,2.377-2.016,3.815V267.169z"/>
			<path fill="#E6E6E6" d="M236.429,282.647v5.976h-6.19C232.325,286.606,234.341,284.663,236.429,282.647z"/>
			<path fill="#E6E6E6" d="M251.763,267.169h11.521v21.454h-21.526v-11.231c0.504-0.504,0.936-0.936,1.44-1.438
				C245.571,273.576,248.595,270.552,251.763,267.169z"/>
			<polygon fill="#E6E6E6" points="268.608,267.169 290.136,267.169 290.136,288.623 268.608,288.623 			"/>
			<polygon fill="#E6E6E6" points="295.535,267.169 316.989,267.169 316.989,288.623 295.535,288.623 			"/>
			<polygon fill="#E6E6E6" points="107.487,293.878 128.941,293.878 128.941,315.332 107.487,315.332 			"/>
			<polygon fill="#E6E6E6" points="134.341,293.878 155.795,293.878 155.795,315.332 134.341,315.332 			"/>
			<polygon fill="#E6E6E6" points="161.195,293.878 182.649,293.878 182.649,315.332 161.195,315.332 			"/>
			<path fill="#E6E6E6" d="M195.032,315.332h-6.983v-8.279C190.064,310.365,192.44,313.028,195.032,315.332z"/>
			<path fill="#E6E6E6" d="M224.981,293.878h11.446v21.454h-4.393c-0.576-4.823-2.808-9.358-7.271-11.733
				c-1.08-0.647-4.031-2.089-5.76-3.168C220.806,298.198,222.894,295.966,224.981,293.878z"/>
			<polygon fill="#E6E6E6" points="241.756,293.878 263.282,293.878 263.282,315.332 241.756,315.332 			"/>
			<polygon fill="#E6E6E6" points="268.608,293.878 290.136,293.878 290.136,315.332 268.608,315.332 			"/>
			<polygon fill="#E6E6E6" points="134.341,320.588 155.795,320.588 155.795,342.042 134.341,342.042 			"/>
			<polygon fill="#E6E6E6" points="161.195,320.588 182.649,320.588 182.649,342.042 161.195,342.042 			"/>
			<path fill="#E6E6E6" d="M188.048,320.588h13.462c0.938,0.72,1.944,1.439,2.882,2.16c1.582,1.224,1.223,3.959,0.791,5.688
				c-1.151,4.535-4.681,9.359-8.208,13.606h-8.927V320.588z"/>
			<path fill="#E6E6E6" d="M232.036,320.588h4.393v21.454H218.79c0.287-0.288,0.646-0.576,0.936-0.936
				c3.961-3.96,9.287-10.151,11.23-15.479l0.072-0.072v-0.071C231.532,323.899,231.894,322.244,232.036,320.588z"/>
			<polygon fill="#E6E6E6" points="241.756,320.588 263.282,320.588 263.282,342.042 241.756,342.042 			"/>
			<polygon fill="#E6E6E6" points="161.195,347.298 182.649,347.298 182.649,359.032 177.753,364.938 182.649,362.849 
				182.649,368.752 161.195,368.752 			"/>
			<path fill="#E6E6E6" d="M188.048,347.298h4.464c-0.432,0.433-0.792,0.863-1.152,1.296l-3.312,4.031V347.298L188.048,347.298z
				 M209.575,349.745v19.007h-21.527v-8.207l9.215-3.96C201.583,354.785,205.687,352.409,209.575,349.745z"/>
			<polygon fill="#E6E6E6" points="214.901,347.298 236.429,347.298 236.429,368.752 214.901,368.752 			"/>
			<polygon fill="#E6E6E6" points="188.048,374.008 209.575,374.008 209.575,395.533 188.048,395.533 			"/>
			<path fill="#7EC31E" d="M274.801,125.269c3.168-20.302-7.415-33.477-9.647-33.837c-4.895-0.648-3.6,9.359-13.533,18.358
				c-4.823,4.536-12.239,10.007-18.358,11.951c-18.358,6.048-25.413-10.943-42.836-17.063c-12.887-4.536-27.646-4.823-43.412,2.88
				c-11.303,5.472-19.942,14.759-21.886,26.998c-1.944,12.239,5.472,50.9,1.584,58.315c-4.176,7.343-9,11.231-17.063,13.463
				c-17.71,5.185-28.294-2.521-30.598,0.647c-3.167,4.176,14.183,21.237,20.015,26.063c6.407,5.184,22.822,11.951,30.885,12.6
				c13.175,1.295,26.998-1.944,39.885-5.473c6.12-1.656,12.599-5.472,19.006-6.119c6.12-0.359,14.183,0.936,18.358,5.471
				c5.111,5.761,6.119,12.889,4.176,20.592c-1.584,6.406-10.943,17.998-17.062,26.422c-2.592,3.814-4.824,12.525-2.592,16.701
				c3.528,6.407,7.703,9.359,15.767,15.479c3.383,2.521,3.742,6.912,2.662,11.017c-2.23,8.639-11.446,18.069-14.831,22.174
				c16.63-7.127,28.583-21.958,30.885-28.077c2.23-6.768,0.288-13.535-3.889-15.768c-4.534-2.592-11.59-5.11-8.352-9.358
				c9.646-13.463,48.596-43.125,48.596-59.539c0-4.464-3.238-10.583-5.471-18.286c-2.881-9.72-6.48-17.063,0.646-24.19
				c3.169-3.24,13.176-10.583,13.824-20.878c0.287-4.824-4.824-9.359-7.416-13.535c-3.527-5.472-2.231-13.823,1.943-18.646
				C271.201,136.5,273.505,132.037,274.801,125.269z M161.771,149.387c-2.231,4.536-7.991,6.12-13.175,4.824
				c-4.823-1.296-8.711-4.824-11.879-8.711c-1.008-1.296-1.944-2.52-2.304-3.815c-0.288-1.656,0.36-3.24,1.656-3.888
				c0.648-0.288,1.296-0.288,2.232-0.288c2.88,0,6.12,0.648,8.999,1.224c2.592,0.648,4.824,2.304,7.416,1.944
				c4.824-0.288,7.703-2.52,7.703-2.52C163.066,141.972,163.714,146.147,161.771,149.387z M165.658,136.212
				c0,0,2.592-2.304,4.176-6.767c1.008-2.232,0-5.184,0-7.416c0-2.88,0-6.12,0.648-8.999c0-0.648,0.36-1.656,0.648-1.944
				c0.936-1.296,2.88-1.296,4.176-0.648c1.296,0.648,2.231,1.944,3.24,3.24c2.879,4.175,5.471,8.639,5.471,13.823
				s-2.879,10.295-7.703,11.591C172.714,139.092,169.186,137.508,165.658,136.212z M188.48,177.681
				c-2.88,1.943-9.287-2.88-14.111-10.943c-4.824-7.703-6.479-15.767-3.24-17.638c2.88-1.944,9.359,2.879,14.183,10.943
				C190.136,167.745,191.72,175.809,188.48,177.681z"/>
			<path fill="none" stroke="#FFFFFF" stroke-width="6" d="M239.092,114.83c0,0-0.936,4.967,4.032,15.407
				c4.967,10.367,1.512,21.886-7.775,33.333c-15.839,19.366-10.15,47.373,21.383,47.804"/>
			<path fill="none" stroke="#FFFFFF" stroke-width="6" d="M225.629,188.047c-11.159,1.8-17.494,2.952-27.213,11.952
				c-3.816,3.527-15.119,14.038-12.887,37.652"/>
			<path fill="none" stroke="#FFFFFF" stroke-width="6" d="M158.315,248.019c0.072-24.55,4.751-60.69-31.533-62.922"/>
			<rect x="102.16" y="204.103" fill="#FEFEFE" width="5.324" height="39.76"/>
			<rect x="206.712" y="261.701" fill="#FEFEFE" width="48.102" height="5.325"/>
			<rect x="173.434" y="358.385" fill="#E6E6E6" width="9.144" height="9.575"/>
		</g>
		<g>
			<path fill="#373435" d="M91.361,184.232c7.271,0,13.103,5.832,13.103,13.103c0,6.119-9.359,17.277-13.103,22.895
				c-3.744-5.615-13.103-16.774-13.103-22.895C78.258,190.063,84.089,184.232,91.361,184.232z"/>
			<circle fill="#FFFFFF" cx="91.361" cy="197.479" r="10.871"/>
			<text transform="matrix(1 0 0 1 86.6133 202.8662)" fill="#69A810" font-family="'MyriadPro-Semibold'" font-size="16.5716">1</text>
		</g>
		<g>
			<path fill="#373435" d="M177.394,199.495c7.199,0,13.103,5.902,13.103,13.104c0,6.19-9.359,17.277-13.103,22.894
				c-3.744-5.615-13.103-16.702-13.103-22.894C164.291,205.397,170.122,199.495,177.394,199.495z"/>
			<circle fill="#FFFFFF" cx="177.394" cy="212.741" r="10.871"/>
			<text transform="matrix(1 0 0 1 173.207 217.7666)" fill="#69A810" font-family="'MyriadPro-Semibold'" font-size="16.5716">2</text>
		</g>
		<g>
			<path fill="#373435" d="M261.122,107.199c7.271,0,13.104,5.832,13.104,13.103c0,6.191-9.287,17.278-13.104,22.894
				c-3.744-5.615-13.104-16.702-13.104-22.894C248.019,113.03,253.923,107.199,261.122,107.199z"/>
			<circle fill="#FFFFFF" cx="261.122" cy="120.445" r="10.871"/>
			<text transform="matrix(1 0 0 1 256.7305 125.8223)" fill="#69A810" font-family="'MyriadPro-Semibold'" font-size="16.5716">4</text>
		</g>
		<g>
			<path fill="#373435" d="M231.604,222.819c7.271,0,13.104,5.904,13.104,13.104c0,6.191-9.359,17.279-13.104,22.895
				c-3.744-5.614-13.104-16.702-13.104-22.895C218.502,228.724,224.333,222.819,231.604,222.819z"/>
			<circle fill="#FFFFFF" cx="231.604" cy="236.067" r="10.871"/>
			<text transform="matrix(1 0 0 1 227.4785 241.4854)" fill="#69A810" font-family="'MyriadPro-Semibold'" font-size="16.5716">3</text>
		</g>
	</g>
</g>
</svg>
