<?xml version="1.0" encoding="utf-8"?>
<!-- Generator: Adobe Illustrator 16.0.0, SVG Export Plug-In . SVG Version: 6.00 Build 0)  -->
<!DOCTYPE svg PUBLIC "-//W3C//DTD SVG 1.1//EN" "http://www.w3.org/Graphics/SVG/1.1/DTD/svg11.dtd">
<svg version="1.1" id="Layer_1" xmlns="http://www.w3.org/2000/svg" xmlns:xlink="http://www.w3.org/1999/xlink" x="0px" y="0px"
	 width="350.396px" height="358.309px" viewBox="0 0 350.396 358.309" enable-background="new 0 0 350.396 358.309"
	 xml:space="preserve">
<g id="Layer_x0020_1">
	<g id="_2032991279392">
		<circle fill="#69A810" cx="175.162" cy="183.078" r="175.158"/>
		<g>
			<circle fill="#7EC31E" cx="175.162" cy="175.159" r="175.159"/>
			<circle fill="#2C2B27" cx="175.162" cy="175.159" r="164.072"/>
			<g>
				<g>
					<path fill="#7EC31E" d="M173.434,296.251c-14.327,0-22.03-3.312-22.03-3.312l-4.319,7.703l-11.015-1.943l2.808-6.768
						c-53.059-47.3-16.631-88.479-16.631-88.479c-10.438-12.239,11.231-6.839,11.231-6.839s47.587,8.566,81.063,0
						c0,0,21.67-5.4,11.231,6.839c0,0,36.428,41.18-16.631,88.479l2.808,6.768l-11.015,1.943l-4.319-7.703
						c0,0-7.703,3.312-22.03,3.312H173.434z"/>
				</g>
				<ellipse fill="#7EC31E" cx="174.082" cy="197.188" rx="55.291" ry="14.11"/>
				<path fill="#7EC31E" fill-opacity="0.502" d="M153.852,170.839c0-3.528,2.808-6.264,6.263-6.264
					c3.528,0,6.336,2.736,6.336,6.264c0,3.456-2.808,6.263-6.336,6.263C156.66,177.103,153.852,174.295,153.852,170.839z"/>
				<path fill="#7EC31E" fill-opacity="0.502" d="M195.032,177.606c0-2.592,2.088-4.536,4.535-4.536
					c2.592,0,4.536,2.088,4.536,4.536c0,2.664-2.088,4.536-4.536,4.536C197.12,182.143,195.032,180.055,195.032,177.606z"/>
				<path fill="#7EC31E" fill-opacity="0.502" d="M136.214,155.289c0-2.592,2.088-4.536,4.536-4.536
					c2.663,0,4.535,2.088,4.535,4.536c0,2.592-2.088,4.536-4.535,4.536C138.158,159.824,136.214,157.736,136.214,155.289z"/>
				<path fill="#7EC31E" fill-opacity="0.502" d="M199.063,145.21c0-2.664,2.088-4.536,4.536-4.536c2.592,0,4.535,2.087,4.535,4.536
					c0,2.591-2.088,4.535-4.535,4.535C201.151,149.745,199.063,147.801,199.063,145.21z"/>
				<path fill="#ACDA42" fill-opacity="0.6196" d="M215.262,193.518c0-4.32-18.719-7.848-41.828-7.848
					c-23.182,0-41.9,3.527-41.9,7.848c0,4.318,18.719,7.847,41.9,7.847C196.544,201.364,215.262,197.836,215.262,193.518z"/>
				<path fill="#7EC31E" d="M198.704,198.772c13.246-14.687,26.493-29.517,39.74-44.348c1.583-1.728,3.527-3.672,5.759-3.456
					c0.576,0,1.08,0.144,1.584,0.504c0.576,0.36,0.864,1.008,1.08,1.584c1.872,5.183-2.304,10.439-6.264,14.254
					c-11.734,11.735-23.613,23.397-35.276,34.917c-0.36,0.359-0.864,0.504-1.368,0.863c-2.663,2.088-7.343-1.728-6.335-2.808
					L198.704,198.772z"/>
				<g>
					<path fill="#83B841" fill-opacity="0.251" d="M183.01,192.797c0-4.176,2.951-8.207,8.566-7.631
						c5.04,0.504,6.983,3.815,6.768,7.631c-0.144,4.176-3.455,7.703-7.703,7.703C186.465,200.5,183.01,196.973,183.01,192.797z"/>
					<path fill="#CFE07F" fill-opacity="0.3098" d="M186.105,190.926c0-2.664,1.943-5.112,5.255-4.752
						c3.168,0.359,4.392,2.447,4.176,4.752c-0.144,2.592-2.088,4.679-4.68,4.679S186.105,193.518,186.105,190.926z"/>
				</g>
				<g>
					<circle fill="#7EC31E" cx="145.255" cy="186.119" r="12.925"/>
					<path fill="#ACDA42" fill-opacity="0.6196" d="M152.341,179.91c-1.44-4.031-5.832-6.047-9.863-4.607
						c-3.96,1.44-6.048,5.832-4.607,9.863c1.512,3.959,5.903,5.975,9.862,4.535C151.692,188.262,153.78,183.87,152.341,179.91z"/>
				</g>
				<path fill="#7EC31E" d="M214.542,68.033c1.8-10.943-3.959-18.142-5.184-18.286c-2.663-0.36-1.943,5.04-7.343,9.935
					c-2.592,2.448-6.623,5.399-9.936,6.479c-9.935,3.312-13.822-5.976-23.182-9.287c-6.983-2.448-15.046-2.592-23.613,1.583
					c-6.048,2.952-10.799,8.063-11.807,14.687c-1.08,6.624,2.951,27.574,0.863,31.533c-2.304,4.032-4.896,6.119-9.287,7.343
					c-9.574,2.808-15.334-1.368-16.558,0.36c-1.729,2.232,7.703,11.519,10.799,14.111c3.527,2.808,12.383,6.479,16.774,6.839
					c7.127,0.648,14.614-1.08,21.598-2.952c3.312-0.936,6.839-3.023,10.295-3.312c3.312-0.216,7.703,0.504,10.007,2.952
					c2.736,3.096,3.312,6.983,2.232,11.159c-0.864,3.456-5.904,9.791-9.216,14.327c-1.439,2.087-2.663,6.767-1.439,9.071
					c1.943,3.456,4.176,5.04,8.567,8.351c2.231,1.728,1.583,6.264,0.359,8.855c-1.224,2.663-3.312,4.751-5.255,6.695l0.359,0.864
					c5.903-4.393,13.463-10.295,14.687-13.607c1.152-3.672,0.145-7.343-2.159-8.567c-2.376-1.368-6.264-2.808-4.536-5.04
					c5.256-7.343,26.35-23.397,26.35-32.325c0-2.448-1.728-5.759-2.952-9.935c-1.583-5.255-3.455-9.215,0.36-13.103
					c1.728-1.728,7.127-5.76,7.487-11.303c0.216-2.591-2.592-5.04-4.031-7.343c-1.872-2.952-1.152-7.487,1.079-10.079
					C212.671,74.153,213.894,71.705,214.542,68.033z M153.348,81.136c-1.225,2.448-4.392,3.312-7.199,2.664
					c-2.592-0.72-4.68-2.664-6.408-4.751c-0.504-0.72-1.079-1.368-1.224-2.088c-0.216-0.864,0.145-1.728,0.864-2.088
					c0.359-0.144,0.72-0.144,1.224-0.144c1.584,0,3.312,0.288,4.896,0.648c1.368,0.36,2.592,1.224,4.032,1.08
					c2.591-0.216,4.175-1.44,4.175-1.44C154.068,77.104,154.356,79.408,153.348,81.136z M155.436,74.009
					c0,0,1.367-1.224,2.231-3.672c0.576-1.224,0-2.808,0-4.031c0-1.584,0-3.312,0.36-4.896c0-0.36,0.216-0.864,0.359-1.008
					c0.504-0.72,1.584-0.72,2.304-0.36c0.648,0.36,1.224,1.008,1.729,1.728c1.583,2.304,2.951,4.751,2.951,7.487
					c0,2.808-1.584,5.615-4.176,6.335C159.252,75.593,157.38,74.729,155.436,74.009z M167.819,96.471
					c-1.584,1.08-5.04-1.512-7.704-5.904c-2.591-4.175-3.455-8.567-1.728-9.575c1.584-1.08,5.04,1.583,7.703,5.903
					C168.682,91.071,169.547,95.462,167.819,96.471z"/>
				<path fill="#7EC31E" fill-opacity="0.502" d="M219.078,139.954c2.663-2.592,6.119-4.031,8.423-6.839
					c2.231-2.736,3.672-6.767,1.872-10.079c-1.224-2.304-3.456-3.672-4.68-5.76c-1.584-3.167-0.144-6.839,2.088-9.431
					c2.304-2.591,5.399-4.175,8.063-6.263c4.823-3.888,8.854-10.295,6.623-16.271c-0.72-1.872-1.944-3.456-3.168-5.04
					c-2.447-3.167-4.896-6.479-7.487-9.575c-2.088-2.664-4.176-5.4-5.615-8.423c-1.368-2.952-4.68-6.407-3.815-9.575
					c-0.36,1.584,11.015,14.111,14.687,16.918c2.088,1.584,9.575,5.976,11.446,7.703c4.752,4.32,6.84,10.655,4.248,16.559
					c-2.448,5.399-9.287,10.799-13.103,15.19c-1.368,1.584-2.592,3.312-2.808,5.399c-0.36,5.255,3.671,5.903,6.263,10.295
					c2.448,4.032,1.8,10.295-1.008,13.103c-2.808,2.592-6.623,4.176-10.295,5.256c-3.672,1.008-13.463,5.543-18.502,10.943
					c-4.176,4.392-8.352,15.55-8.063,15.694C204.823,169.759,201.151,157.88,219.078,139.954z"/>
				<path fill="#7EC31E" fill-opacity="0.502" d="M161.555,163.352c2.808-6.335,2.088-13.823-1.728-19.366
					c-0.721-1.08-1.584-2.088-2.664-2.664c-1.224-0.648-2.592-0.648-4.031-0.864c-7.128-0.36-19.007,1.728-25.99,0.36
					c-8.207-1.584-14.83-6.983-17.278-9.431c-4.823-4.896-7.991-9.431-10.583-15.838c-0.936-2.088-0.575-6.12,0.864-8.063
					c0.504-0.72,1.224-1.224,1.872-1.584c3.168-1.872,8.063-2.735,11.879-4.319c8.711-3.312,7.847-11.159,6.479-14.831
					c-1.44-3.888-4.392-6.335-6.624-9.647c-2.304-3.312-4.535-7.847-4.392-11.807c0.36-4.535,3.672-8.567,7.703-10.871
					c-4.751,0.576-8.711,2.664-11.158,6.623c-2.304,4.032-1.8,10.655,1.871,17.999c1.944,3.671-0.359,9.287-6.407,11.375
					c-3.888,1.224-8.207,2.736-11.879,4.536c-7.847,3.456-12.599,13.391-11.879,21.814c0.721,8.351,5.904,14.831,13.607,18.43
					c3.167,1.584,6.623,3.312,9.431,5.472c3.672,2.591,7.127,5.543,8.927,9.719c1.225,3.168,3.096,6.983,6.408,6.839
					c1.439,0,2.663-0.864,4.031-1.584c2.592-1.224,5.399-1.943,7.991-2.591c4.031-1.08,8.207-1.944,12.239-3.024
					c4.535-1.008,9.791-1.512,13.822,0.576c4.68,2.448,6.407,7.631,7.271,12.887L161.555,163.352z"/>
				<path fill="#ACDA42" fill-opacity="0.6196" d="M214.758,202.372c0,0,28.798,30.741-1.943,76.456
					C212.671,278.828,255.434,236.425,214.758,202.372z"/>
				<path fill="#ACDA42" fill-opacity="0.6196" d="M134.126,202.372c0,0-28.797,30.741,1.944,76.456
					C136.07,278.828,93.522,236.425,134.126,202.372z"/>
			</g>
		</g>
	</g>
</g>
</svg>
