<?xml version="1.0" encoding="utf-8"?>
<!-- Generator: Adobe Illustrator 22.1.0, SVG Export Plug-In . SVG Version: 6.00 Build 0)  -->
<svg version="1.1" id="Layer_1" xmlns="http://www.w3.org/2000/svg" xmlns:xlink="http://www.w3.org/1999/xlink" x="0px" y="0px"
	 viewBox="0 0 256.6 81.9" style="enable-background:new 0 0 256.6 81.9;" xml:space="preserve">
<style type="text/css">
	.st0{fill:#7EC31E;}
</style>
<g>
	<g>
		<path class="st0" d="M67.1,64.7l-28.2-0.1c-1.5,0-2-2.1-0.5-2.7l5.2-2.1c0.8-0.3,1.1-1.4,0.6-2.1L28.8,36
			c-0.4-0.6-1.2-0.8-1.8-0.4l-5.8,3.2c-0.4,0.2-0.7,0.7-0.7,1.2l-0.2,12.3c0,0.6,0.4,1.2,1,1.4l9,3.1c1.5,0.5,1.1,2.8-0.5,2.8
			l-26.2,0c-1.5,0-2-2.1-0.6-2.7l6.5-3c0.5-0.2,0.9-0.8,0.8-1.4L8.5,18c0-0.6-0.4-1.1-0.9-1.3l-6.7-2.4c-1.5-0.5-1.1-2.7,0.4-2.7
			l26.8-1c1.6-0.1,2.1,2.1,0.6,2.7L22.2,16c-0.5,0.2-0.9,0.7-0.9,1.3L20.9,30c0,1.1,1.2,1.8,2.1,1.3l17.8-10.5
			c1-0.6,0.9-2.1-0.2-2.5l-2.9-1.2c-1.4-0.6-1-2.7,0.5-2.7h23c1.6,0,2,2.2,0.5,2.7l-9.4,3.4c-0.1,0-0.2,0.1-0.3,0.1l-15.4,9.6
			c-0.7,0.5-0.9,1.5-0.3,2.1L58,58.1c0.2,0.2,0.4,0.3,0.6,0.4l9,3.4C69.1,62.5,68.7,64.7,67.1,64.7z"/>
		<path class="st0" d="M72.1,59.5c-2-1.4-3.6-3.1-4.8-5c-1.2-1.9-2.1-4-2.6-6.2c-0.5-2.2-0.8-4.3-0.8-6.2c0-0.3,0-0.6,0-0.9
			c0-0.4,0-0.7,0-1.1c0-1.2,0.1-2.7,0.2-4.5c0.1-1.8,0.4-3.6,0.8-5.5c0.4-1.9,1-3.8,1.7-5.6c0.7-1.9,1.7-3.5,3-5
			c1.2-1.5,2.8-2.7,4.6-3.6c1.8-0.9,4-1.4,6.5-1.4c2,0,3.9,0.5,5.6,1.6c1.7,1.1,3.2,2.4,4.5,4c1.2,1.6,2.2,3.4,2.9,5.3
			c0.7,1.9,1.1,3.7,1.1,5.4c0,1.1,0.1,2.3,0.2,3.5c0.2,1.2,0.2,2.5,0.2,3.8c0,2.4-0.2,5-0.5,7.8c-0.3,2.8-1.1,5.5-2.2,7.9
			c-1.1,2.4-2.7,4.5-4.8,6.1c-2.1,1.6-4.8,2.4-8.3,2.4C76.5,61.9,74,60.9,72.1,59.5z M76.3,24.2c-0.7,0.8-1.4,1.9-2,3
			c-0.6,1.2-1,2.5-1.4,3.9c-0.3,1.4-0.5,2.9-0.5,4.4v7.3c0,7.5,2.5,11.3,7.6,11.3c1,0,1.9-0.4,2.7-1.3c0.8-0.9,1.5-2.1,2-3.5
			c0.5-1.5,1-3.1,1.3-5c0.3-1.9,0.4-3.8,0.4-5.8c0-2-0.1-4-0.4-5.9c-0.3-1.9-0.8-3.7-1.4-5.2c-0.6-1.5-1.4-2.7-2.4-3.7
			c-0.9-0.9-2.1-1.4-3.3-1.4h-0.4C77.7,22.8,77,23.4,76.3,24.2z"/>
		<path class="st0" d="M114.6,65.8l-10.1-34.9c0,0.4,0,0.8-0.1,1.1c-0.1,0.3-0.1,0.5-0.2,0.8c0,0.2-0.1,0.5-0.2,0.7
			c-0.1,0.2-0.1,0.6-0.1,1c-0.2,3.3-0.3,6.6-0.4,9.8s-0.2,6-0.2,8.3c0,2,0,4.2,0.1,6.4c0.1,2.2,0.2,4.8,0.5,7.7v0.3
			c0,0.8,0.4,1.6,1.2,2.5c0.8,0.9,1.9,1.7,3.4,2.3c0.4,0.4,0.6,0.6,0.7,0.7c0.1,0.1,0.2,0.3,0.2,0.5c0,0.2-0.1,0.4-0.4,0.7
			c-0.3,0.3-0.6,0.5-1,0.5c-2.2-0.6-4.6-0.9-7.2-0.9c-2.3,0-4.4,0.2-6.4,0.6c-1.9,0.4-3.5,0.7-4.6,1.1h-0.2c-0.6,0-1.2-0.1-1.7-0.2
			c-0.5-0.1-0.7-0.4-0.7-0.7c0-0.4,0.2-0.8,0.7-1l0.5-0.1c1.4-0.4,2.6-0.9,3.3-1.7c0.8-0.8,1.5-1.9,2.2-3.2c0.5-1,0.9-1.9,1.3-2.9
			c0.4-1,0.7-2.2,0.9-3.8c0.2-1.6,0.4-3.6,0.5-6c0.1-2.4,0.2-5.6,0.2-9.6V16.1L96.3,16c0-0.1,0-0.3-0.1-0.6c0-0.3-0.1-0.5-0.1-0.8
			c0-0.3-0.1-0.5-0.1-0.7c0-0.2-0.1-0.4-0.1-0.4c-0.1-0.9-0.4-1.6-1-2.1c-0.6-0.5-1.2-0.9-1.9-1.2c-0.7-0.3-1.3-0.6-1.9-0.9
			c-0.6-0.3-1-0.8-1.1-1.3c0-0.2,0.1-0.5,0.3-0.8c0.2-0.3,0.5-0.5,0.9-0.5c0.6,0.1,1.2,0.2,2,0.2C94.1,6.9,94.9,7,95.8,7l8.3-0.8
			l1.8-0.3c0.4,0,0.7,0.2,0.9,0.5c0.2,0.3,0.3,0.9,0.3,1.8l8.2,31c0-0.8,0.1-1.5,0.3-1.8c0.2-0.4,0.3-0.8,0.3-1.4c0-0.2,0-0.4,0-0.6
			c0-0.2,0-0.6,0-1c-0.1-3.9-0.2-7.1-0.3-9.6c-0.1-2.5-0.2-4.7-0.2-6.4c0-1.7-0.1-3.1-0.1-4.2c0-1.1,0-2.1,0-3v-0.1
			c0-0.1,0-0.3-0.1-0.6c0-0.3-0.1-0.5-0.1-0.8c0-0.3-0.1-0.5-0.1-0.7c0-0.2-0.1-0.4-0.1-0.4c-0.1-0.9-0.4-1.6-1-2.1
			c-0.6-0.5-1.2-0.9-1.9-1.2c-0.7-0.3-1.3-0.6-1.9-0.9c-0.6-0.3-1-0.8-1.1-1.3c0-0.2,0.1-0.5,0.3-0.8c0.2-0.3,0.5-0.5,0.9-0.5
			c0.6,0.1,1.2,0.2,2,0.2c0.7,0.1,1.5,0.1,2.4,0.1c2.3,0,5.1-0.2,8.4-0.6c3.2-0.4,6.7-1,10.3-1.8c0.1,0,0.2,0,0.2,0c0,0,0.1,0,0.1,0
			c0.5,0,0.7,0.2,0.7,0.7c0.2,0.1,0.3,0.3,0.3,0.5c0,0.2-0.2,0.5-0.6,0.8c-0.4,0.3-0.9,0.6-1.5,0.9c-0.6,0.3-1.3,0.6-2.1,0.9
			c-0.8,0.3-1.6,0.6-2.5,0.9L127,4.8c-0.5,0.2-1,0.4-1.3,0.7c-0.3,0.2-0.6,0.5-0.7,0.8c-0.2,0.3-0.3,0.6-0.3,1.1
			c-0.1,0.4-0.1,1-0.1,1.6c0,4.3,0.1,8.3,0.1,11.9c0,3.6,0,6.9,0,10c0,5.1,0,9.4,0,13c0,3.6,0,6.6,0.1,9.1c0,2.4,0.1,4.4,0.1,5.8
			c0,1.4,0.1,2.6,0.2,3.4c0.1,0.8,0.2,1.4,0.4,1.7s0.3,0.6,0.6,0.8c1,1.2,2,2.2,3,3c0.9,0.8,2.1,1.3,3.6,1.7l0.5,0.1
			c0.5,0.2,0.7,0.6,0.7,1c0,0.4-0.2,0.6-0.7,0.7s-1,0.2-1.7,0.2h-0.2c-0.5-0.3-1.6-0.6-3.2-0.9c-1.6-0.3-3.8-0.4-6.5-0.4
			c-1.3,0-2.7,0.1-4.3,0.2c-1.6,0.1-3.2,0.3-5,0.5c-0.8-0.1-1.1-0.3-1.1-0.6c0-0.2,0.1-0.6,0.4-1c0.2-0.5,0.6-0.9,0.9-1.2
			c1,0,1.7-0.1,2-0.2c0.3-0.2,0.4-0.4,0.4-0.8c0-0.4,0-0.6-0.1-0.7L114.6,65.8z"/>
		<path class="st0" d="M146.4,19.7v43.2c0,2.5-0.2,4.9-0.6,7.1c-0.4,2.3-1.2,4.3-2.3,6c-1.1,1.7-2.5,3.1-4.4,4.1
			c-1.8,1-4.2,1.5-7,1.5c-1.1,0.1-2.2,0.2-3.3,0.2c-2.5,0-4.9-0.3-7.2-0.9c-2.3-0.6-4.2-1.4-5.9-2.3c-1.7-0.9-3-1.8-4-2.8
			c-1-1-1.5-1.8-1.5-2.5c0-0.4,0.2-0.8,0.5-1c2.3,1.1,4.9,1.9,7.8,2.5c2.9,0.6,5.7,0.9,8.3,0.9c1.8,0,3.4-0.4,4.7-1.1
			c1.3-0.7,2.3-1.6,3.1-2.7c0.8-1.1,1.4-2.4,1.9-3.7c0.4-1.4,0.7-2.7,0.9-4.1c0.2-1.4,0.3-2.6,0.4-3.8c0-1.2,0.1-2.2,0.1-2.9
			c0-0.4,0-0.6,0-0.7c0,0,0-0.1,0.1-0.3c0-0.1,0-0.4,0.1-0.8c0-0.4,0-1.2,0-2.4V24.5c0-0.3,0-0.5-0.1-0.7v-2.9
			c0-1.2-0.3-2.1-0.8-2.6c-0.6-0.5-1.2-0.9-1.9-1.2c-0.7-0.3-1.3-0.6-1.9-0.9c-0.6-0.3-0.9-0.9-0.9-1.8c0-0.2,0-0.5,0.1-0.9
			c0.1-0.4,0.3-0.5,0.7-0.5c1.9-0.1,3.8-0.3,5.5-0.6c1.8-0.2,3.5-0.6,5.1-1c1.7-0.4,3.3-0.9,4.9-1.5c1.6-0.6,3.2-1.3,4.9-2.2
			c0.1,0,0.2,0,0.2,0c0,0,0.1,0,0.1,0c0.5,0,0.7,0.2,0.7,0.7c0,0.4-0.2,1-0.6,1.7c-0.4,0.7-1.5,1.4-3.2,2.2c-0.7,0.3-1.4,0.7-2,1.3
			c-0.6,0.6-1.1,1.2-1.5,1.8c-0.4,0.7-0.7,1.4-0.9,2.1C146.6,18.2,146.4,19,146.4,19.7z"/>
		<path class="st0" d="M183.9,22.2v30.7l0.3,1.5c0,0.2,0,0.5,0,0.7c0,0.3,0,0.5-0.1,0.7c-0.1,2-0.4,4-0.8,5.8
			c-0.5,1.8-1.2,3.5-2.3,4.9c-1.1,1.4-2.5,2.5-4.4,3.4c-1.8,0.8-4.2,1.3-7.1,1.3c-1.2,0-2.6-0.2-4.4-0.5c-1.8-0.3-3.5-1.1-5.2-2.2
			c-1.7-1.2-3.1-2.9-4.3-5.1c-1.2-2.3-1.8-5.3-1.8-9.2v-1.7c0-0.5,0-1.2,0-2c0-0.8,0-1.8,0-2.9c0-0.9,0-2,0-3.2c0-1.2,0-2.7,0-4.4
			c0-1.7,0-3.7-0.1-5.9c0-2.2-0.1-4.8-0.1-7.7V26c0-0.1,0-0.3-0.1-0.6c0-0.3-0.1-0.5-0.1-0.8c0-0.3-0.1-0.5-0.1-0.7
			c0-0.2-0.1-0.4-0.1-0.4c-0.1-1.2-0.4-1.9-1-2.2c-0.6-0.3-1.2-0.6-1.8-0.7c-0.7-0.1-1.2-0.3-1.8-0.4c-0.5-0.2-0.8-0.7-0.8-1.6v-0.1
			c0-0.2,0.1-0.4,0.3-0.6c0.2-0.2,0.5-0.3,0.9-0.3c3.9-0.3,7.5-0.8,10.9-1.6c3.4-0.8,6.8-2,10.1-3.9c0.1,0,0.2,0,0.2,0
			c0,0,0.1,0,0.1,0c0.5,0,0.7,0.2,0.7,0.7c0.2,0.1,0.3,0.3,0.3,0.5c0,0.5-0.5,1.2-1.6,2c-1.1,0.8-2.5,1.5-4.3,2.2
			c-0.7,0.3-1.4,0.8-2,1.6c-0.6,0.8-1.1,1.6-1.5,2.5c-0.4,0.9-0.8,1.9-1,2.9c-0.2,1-0.3,1.8-0.3,2.5v12.9c0,2.8,0,5.5,0.1,8.2
			c0.1,2.7,0.2,5.6,0.4,8.8c0,0.4,0.1,1,0.3,1.7c0.2,0.7,0.5,1.4,1,2.1c0.4,0.7,1.1,1.2,1.8,1.7c0.8,0.5,1.7,0.7,2.8,0.7h0.5
			c1.1,0,2.1-0.3,3-0.8c0.9-0.5,1.8-1.2,2.4-2.1s1.2-1.8,1.6-2.9c0.4-1.1,0.6-2.2,0.7-3.4c0-0.8,0.1-1.7,0.1-2.5c0-0.8,0-1.6,0-2.4
			V26.9c0-0.3,0-0.5-0.1-0.7v-2.9c0-1.2-0.3-2.1-0.8-2.6c-0.6-0.5-1.2-0.9-1.9-1.2c-0.7-0.3-1.3-0.6-1.9-0.9
			c-0.6-0.3-0.9-0.9-0.9-1.8c0-0.2,0-0.5,0.1-0.9c0.1-0.4,0.3-0.5,0.7-0.5c1.9-0.1,3.8-0.3,5.5-0.6c1.8-0.2,3.5-0.6,5.1-1
			c1.7-0.4,3.3-0.9,4.9-1.5c1.6-0.6,3.2-1.3,4.9-2.2c0.1,0,0.2,0,0.2,0c0,0,0.1,0,0.1,0c0.5,0,0.7,0.2,0.7,0.7c0,0.4-0.2,1-0.6,1.7
			c-0.4,0.7-1.5,1.4-3.2,2.2c-0.7,0.3-1.4,0.7-2,1.3c-0.6,0.6-1.1,1.2-1.5,1.8c-0.4,0.7-0.7,1.4-0.9,2.1
			C184,20.6,183.9,21.4,183.9,22.2z"/>
		<path class="st0" d="M243.1,72.3c-2.7,0.5-5.1,0.9-7.3,1.2c-2.1,0.3-4.2,0.5-6.3,0.5h-1.3c-4.1,0-7.6-0.5-10.4-1.5
			c-2.8-1-5.1-2.4-6.8-4.1c-1.7-1.7-3-3.7-3.8-6c-0.8-2.3-1.1-4.7-1.1-7.4c0-1.1-0.1-2.1-0.4-3.2c-0.3-1.1-0.6-2.1-1.1-3
			c-0.5-0.9-1-1.6-1.6-2.2c-0.6-0.6-1.2-0.8-1.9-0.8h-2v12c0,0.6,0.1,1.1,0.3,1.7c0.2,0.5,0.4,1,0.8,1.5c0.4,0.5,0.9,0.9,1.6,1.2
			c0.7,0.4,1.6,0.6,2.7,0.8l0.1,0.5v0.7c0,0.5-0.2,0.8-0.7,0.9c0,0,0,0-0.1,0c-0.3,0-0.4,0-0.4,0c-0.1,0-0.4,0-0.8,0
			c-0.5,0-0.9-0.1-1.1-0.1c-0.6-0.1-1-0.1-1.9-0.1c-0.7,0-1.6-0.1-2.4-0.1c-1.2,0-2,0.2-3.6,0.5c-2.3,0.4-2.1,0.6-3.1,0.6
			c-1,0-1.8-0.1-2.4,0.2c-0.1,0-0.5,0.2-1.1,0.3c-0.1,0-0.2,0-0.3,0c-0.5,0-0.8,0-1-0.1c-0.1,0-0.4-0.2-0.4-0.4c0,0,0,0,0-0.1
			c0-0.3,0.1-0.5,0.1-0.6c0.1-0.3,0.2-0.5,0.4-0.6c0.1-0.1,0.2-0.1,0.5-0.2c0.2-0.1,0.3-0.2,0.4-0.2c0.9-0.5,1.4-0.7,1.9-1.1
			c0.1-0.1,0.7-0.5,1.2-1.3c0.2-0.3,0.4-0.8,0.6-2.2c0.3-1.8,0-2.1,0.3-3.8c0.1-0.8,0.2-0.7,0.4-1.8c0.1-0.5,0.2-1.3,0.3-2.6
			c0.1-0.6,0.2-1.8,0.2-3.7c0-0.4,0.1-2.4,0.1-5.2c0-1.1,0-2.4-0.1-4.2c-0.1-1.5-0.2-2.6-0.2-3.7c-0.2-2.1-0.2-1.9-0.3-3.6
			c-0.1-1.8-0.1-2.4-0.3-3.9c-0.2-1.5-0.3-2.1-0.6-2.8c-0.5-1-1.1-1.6-1.3-1.8c-0.2-0.2-0.8-0.7-1.8-1.1c-1.2-0.5-2-0.3-2.2-0.8
			c-0.1-0.2,0-0.5,0.2-1c0.1-0.4,0.2-0.5,0.4-0.6c0.2-0.1,0.3-0.1,0.4-0.1c3.9,0,7.7-0.3,11.6-0.2c4.4,0.1,6.6-0.8,11.5-0.7
			c0.6,0,2.5,0.1,4.3,1c1.1,0.6,2,1.4,2.1,1.5c0.1,0.1,0.6,0.6,1.1,1.2c1.3,1.6,1.8,3.1,2,3.9c0.1,0.2,0.3,0.9,0.5,1.8
			c0.1,0.4,0.3,1.4,0.3,2.7c0,1.2,0,3.1-0.9,5.2c-0.2,0.4-0.9,1.9-2.4,3.4c-1,0.9-1.9,1.6-3,2.3c-0.3,0.2-1.2,0.8-2.9,1.9
			c-0.3,0.2-1.1,0.7-1,0.8c0,0,0.1,0,0.1,0c0.4-0.1,2,0.2,3.3,1.1c1.1,0.7,1.6,1.6,2.3,2.8c0.3,0.5,0.7,1.3,1.6,3.9
			c0.7,2,0.7,2.3,1.4,4.4c0.7,2.1,1,3.2,1.6,4.3c0.3,0.6,1,2.1,2.2,3.6c2.3,2.9,5.1,4.2,6.4,4.8c3.6,1.7,6.8,1.7,9.1,1.8
			c4.4,0.1,8.2-0.9,8.9-1.2c0.6-0.2,1.2-0.3,1.8-0.5c0,0,0.2-0.1,0.3-0.1c0.1,0,0.3,0,0.5,0.2c0.2,0.2,0.2,0.4,0.2,0.5
			c0,0.1,0,0.5-0.6,1c-0.2,0.2-0.5,0.4-1.5,0.8c-0.9,0.4-1.3,0.5-1.7,0.6C244.7,71.5,243.7,72,243.1,72.3z M242.5,74.7
			c0,0,0-0.1,0-0.1 M198.6,25.1l0.5,13.8l3.5-0.3c0.7,0,1.4-0.1,2.3-0.2c0.8-0.2,1.6-0.5,2.4-1c0.7-0.5,1.4-1.2,1.9-2.1
			c0.5-0.9,0.7-2.1,0.7-3.6c0-0.9-0.1-1.8-0.4-2.7c-0.3-0.9-0.7-1.6-1.2-2.3c-0.5-0.6-1.2-1.2-2-1.6c-0.8-0.4-1.8-0.6-2.8-0.6
			c-0.8,0-1.6,0.1-2.2,0.3C200.1,24.9,199.3,24.9,198.6,25.1z"/>
		<path class="st0" d="M256.5,42.8c-0.5,1.3-1,2.6-1.6,3.7c-0.6,1.2-1.5,1.9-2.8,2.3c-2.8,0.6-5.1,1.1-6.8,1.4
			c-1.8,0.3-3.2,0.6-4.3,0.7c-1.1,0.2-1.9,0.3-2.4,0.3c-0.5,0-1,0.1-1.4,0.1c-0.2,0-0.4,0-0.6,0c-0.2,0-0.3,0-0.4,0h-0.8
			c-0.6,0-1.3-0.1-2.2-0.2c-0.9-0.1-1.7-0.3-2.6-0.5c-0.9-0.2-1.7-0.6-2.5-1c-0.8-0.4-1.4-1-1.9-1.8c-1-0.9-1.9-2.1-2.6-3.4
			c-0.7-1.3-1.2-2.9-1.5-4.8c-0.4-2.2-0.6-4.4-0.6-6.7c0-2.6,0.2-5.2,0.7-7.7c0.4-2.5,1.2-4.7,2.4-6.7c1.1-1.9,2.6-3.5,4.5-4.7
			c1.8-1.2,4.2-1.8,7-1.8h2.2c0,0,0.1-0.1,0.3-0.1c1.6,0,3,0.4,4.1,1.3c1.1,0.9,2,2.2,2.8,3.9c0.8,1.7,1.4,3.8,1.9,6.4
			c0.5,2.5,1,5.4,1.4,8.7c0,0.1,0.1,0.3,0.1,0.6v0.5c0,0.5-0.1,1-0.4,1.4c-0.3,0.4-0.9,0.6-1.9,0.6l-16.1,0.9v0.5
			c0,0.9,0.2,1.7,0.6,2.5c0.4,0.8,0.7,1.6,0.8,2.3c0.1,0.9,0.9,1.7,2.4,2.4c1.5,0.7,3.5,1,5.8,1l0.1-0.1c2.7-0.2,5.4-0.5,8.1-0.9
			c2.7-0.4,5.5-0.9,8.3-1.4L256.5,42.8z M239.7,20.5c-0.6-1.8-1.6-2.8-3-2.8c-0.8,0-1.6,0.3-2.4,0.8c-0.8,0.6-1.5,1.3-2.2,2.3
			c-0.7,1-1.2,2.1-1.6,3.5c-0.4,1.4-0.6,2.8-0.6,4.4v0.8c0,0.3,0,0.6,0.1,0.7l10.9-0.6C240.7,25.4,240.3,22.3,239.7,20.5z"/>
	</g>
</g>
</svg>
